SourceSerif_c2.ufo
<glyph name="quotedbl" format="2">
	<unicode hex="0022"/>
	<advance width="531"/>
	<outline>
		<contour>
			<point x="128" y="728" type="curve" smooth="yes"/>
			<point x="73" y="728"/>
			<point x="36" y="696"/>
			<point x="36" y="636" type="curve" smooth="yes"/>
			<point x="36" y="584"/>
			<point x="48" y="540"/>
			<point x="64" y="476" type="curve" smooth="yes"/>
			<point x="88" y="380" type="line"/>
			<point x="168" y="380" type="line"/>
			<point x="192" y="476" type="line" smooth="yes"/>
			<point x="208" y="540"/>
			<point x="220" y="584"/>
			<point x="220" y="636" type="curve" smooth="yes"/>
			<point x="220" y="696"/>
			<point x="184" y="728"/>
		</contour>
		<contour>
			<point x="403" y="728" type="curve" smooth="yes"/>
			<point x="348" y="728"/>
			<point x="311" y="696"/>
			<point x="311" y="636" type="curve" smooth="yes"/>
			<point x="311" y="584"/>
			<point x="323" y="540"/>
			<point x="339" y="476" type="curve" smooth="yes"/>
			<point x="363" y="380" type="line"/>
			<point x="443" y="380" type="line"/>
			<point x="467" y="476" type="line" smooth="yes"/>
			<point x="483" y="540"/>
			<point x="495" y="584"/>
			<point x="495" y="636" type="curve" smooth="yes"/>
			<point x="495" y="696"/>
			<point x="459" y="728"/>
		</contour>
	</outline>
</glyph>
<glyph name="numbersign" format="2">
	<unicode hex="0023"/>
	<advance width="583"/>
	<outline>
		<contour>
			<point x="79" y="0" type="line"/>
			<point x="182" y="0" type="line"/>
			<point x="278" y="640" type="line"/>
			<point x="175" y="640" type="line"/>
		</contour>
		<contour>
			<point x="16" y="263" type="line"/>
			<point x="16" y="151" type="line"/>
			<point x="534" y="151" type="line"/>
			<point x="534" y="263" type="line"/>
		</contour>
		<contour>
			<point x="568" y="375" type="line"/>
			<point x="568" y="487" type="line"/>
			<point x="50" y="487" type="line"/>
			<point x="50" y="375" type="line"/>
		</contour>
		<contour>
			<point x="312" y="0" type="line"/>
			<point x="416" y="0" type="line"/>
			<point x="512" y="640" type="line"/>
			<point x="409" y="640" type="line"/>
		</contour>
	</outline>
</glyph>
<glyph name="dollar" format="2">
	<unicode hex="0024"/>
	<advance width="600"/>
	<outline>
		<contour>
			<point x="280" y="39" type="curve" smooth="yes"/>
			<point x="215" y="39"/>
			<point x="187" y="50"/>
			<point x="138" y="74" type="curve"/>
			<point x="227" y="21" type="line"/>
			<point x="212" y="110" type="line" smooth="yes"/>
			<point x="203" y="162"/>
			<point x="181" y="180"/>
			<point x="138" y="180" type="curve" smooth="yes"/>
			<point x="112" y="180"/>
			<point x="85" y="166"/>
			<point x="71" y="128" type="curve"/>
			<point x="71" y="38"/>
			<point x="142" y="-16"/>
			<point x="281" y="-16" type="curve" smooth="yes"/>
			<point x="444" y="-16"/>
			<point x="543" y="68"/>
			<point x="543" y="185" type="curve" smooth="yes"/>
			<point x="543" y="283"/>
			<point x="485" y="351"/>
			<point x="343" y="396" type="curve" smooth="yes"/>
			<point x="310" y="406" type="line" smooth="yes"/>
			<point x="238" y="428"/>
			<point x="214" y="452"/>
			<point x="214" y="501" type="curve" smooth="yes"/>
			<point x="214" y="562"/>
			<point x="261" y="585"/>
			<point x="328" y="585" type="curve" smooth="yes"/>
			<point x="370" y="585"/>
			<point x="397" y="581"/>
			<point x="449" y="557" type="curve"/>
			<point x="364" y="604" type="line"/>
			<point x="374" y="537" type="line" smooth="yes"/>
			<point x="385" y="462"/>
			<point x="422" y="448"/>
			<point x="461" y="448" type="curve" smooth="yes"/>
			<point x="487" y="448"/>
			<point x="516" y="463"/>
			<point x="521" y="504" type="curve"/>
			<point x="513" y="592"/>
			<point x="437" y="640"/>
			<point x="316" y="640" type="curve" smooth="yes"/>
			<point x="158" y="640"/>
			<point x="73" y="560"/>
			<point x="73" y="445" type="curve" smooth="yes"/>
			<point x="73" y="352"/>
			<point x="139" y="283"/>
			<point x="260" y="244" type="curve" smooth="yes"/>
			<point x="292" y="233" type="line" smooth="yes"/>
			<point x="372" y="205"/>
			<point x="395" y="186"/>
			<point x="395" y="133" type="curve" smooth="yes"/>
			<point x="395" y="78"/>
			<point x="352" y="39"/>
		</contour>
		<contour>
			<point x="344" y="314" type="line"/>
			<point x="344" y="731" type="line"/>
			<point x="273" y="731" type="line"/>
			<point x="273" y="314" type="line"/>
		</contour>
		<contour>
			<point x="265" y="-115" type="line"/>
			<point x="336" y="-115" type="line"/>
			<point x="336" y="314" type="line"/>
			<point x="265" y="314" type="line"/>
		</contour>
	</outline>
</glyph>
<glyph name="ampersand" format="2">
	<unicode hex="0026"/>
	<advance width="780"/>
	<outline>
		<contour>
			<point x="300" y="192" type="line"/>
			<point x="392" y="92" type="line" smooth="yes"/>
			<point x="476" y="0"/>
			<point x="540" y="-12"/>
			<point x="628" y="-12" type="curve" smooth="yes"/>
			<point x="684" y="-12"/>
			<point x="732" y="-4"/>
			<point x="748" y="0" type="curve"/>
			<point x="748" y="78" type="line"/>
			<point x="580" y="96" type="line"/>
			<point x="660" y="80" type="line"/>
			<point x="476" y="272" type="line"/>
			<point x="388" y="364" type="line" smooth="yes"/>
			<point x="312" y="444"/>
			<point x="288" y="484"/>
			<point x="288" y="536" type="curve" smooth="yes"/>
			<point x="288" y="580"/>
			<point x="308" y="604"/>
			<point x="342" y="604" type="curve" smooth="yes"/>
			<point x="376" y="604"/>
			<point x="396" y="580"/>
			<point x="396" y="536" type="curve" smooth="yes"/>
			<point x="396" y="484"/>
			<point x="380" y="444"/>
			<point x="344" y="388" type="curve"/>
			<point x="380" y="347" type="line"/>
			<point x="380" y="403" type="line"/>
			<point x="482" y="422"/>
			<point x="528" y="465"/>
			<point x="528" y="536" type="curve" smooth="yes"/>
			<point x="528" y="620"/>
			<point x="456" y="668"/>
			<point x="340" y="668" type="curve" smooth="yes"/>
			<point x="212" y="668"/>
			<point x="124" y="596"/>
			<point x="124" y="488" type="curve" smooth="yes"/>
			<point x="124" y="385"/>
			<point x="168" y="336"/>
			<point x="252" y="244" type="curve" smooth="yes"/>
		</contour>
		<contour>
			<point x="540" y="201" type="line"/>
			<point x="540" y="148" type="line"/>
			<point x="632" y="224"/>
			<point x="672" y="288"/>
			<point x="696" y="396" type="curve"/>
			<point x="592" y="396" type="line"/>
			<point x="585" y="315"/>
			<point x="580" y="258"/>
			<point x="564" y="201" type="curve"/>
		</contour>
		<contour>
			<point x="262" y="336" type="curve"/>
			<point x="184" y="361" type="line"/>
			<point x="184" y="300" type="line"/>
			<point x="102" y="288"/>
			<point x="28" y="250"/>
			<point x="28" y="152" type="curve" smooth="yes"/>
			<point x="28" y="52"/>
			<point x="108" y="-16"/>
			<point x="236" y="-16" type="curve" smooth="yes"/>
			<point x="327" y="-16"/>
			<point x="372" y="26"/>
			<point x="399" y="64" type="curve"/>
			<point x="440" y="64" type="line"/>
			<point x="440" y="116" type="line"/>
			<point x="416" y="100"/>
			<point x="380" y="84"/>
			<point x="324" y="84" type="curve" smooth="yes"/>
			<point x="244" y="84"/>
			<point x="200" y="128"/>
			<point x="200" y="198" type="curve"/>
			<point x="200" y="260"/>
			<point x="232" y="306"/>
		</contour>
		<contour>
			<point x="656" y="336" type="line"/>
			<point x="748" y="336" type="line"/>
			<point x="748" y="408" type="line"/>
			<point x="512" y="408" type="line"/>
			<point x="512" y="336" type="line"/>
			<point x="600" y="336" type="line"/>
		</contour>
	</outline>
</glyph>
<glyph name="quotesingle" format="2">
	<unicode hex="0027"/>
	<advance width="256"/>
	<outline>
		<contour>
			<point x="128" y="722" type="curve" smooth="yes"/>
			<point x="73" y="722"/>
			<point x="36" y="690"/>
			<point x="36" y="630" type="curve" smooth="yes"/>
			<point x="36" y="578"/>
			<point x="48" y="534"/>
			<point x="64" y="470" type="curve" smooth="yes"/>
			<point x="88" y="374" type="line"/>
			<point x="168" y="374" type="line"/>
			<point x="192" y="470" type="line" smooth="yes"/>
			<point x="208" y="534"/>
			<point x="220" y="578"/>
			<point x="220" y="630" type="curve" smooth="yes"/>
			<point x="220" y="690"/>
			<point x="184" y="722"/>
		</contour>
	</outline>
</glyph>
<glyph name="parenleft" format="2">
	<unicode hex="0028"/>
	<advance width="384"/>
	<outline>
		<contour>
			<point x="232" y="278" type="curve" smooth="yes"/>
			<point x="232" y="432"/>
			<point x="272" y="544"/>
			<point x="364" y="664" type="curve"/>
			<point x="308" y="716" type="line"/>
			<point x="144" y="600"/>
			<point x="56" y="464"/>
			<point x="56" y="278" type="curve" smooth="yes"/>
			<point x="56" y="92"/>
			<point x="144" y="-44"/>
			<point x="308" y="-160" type="curve"/>
			<point x="364" y="-108" type="line"/>
			<point x="272" y="12"/>
			<point x="232" y="124"/>
		</contour>
	</outline>
</glyph>
<glyph name="asterisk" format="2">
	<unicode hex="002A"/>
	<advance width="472"/>
	<outline>
		<contour>
			<point x="236" y="732" type="curve" smooth="yes"/>
			<point x="192" y="732"/>
			<point x="172" y="704"/>
			<point x="172" y="668" type="curve" smooth="yes"/>
			<point x="172" y="632"/>
			<point x="184" y="608"/>
			<point x="208" y="564" type="curve" smooth="yes"/>
			<point x="235" y="514" type="line"/>
			<point x="192" y="556" type="line" smooth="yes"/>
			<point x="152" y="596"/>
			<point x="128" y="620"/>
			<point x="86" y="620" type="curve" smooth="yes"/>
			<point x="48" y="620"/>
			<point x="20" y="596"/>
			<point x="20" y="564" type="curve" smooth="yes"/>
			<point x="20" y="508"/>
			<point x="72" y="488"/>
			<point x="180" y="504" type="curve" smooth="yes"/>
			<point x="234" y="512" type="line"/>
			<point x="188" y="490" type="line" smooth="yes"/>
			<point x="97" y="447"/>
			<point x="76" y="419"/>
			<point x="76" y="384" type="curve" smooth="yes"/>
			<point x="76" y="348"/>
			<point x="104" y="324"/>
			<point x="140" y="324" type="curve" smooth="yes"/>
			<point x="188" y="324"/>
			<point x="212" y="360"/>
			<point x="228" y="460" type="curve" smooth="yes"/>
			<point x="236" y="510" type="line"/>
			<point x="244" y="460" type="line" smooth="yes"/>
			<point x="260" y="360"/>
			<point x="284" y="324"/>
			<point x="332" y="324" type="curve" smooth="yes"/>
			<point x="368" y="324"/>
			<point x="396" y="348"/>
			<point x="396" y="384" type="curve" smooth="yes"/>
			<point x="396" y="419"/>
			<point x="375" y="447"/>
			<point x="284" y="490" type="curve" smooth="yes"/>
			<point x="238" y="512" type="line"/>
			<point x="292" y="504" type="line" smooth="yes"/>
			<point x="400" y="488"/>
			<point x="452" y="508"/>
			<point x="452" y="564" type="curve" smooth="yes"/>
			<point x="452" y="596"/>
			<point x="424" y="620"/>
			<point x="386" y="620" type="curve" smooth="yes"/>
			<point x="344" y="620"/>
			<point x="320" y="596"/>
			<point x="280" y="556" type="curve" smooth="yes"/>
			<point x="237" y="514" type="line"/>
			<point x="264" y="564" type="line" smooth="yes"/>
			<point x="288" y="608"/>
			<point x="300" y="632"/>
			<point x="300" y="668" type="curve" smooth="yes"/>
			<point x="300" y="704"/>
			<point x="280" y="732"/>
		</contour>
	</outline>
</glyph>
<glyph name="plus" format="2">
	<unicode hex="002B"/>
	<advance width="550"/>
	<outline>
		<contour>
			<point x="223" y="70" type="line"/>
			<point x="327" y="70" type="line"/>
			<point x="327" y="565" type="line"/>
			<point x="223" y="565" type="line"/>
		</contour>
		<contour>
			<point x="520" y="270" type="line"/>
			<point x="520" y="370" type="line"/>
			<point x="30" y="370" type="line"/>
			<point x="30" y="270" type="line"/>
		</contour>
	</outline>
</glyph>
<glyph name="comma" format="2">
	<unicode hex="002C"/>
	<advance width="312"/>
	<outline>
		<contour>
			<point x="260" y="76" type="curve" smooth="yes"/>
			<point x="260" y="108"/>
			<point x="256" y="148"/>
			<point x="244" y="180" type="curve"/>
			<point x="228" y="188"/>
			<point x="196" y="196"/>
			<point x="164" y="196" type="curve" smooth="yes"/>
			<point x="96" y="196"/>
			<point x="52" y="154"/>
			<point x="52" y="94" type="curve" smooth="yes"/>
			<point x="52" y="36"/>
			<point x="92" y="8"/>
			<point x="140" y="-12" type="curve" smooth="yes"/>
			<point x="196" y="-36" type="line"/>
			<point x="156" y="-8" type="line"/>
			<point x="124" y="-72"/>
			<point x="84" y="-112"/>
			<point x="20" y="-148" type="curve"/>
			<point x="56" y="-204" type="line"/>
			<point x="164" y="-152"/>
			<point x="260" y="-88"/>
		</contour>
	</outline>
</glyph>
<glyph name="period" format="2">
	<unicode hex="002E"/>
	<advance width="304"/>
	<outline>
		<contour>
			<point x="152" y="-12" type="curve" smooth="yes"/>
			<point x="212" y="-12"/>
			<point x="256" y="32"/>
			<point x="256" y="92" type="curve" smooth="yes"/>
			<point x="256" y="152"/>
			<point x="212" y="196"/>
			<point x="152" y="196" type="curve" smooth="yes"/>
			<point x="92" y="196"/>
			<point x="48" y="152"/>
			<point x="48" y="92" type="curve" smooth="yes"/>
			<point x="48" y="32"/>
			<point x="92" y="-12"/>
		</contour>
	</outline>
</glyph>
<glyph name="slash" format="2">
	<unicode hex="002F"/>
	<advance width="410"/>
	<outline>
		<contour>
			<point x="12" y="-160" type="line"/>
			<point x="132" y="-160" type="line"/>
			<point x="399" y="710" type="line"/>
			<point x="279" y="710" type="line"/>
		</contour>
	</outline>
</glyph>
<glyph name="zero" format="2">
	<unicode hex="0030"/>
	<advance width="622"/>
	<outline>
		<contour>
			<point x="311" y="-12" type="curve" smooth="yes"/>
			<point x="464" y="-12"/>
			<point x="590" y="90"/>
			<point x="590" y="318" type="curve" smooth="yes"/>
			<point x="590" y="546"/>
			<point x="464" y="640"/>
			<point x="311" y="640" type="curve" smooth="yes"/>
			<point x="158" y="640"/>
			<point x="32" y="538"/>
			<point x="32" y="310" type="curve" smooth="yes"/>
			<point x="32" y="82"/>
			<point x="158" y="-12"/>
		</contour>
		<contour>
			<point x="311" y="60" type="curve" smooth="yes"/>
			<point x="259" y="60"/>
			<point x="244" y="110"/>
			<point x="244" y="314" type="curve" smooth="yes"/>
			<point x="244" y="518"/>
			<point x="259" y="568"/>
			<point x="311" y="568" type="curve" smooth="yes"/>
			<point x="363" y="568"/>
			<point x="378" y="518"/>
			<point x="378" y="314" type="curve" smooth="yes"/>
			<point x="378" y="110"/>
			<point x="363" y="60"/>
		</contour>
	</outline>
</glyph>
<glyph name="one" format="2">
	<unicode hex="0031"/>
	<advance width="600"/>
	<outline>
		<contour>
			<point x="96" y="0" type="line"/>
			<point x="504" y="0" type="line"/>
			<point x="504" y="80" type="line"/>
			<point x="364" y="80" type="line"/>
			<point x="244" y="80" type="line"/>
			<point x="96" y="80" type="line"/>
		</contour>
		<contour>
			<point x="196" y="488" type="line"/>
			<point x="196" y="284" type="line"/>
			<point x="196" y="0" type="line"/>
			<point x="412" y="0" type="line"/>
			<point x="412" y="284" type="line"/>
			<point x="412" y="368" type="line"/>
			<point x="412" y="628" type="line"/>
			<point x="348" y="628" type="line"/>
			<point x="96" y="552" type="line"/>
			<point x="96" y="472" type="line"/>
		</contour>
	</outline>
</glyph>
<glyph name="question" format="2">
	<unicode hex="003F"/>
	<advance width="424"/>
	<outline>
		<contour>
			<point x="160" y="-12" type="curve" smooth="yes"/>
			<point x="220" y="-12"/>
			<point x="264" y="32"/>
			<point x="264" y="92" type="curve" smooth="yes"/>
			<point x="264" y="152"/>
			<point x="220" y="196"/>
			<point x="160" y="196" type="curve" smooth="yes"/>
			<point x="100" y="196"/>
			<point x="56" y="152"/>
			<point x="56" y="92" type="curve" smooth="yes"/>
			<point x="56" y="32"/>
			<point x="100" y="-12"/>
		</contour>
		<contour>
			<point x="384" y="440" type="curve" smooth="yes"/>
			<point x="384" y="540"/>
			<point x="280" y="636"/>
			<point x="116" y="668" type="curve"/>
			<point x="80" y="656"/>
			<point x="48" y="632"/>
			<point x="48" y="588" type="curve" smooth="yes"/>
			<point x="48" y="544"/>
			<point x="80" y="512"/>
			<point x="148" y="512" type="curve" smooth="yes"/>
			<point x="320" y="512" type="line"/>
			<point x="280" y="544" type="line"/>
			<point x="288" y="528"/>
			<point x="296" y="512"/>
			<point x="296" y="492" type="curve" smooth="yes"/>
			<point x="296" y="464"/>
			<point x="280" y="452"/>
			<point x="216" y="436" type="curve" smooth="yes"/>
			<point x="200" y="432" type="line" smooth="yes"/>
			<point x="120" y="412"/>
			<point x="96" y="388"/>
			<point x="96" y="340" type="curve" smooth="yes"/>
			<point x="96" y="316"/>
			<point x="104" y="284"/>
			<point x="112" y="252" type="curve" smooth="yes"/>
			<point x="116" y="236" type="line"/>
			<point x="180" y="236" type="line"/>
			<point x="184" y="252" type="line" smooth="yes"/>
			<point x="189" y="272"/>
			<point x="200" y="285"/>
			<point x="228" y="292" type="curve" smooth="yes"/>
			<point x="236" y="294" type="line" smooth="yes"/>
			<point x="340" y="320"/>
			<point x="384" y="364"/>
		</contour>
	</outline>
</glyph>
<glyph name="at" format="2">
	<unicode hex="0040"/>
	<advance width="956"/>
	<outline>
		<contour>
			<point x="372" y="4" type="curve" smooth="yes"/>
			<point x="440" y="4"/>
			<point x="472" y="40"/>
			<point x="496" y="80" type="curve"/>
			<point x="528" y="80" type="line"/>
			<point x="528" y="160" type="line"/>
			<point x="512" y="140"/>
			<point x="488" y="116"/>
			<point x="456" y="116" type="curve" smooth="yes"/>
			<point x="416" y="116"/>
			<point x="392" y="140"/>
			<point x="392" y="192" type="curve" smooth="yes"/>
			<point x="392" y="276"/>
			<point x="440" y="380"/>
			<point x="504" y="380" type="curve" smooth="yes"/>
			<point x="536" y="380"/>
			<point x="560" y="364"/>
			<point x="572" y="348" type="curve"/>
			<point x="620" y="376" type="line"/>
			<point x="600" y="436"/>
			<point x="560" y="464"/>
			<point x="496" y="464" type="curve" smooth="yes"/>
			<point x="360" y="464"/>
			<point x="236" y="324"/>
			<point x="236" y="160" type="curve" smooth="yes"/>
			<point x="236" y="52"/>
			<point x="296" y="4"/>
		</contour>
		<contour>
			<point x="660" y="4" type="curve" smooth="yes"/>
			<point x="804" y="4"/>
			<point x="908" y="136"/>
			<point x="908" y="312" type="curve" smooth="yes"/>
			<point x="908" y="504"/>
			<point x="768" y="640"/>
			<point x="536" y="640" type="curve" smooth="yes"/>
			<point x="240" y="640"/>
			<point x="48" y="424"/>
			<point x="48" y="170" type="curve" smooth="yes"/>
			<point x="48" y="-50"/>
			<point x="196" y="-180"/>
			<point x="436" y="-180" type="curve" smooth="yes"/>
			<point x="516" y="-180"/>
			<point x="588" y="-164"/>
			<point x="636" y="-140" type="curve"/>
			<point x="616" y="-80" type="line"/>
			<point x="556" y="-96"/>
			<point x="516" y="-104"/>
			<point x="452" y="-104" type="curve" smooth="yes"/>
			<point x="260" y="-104"/>
			<point x="152" y="4"/>
			<point x="152" y="187" type="curve" smooth="yes"/>
			<point x="152" y="376"/>
			<point x="296" y="568"/>
			<point x="528" y="568" type="curve" smooth="yes"/>
			<point x="720" y="568"/>
			<point x="824" y="456"/>
			<point x="824" y="308" type="curve" smooth="yes"/>
			<point x="824" y="168"/>
			<point x="772" y="84"/>
			<point x="708" y="84" type="curve" smooth="yes"/>
			<point x="672" y="84"/>
			<point x="656" y="108"/>
			<point x="668" y="176" type="curve" smooth="yes"/>
			<point x="716" y="456" type="line"/>
			<point x="640" y="456" type="line"/>
			<point x="540" y="376" type="line"/>
			<point x="498" y="116" type="line"/>
			<point x="512" y="116" type="line"/>
			<point x="520" y="32"/>
			<point x="574" y="4"/>
		</contour>
	</outline>
</glyph>
<glyph name="A" format="2">
	<unicode hex="0041"/>
	<advance width="760"/>
	<outline>
		<contour>
			<point x="20" y="0" type="line"/>
			<point x="248" y="0" type="line"/>
			<point x="248" y="80" type="line"/>
			<point x="148" y="80" type="line"/>
			<point x="124" y="80" type="line"/>
			<point x="20" y="80" type="line"/>
		</contour>
		<contour>
			<point x="56" y="0" type="line"/>
			<point x="148" y="0" type="line"/>
			<point x="314" y="480" type="line"/>
			<point x="478" y="0" type="line"/>
			<point x="704" y="0" type="line"/>
			<point x="456" y="652" type="line"/>
			<point x="296" y="652" type="line"/>
		</contour>
		<contour>
			<point x="188" y="172" type="line"/>
			<point x="500" y="172" type="line"/>
			<point x="500" y="244" type="line"/>
			<point x="188" y="244" type="line"/>
		</contour>
		<contour>
			<point x="376" y="0" type="line"/>
			<point x="740" y="0" type="line"/>
			<point x="740" y="80" type="line"/>
			<point x="620" y="80" type="line"/>
			<point x="496" y="80" type="line"/>
			<point x="376" y="80" type="line"/>
		</contour>
	</outline>
	<anchor name="aboveUC" x="374" y="682"/>
	<anchor name="belowLC" x="330" y="-22"/>
	<anchor name="ogonek" x="620" y="0"/>
</glyph>
<glyph name="B" format="2">
	<unicode hex="0042"/>
	<advance width="726"/>
	<outline>
		<contour>
			<point x="31" y="0" type="line"/>
			<point x="217" y="0" type="line"/>
			<point x="217" y="74" type="line"/>
			<point x="197" y="74" type="line"/>
			<point x="31" y="59" type="line"/>
		</contour>
		<contour>
			<point x="108" y="208"/>
			<point x="108" y="103"/>
			<point x="105" y="0" type="curve"/>
			<point x="324" y="0" type="line"/>
			<point x="321" y="105"/>
			<point x="321" y="210"/>
			<point x="321" y="316" type="curve" smooth="yes"/>
			<point x="321" y="336" type="line" smooth="yes"/>
			<point x="321" y="443"/>
			<point x="321" y="549"/>
			<point x="324" y="652" type="curve"/>
			<point x="105" y="652" type="line"/>
			<point x="108" y="547"/>
			<point x="108" y="441"/>
			<point x="108" y="336" type="curve" smooth="yes"/>
			<point x="108" y="315" type="line" smooth="yes"/>
		</contour>
		<contour>
			<point x="217" y="0" type="line"/>
			<point x="349" y="0" type="line" smooth="yes"/>
			<point x="648" y="0"/>
			<point x="710" y="104"/>
			<point x="710" y="185" type="curve" smooth="yes"/>
			<point x="710" y="286"/>
			<point x="630" y="346"/>
			<point x="427" y="356" type="curve"/>
			<point x="427" y="347" type="line"/>
			<point x="617" y="367"/>
			<point x="664" y="428"/>
			<point x="664" y="501" type="curve" smooth="yes"/>
			<point x="664" y="586"/>
			<point x="602" y="652"/>
			<point x="402" y="652" type="curve" smooth="yes"/>
			<point x="217" y="652" type="line"/>
			<point x="217" y="590" type="line"/>
			<point x="346" y="590" type="line" smooth="yes"/>
			<point x="422" y="590"/>
			<point x="455" y="553"/>
			<point x="455" y="486" type="curve" smooth="yes"/>
			<point x="455" y="412"/>
			<point x="418" y="370"/>
			<point x="341" y="370" type="curve" smooth="yes"/>
			<point x="217" y="370" type="line"/>
			<point x="217" y="314" type="line"/>
			<point x="349" y="314" type="line" smooth="yes"/>
			<point x="441" y="314"/>
			<point x="487" y="277"/>
			<point x="487" y="187" type="curve" smooth="yes"/>
			<point x="487" y="104"/>
			<point x="432" y="62"/>
			<point x="346" y="62" type="curve" smooth="yes"/>
			<point x="217" y="62" type="line"/>
		</contour>
		<contour>
			<point x="31" y="593" type="line"/>
			<point x="197" y="578" type="line"/>
			<point x="217" y="578" type="line"/>
			<point x="217" y="652" type="line"/>
			<point x="31" y="652" type="line"/>
		</contour>
	</outline>
	<anchor name="aboveUC" x="337" y="682"/>
	<anchor name="belowLC" x="382" y="-22"/>
</glyph>
<glyph name="C" format="2">
	<unicode hex="0043"/>
	<advance width="680"/>
	<outline>
		<contour>
			<point x="31" y="81"/>
			<point x="209" y="-20"/>
			<point x="417" y="-20" type="curve" smooth="yes"/>
			<point x="518" y="-20"/>
			<point x="596" y="4"/>
			<point x="651" y="32" type="curve"/>
			<point x="656" y="189" type="line"/>
			<point x="565" y="189" type="line"/>
			<point x="525" y="29" type="line"/>
			<point x="601" y="44" type="line"/>
			<point x="601" y="94" type="line"/>
			<point x="553" y="62"/>
			<point x="506" y="40"/>
			<point x="454" y="40" type="curve" smooth="yes"/>
			<point x="352" y="40"/>
			<point x="256" y="118"/>
			<point x="256" y="325" type="curve" smooth="yes"/>
			<point x="256" y="533"/>
			<point x="353" y="613"/>
			<point x="459" y="613" type="curve" smooth="yes"/>
			<point x="507" y="613"/>
			<point x="544" y="595"/>
			<point x="593" y="556" type="curve"/>
			<point x="593" y="609" type="line"/>
			<point x="517" y="625" type="line"/>
			<point x="559" y="463" type="line"/>
			<point x="649" y="463" type="line"/>
			<point x="645" y="622" type="line"/>
			<point x="583" y="652"/>
			<point x="520" y="672"/>
			<point x="428" y="672" type="curve" smooth="yes"/>
			<point x="224" y="672"/>
			<point x="31" y="577"/>
			<point x="31" y="326" type="curve" smooth="yes"/>
		</contour>
	</outline>
	<anchor name="aboveUC" x="399" y="682"/>
	<anchor name="belowLC" x="415" y="-22"/>
	<anchor name="baseLC" x="416" y="0"/>
</glyph>
<glyph name="D" format="2">
	<unicode hex="0044"/>
	<advance width="792"/>
	<outline>
		<contour>
			<point x="20" y="0" type="line"/>
			<point x="160" y="0" type="line"/>
			<point x="160" y="80" type="line"/>
			<point x="128" y="80" type="line"/>
			<point x="20" y="80" type="line"/>
		</contour>
		<contour>
			<point x="96" y="0" type="line"/>
			<point x="312" y="0" type="line"/>
			<point x="312" y="284" type="line"/>
			<point x="312" y="368" type="line"/>
			<point x="312" y="652" type="line"/>
			<point x="96" y="652" type="line"/>
			<point x="96" y="368" type="line"/>
			<point x="96" y="284" type="line"/>
		</contour>
		<contour>
			<point x="248" y="0" type="line"/>
			<point x="360" y="0" type="line" smooth="yes"/>
			<point x="612" y="0"/>
			<point x="756" y="116"/>
			<point x="756" y="332" type="curve" smooth="yes"/>
			<point x="756" y="548"/>
			<point x="612" y="652"/>
			<point x="368" y="652" type="curve" smooth="yes"/>
			<point x="248" y="652" type="line"/>
			<point x="248" y="576" type="line"/>
			<point x="352" y="576" type="line" smooth="yes"/>
			<point x="476" y="576"/>
			<point x="532" y="504"/>
			<point x="532" y="328" type="curve" smooth="yes"/>
			<point x="532" y="152"/>
			<point x="476" y="76"/>
			<point x="352" y="76" type="curve" smooth="yes"/>
			<point x="248" y="76" type="line"/>
		</contour>
		<contour>
			<point x="20" y="572" type="line"/>
			<point x="128" y="572" type="line"/>
			<point x="160" y="572" type="line"/>
			<point x="160" y="652" type="line"/>
			<point x="20" y="652" type="line"/>
		</contour>
	</outline>
	<anchor name="aboveUC" x="350" y="682"/>
	<anchor name="belowLC" x="352" y="-22"/>
</glyph>
<glyph name="E" format="2">
	<unicode hex="0045"/>
	<advance width="648"/>
	<outline>
		<contour>
			<point x="20" y="0" type="line"/>
			<point x="144" y="0" type="line"/>
			<point x="144" y="80" type="line"/>
			<point x="128" y="80" type="line"/>
			<point x="20" y="80" type="line"/>
		</contour>
		<contour>
			<point x="96" y="0" type="line"/>
			<point x="312" y="0" type="line"/>
			<point x="312" y="284" type="line"/>
			<point x="312" y="368" type="line"/>
			<point x="312" y="652" type="line"/>
			<point x="96" y="652" type="line"/>
			<point x="96" y="368" type="line"/>
			<point x="96" y="284" type="line"/>
		</contour>
		<contour>
			<point x="232" y="0" type="line"/>
			<point x="600" y="0" type="line"/>
			<point x="608" y="180" type="line"/>
			<point x="524" y="180" type="line"/>
			<point x="464" y="28" type="line"/>
			<point x="524" y="76" type="line"/>
			<point x="232" y="76" type="line"/>
		</contour>
		<contour>
			<point x="200" y="292" type="line"/>
			<point x="440" y="292" type="line"/>
			<point x="440" y="372" type="line"/>
			<point x="200" y="372" type="line"/>
		</contour>
		<contour>
			<point x="412" y="228" type="line"/>
			<point x="492" y="228" type="line"/>
			<point x="492" y="436" type="line"/>
			<point x="412" y="436" type="line"/>
			<point x="388" y="348" type="line"/>
			<point x="388" y="316" type="line"/>
		</contour>
		<contour>
			<point x="20" y="572" type="line"/>
			<point x="128" y="572" type="line"/>
			<point x="144" y="572" type="line"/>
			<point x="144" y="652" type="line"/>
			<point x="20" y="652" type="line"/>
		</contour>
		<contour>
			<point x="504" y="480" type="line"/>
			<point x="588" y="480" type="line"/>
			<point x="580" y="652" type="line"/>
			<point x="232" y="652" type="line"/>
			<point x="232" y="576" type="line"/>
			<point x="512" y="576" type="line"/>
			<point x="444" y="624" type="line"/>
		</contour>
	</outline>
	<anchor name="aboveUC" x="341" y="682"/>
	<anchor name="belowLC" x="356" y="-22"/>
	<anchor name="ogonek" x="497" y="0"/>
</glyph>
<glyph name="F" format="2">
	<unicode hex="0046"/>
	<advance width="616"/>
	<outline>
		<contour>
			<point x="20" y="0" type="line"/>
			<point x="404" y="0" type="line"/>
			<point x="404" y="80" type="line"/>
			<point x="280" y="80" type="line"/>
			<point x="128" y="80" type="line"/>
			<point x="20" y="80" type="line"/>
		</contour>
		<contour>
			<point x="96" y="0" type="line"/>
			<point x="312" y="0" type="line"/>
			<point x="312" y="284" type="line"/>
			<point x="312" y="368" type="line"/>
			<point x="312" y="652" type="line"/>
			<point x="96" y="652" type="line"/>
			<point x="96" y="368" type="line"/>
			<point x="96" y="284" type="line"/>
		</contour>
		<contour>
			<point x="200" y="288" type="line"/>
			<point x="440" y="288" type="line"/>
			<point x="440" y="368" type="line"/>
			<point x="200" y="368" type="line"/>
		</contour>
		<contour>
			<point x="412" y="224" type="line"/>
			<point x="492" y="224" type="line"/>
			<point x="492" y="432" type="line"/>
			<point x="412" y="432" type="line"/>
			<point x="388" y="344" type="line"/>
			<point x="388" y="312" type="line"/>
		</contour>
		<contour>
			<point x="20" y="572" type="line"/>
			<point x="128" y="572" type="line"/>
			<point x="144" y="572" type="line"/>
			<point x="144" y="652" type="line"/>
			<point x="20" y="652" type="line"/>
		</contour>
		<contour>
			<point x="504" y="480" type="line"/>
			<point x="588" y="480" type="line"/>
			<point x="580" y="652" type="line"/>
			<point x="232" y="652" type="line"/>
			<point x="232" y="576" type="line"/>
			<point x="512" y="576" type="line"/>
			<point x="444" y="624" type="line"/>
		</contour>
	</outline>
	<anchor name="aboveUC" x="346" y="682"/>
	<anchor name="belowLC" x="230" y="-22"/>
</glyph>
<glyph name="G" format="2">
	<unicode hex="0047"/>
	<advance width="739"/>
	<outline>
		<contour>
			<point x="31" y="103"/>
			<point x="187" y="-20"/>
			<point x="416" y="-20" type="curve" smooth="yes"/>
			<point x="516" y="-20"/>
			<point x="591" y="-3"/>
			<point x="668" y="38" type="curve"/>
			<point x="668" y="79" type="line" smooth="yes"/>
			<point x="668" y="164"/>
			<point x="669" y="244"/>
			<point x="671" y="326" type="curve"/>
			<point x="460" y="326" type="line"/>
			<point x="462" y="242"/>
			<point x="463" y="167"/>
			<point x="463" y="84" type="curve" smooth="yes"/>
			<point x="463" y="1" type="line"/>
			<point x="560" y="72" type="line"/>
			<point x="518" y="50"/>
			<point x="493" y="39"/>
			<point x="453" y="39" type="curve" smooth="yes"/>
			<point x="351" y="39"/>
			<point x="256" y="126"/>
			<point x="256" y="328" type="curve" smooth="yes"/>
			<point x="256" y="530"/>
			<point x="353" y="613"/>
			<point x="459" y="613" type="curve" smooth="yes"/>
			<point x="498" y="613"/>
			<point x="539" y="601"/>
			<point x="591" y="567" type="curve"/>
			<point x="591" y="618" type="line"/>
			<point x="512" y="630" type="line"/>
			<point x="554" y="467" type="line"/>
			<point x="647" y="467" type="line"/>
			<point x="642" y="627" type="line"/>
			<point x="578" y="657"/>
			<point x="497" y="672"/>
			<point x="432" y="672" type="curve" smooth="yes"/>
			<point x="173" y="672"/>
			<point x="31" y="542"/>
			<point x="31" y="328" type="curve" smooth="yes"/>
		</contour>
		<contour>
			<point x="369" y="267" type="line"/>
			<point x="499" y="249" type="line"/>
			<point x="591" y="249" type="line"/>
			<point x="723" y="267" type="line"/>
			<point x="723" y="326" type="line"/>
			<point x="369" y="326" type="line"/>
		</contour>
	</outline>
	<anchor name="aboveUC" x="410" y="682"/>
	<anchor name="belowLC" x="438" y="-22"/>
</glyph>
<glyph name="H" format="2">
	<unicode hex="0048"/>
	<advance width="824"/>
	<outline>
		<contour>
			<point x="20" y="0" type="line"/>
			<point x="380" y="0" type="line"/>
			<point x="380" y="80" type="line"/>
			<point x="264" y="80" type="line"/>
			<point x="144" y="80" type="line"/>
			<point x="20" y="80" type="line"/>
		</contour>
		<contour>
			<point x="96" y="0" type="line"/>
			<point x="312" y="0" type="line"/>
			<point x="312" y="284" type="line"/>
			<point x="312" y="368" type="line"/>
			<point x="312" y="652" type="line"/>
			<point x="96" y="652" type="line"/>
			<point x="96" y="368" type="line"/>
			<point x="96" y="284" type="line"/>
		</contour>
		<contour>
			<point x="216" y="288" type="line"/>
			<point x="608" y="288" type="line"/>
			<point x="608" y="368" type="line"/>
			<point x="216" y="368" type="line"/>
		</contour>
		<contour>
			<point x="444" y="0" type="line"/>
			<point x="804" y="0" type="line"/>
			<point x="804" y="80" type="line"/>
			<point x="680" y="80" type="line"/>
			<point x="560" y="80" type="line"/>
			<point x="444" y="80" type="line"/>
		</contour>
		<contour>
			<point x="512" y="0" type="line"/>
			<point x="728" y="0" type="line"/>
			<point x="728" y="284" type="line"/>
			<point x="728" y="368" type="line"/>
			<point x="728" y="652" type="line"/>
			<point x="512" y="652" type="line"/>
			<point x="512" y="368" type="line"/>
			<point x="512" y="284" type="line"/>
		</contour>
		<contour>
			<point x="20" y="572" type="line"/>
			<point x="144" y="572" type="line"/>
			<point x="264" y="572" type="line"/>
			<point x="380" y="572" type="line"/>
			<point x="380" y="652" type="line"/>
			<point x="20" y="652" type="line"/>
		</contour>
		<contour>
			<point x="444" y="572" type="line"/>
			<point x="560" y="572" type="line"/>
			<point x="680" y="572" type="line"/>
			<point x="804" y="572" type="line"/>
			<point x="804" y="652" type="line"/>
			<point x="444" y="652" type="line"/>
		</contour>
	</outline>
	<anchor name="aboveUC" x="416" y="682"/>
	<anchor name="belowLC" x="416" y="-22"/>
</glyph>
<glyph name="I" format="2">
	<unicode hex="0049"/>
	<advance width="435"/>
	<outline>
		<contour>
			<point x="31" y="0" type="line"/>
			<point x="404" y="0" type="line"/>
			<point x="404" y="59" type="line"/>
			<point x="233" y="74" type="line"/>
			<point x="197" y="74" type="line"/>
			<point x="31" y="59" type="line"/>
		</contour>
		<contour>
			<point x="108" y="205"/>
			<point x="108" y="101"/>
			<point x="105" y="0" type="curve"/>
			<point x="329" y="0" type="line"/>
			<point x="326" y="103"/>
			<point x="326" y="207"/>
			<point x="326" y="311" type="curve" smooth="yes"/>
			<point x="326" y="342" type="line" smooth="yes"/>
			<point x="326" y="447"/>
			<point x="326" y="551"/>
			<point x="329" y="652" type="curve"/>
			<point x="105" y="652" type="line"/>
			<point x="108" y="549"/>
			<point x="108" y="445"/>
			<point x="108" y="342" type="curve" smooth="yes"/>
			<point x="108" y="310" type="line" smooth="yes"/>
		</contour>
		<contour>
			<point x="31" y="593" type="line"/>
			<point x="197" y="578" type="line"/>
			<point x="233" y="578" type="line"/>
			<point x="404" y="593" type="line"/>
			<point x="404" y="652" type="line"/>
			<point x="31" y="652" type="line"/>
		</contour>
	</outline>
	<anchor name="aboveUC" x="217" y="682"/>
	<anchor name="belowLC" x="217" y="-22"/>
	<anchor name="ogonek" x="274" y="0"/>
</glyph>
<glyph name="J" format="2">
	<unicode hex="004A"/>
	<advance width="416"/>
	<outline>
		<contour>
			<point x="40" y="-208" type="curve" smooth="yes"/>
			<point x="128" y="-208"/>
			<point x="178" y="-178"/>
			<point x="224" y="-136" type="curve" smooth="yes"/>
			<point x="268" y="-96"/>
			<point x="316" y="-24"/>
			<point x="316" y="152" type="curve" smooth="yes"/>
			<point x="316" y="356" type="line" smooth="yes"/>
			<point x="316" y="455"/>
			<point x="316" y="553"/>
			<point x="316" y="652" type="curve"/>
			<point x="100" y="652" type="line"/>
			<point x="100" y="467"/>
			<point x="100" y="281"/>
			<point x="100" y="96" type="curve" smooth="yes"/>
			<point x="100" y="-40"/>
			<point x="120" y="-88"/>
			<point x="120" y="-152" type="curve"/>
			<point x="68" y="-152" type="line"/>
			<point x="68" y="-168" type="line"/>
			<point x="92" y="-168" type="line"/>
			<point x="84" y="-136" type="line" smooth="yes"/>
			<point x="72" y="-88"/>
			<point x="48" y="-48"/>
			<point x="-16" y="-48" type="curve" smooth="yes"/>
			<point x="-68" y="-48"/>
			<point x="-92" y="-88"/>
			<point x="-100" y="-128" type="curve"/>
			<point x="-92" y="-156"/>
			<point x="-60" y="-208"/>
		</contour>
		<contour>
			<point x="16" y="572" type="line"/>
			<point x="148" y="572" type="line"/>
			<point x="268" y="572" type="line"/>
			<point x="392" y="572" type="line"/>
			<point x="392" y="652" type="line"/>
			<point x="16" y="652" type="line"/>
		</contour>
	</outline>
	<anchor name="aboveUC" x="208" y="684"/>
	<anchor name="belowLC" x="120" y="-192"/>
</glyph>
<glyph name="K" format="2">
	<unicode hex="004B"/>
	<advance width="779"/>
	<outline>
		<contour>
			<point x="31" y="0" type="line"/>
			<point x="376" y="0" type="line"/>
			<point x="376" y="59" type="line"/>
			<point x="233" y="74" type="line"/>
			<point x="197" y="74" type="line"/>
			<point x="31" y="59" type="line"/>
		</contour>
		<contour>
			<point x="108" y="205"/>
			<point x="108" y="101"/>
			<point x="105" y="0" type="curve"/>
			<point x="319" y="0" type="line"/>
			<point x="316" y="103"/>
			<point x="316" y="207"/>
			<point x="316" y="311" type="curve" smooth="yes"/>
			<point x="316" y="342" type="line" smooth="yes"/>
			<point x="316" y="447"/>
			<point x="316" y="551"/>
			<point x="319" y="652" type="curve"/>
			<point x="105" y="652" type="line"/>
			<point x="108" y="549"/>
			<point x="108" y="445"/>
			<point x="108" y="342" type="curve" smooth="yes"/>
			<point x="108" y="310" type="line" smooth="yes"/>
		</contour>
		<contour>
			<point x="218" y="140" type="line"/>
			<point x="695" y="652" type="line"/>
			<point x="607" y="652" type="line"/>
			<point x="218" y="212" type="line"/>
		</contour>
		<contour>
			<point x="441" y="0" type="line"/>
			<point x="773" y="0" type="line"/>
			<point x="773" y="59" type="line"/>
			<point x="624" y="74" type="line"/>
			<point x="595" y="74" type="line"/>
			<point x="441" y="59" type="line"/>
		</contour>
		<contour>
			<point x="512" y="0" type="line"/>
			<point x="750" y="0" type="line"/>
			<point x="482" y="468" type="line"/>
			<point x="345" y="316" type="line"/>
		</contour>
		<contour>
			<point x="31" y="593" type="line"/>
			<point x="197" y="578" type="line"/>
			<point x="233" y="578" type="line"/>
			<point x="393" y="593" type="line"/>
			<point x="393" y="652" type="line"/>
			<point x="31" y="652" type="line"/>
		</contour>
		<contour>
			<point x="476" y="593" type="line"/>
			<point x="565" y="578" type="line"/>
			<point x="602" y="578" type="line"/>
			<point x="732" y="593" type="line"/>
			<point x="732" y="652" type="line"/>
			<point x="476" y="652" type="line"/>
		</contour>
	</outline>
	<anchor name="aboveUC" x="405" y="682"/>
	<anchor name="belowLC" x="414" y="-22"/>
</glyph>
<glyph name="L" format="2">
	<unicode hex="004C"/>
	<advance width="652"/>
	<outline>
		<contour>
			<point x="28" y="0" type="line"/>
			<point x="152" y="0" type="line"/>
			<point x="152" y="80" type="line"/>
			<point x="136" y="80" type="line"/>
			<point x="28" y="80" type="line"/>
		</contour>
		<contour>
			<point x="104" y="0" type="line"/>
			<point x="320" y="0" type="line"/>
			<point x="320" y="284" type="line"/>
			<point x="320" y="368" type="line"/>
			<point x="320" y="652" type="line"/>
			<point x="104" y="652" type="line"/>
			<point x="104" y="368" type="line"/>
			<point x="104" y="284" type="line"/>
		</contour>
		<contour>
			<point x="240" y="0" type="line"/>
			<point x="604" y="0" type="line"/>
			<point x="612" y="196" type="line"/>
			<point x="528" y="196" type="line"/>
			<point x="468" y="28" type="line"/>
			<point x="528" y="76" type="line"/>
			<point x="240" y="76" type="line"/>
		</contour>
		<contour>
			<point x="28" y="572" type="line"/>
			<point x="136" y="572" type="line"/>
			<point x="288" y="572" type="line"/>
			<point x="412" y="572" type="line"/>
			<point x="412" y="652" type="line"/>
			<point x="28" y="652" type="line"/>
		</contour>
	</outline>
	<anchor name="aboveUC" x="229" y="682"/>
	<anchor name="belowLC" x="345" y="-22"/>
</glyph>
<glyph name="M" format="2">
	<unicode hex="004D"/>
	<advance width="932"/>
	<outline>
		<contour>
			<point x="20" y="0" type="line"/>
			<point x="264" y="0" type="line"/>
			<point x="264" y="80" type="line"/>
			<point x="160" y="80" type="line"/>
			<point x="112" y="80" type="line"/>
			<point x="20" y="80" type="line"/>
		</contour>
		<contour>
			<point x="20" y="572" type="line"/>
			<point x="112" y="572" type="line"/>
			<point x="128" y="572" type="line"/>
			<point x="128" y="652" type="line"/>
			<point x="20" y="652" type="line"/>
		</contour>
		<contour>
			<point x="96" y="0" type="line"/>
			<point x="180" y="0" type="line"/>
			<point x="180" y="280" type="line"/>
			<point x="164" y="652" type="line"/>
			<point x="96" y="652" type="line"/>
		</contour>
		<contour>
			<point x="348" y="0" type="line"/>
			<point x="448" y="0" type="line"/>
			<point x="675" y="652" type="line"/>
			<point x="588" y="652" type="line"/>
			<point x="436" y="200" type="line"/>
			<point x="476" y="200" type="line"/>
			<point x="336" y="652" type="line"/>
			<point x="128" y="652" type="line"/>
		</contour>
		<contour>
			<point x="544" y="0" type="line"/>
			<point x="912" y="0" type="line"/>
			<point x="912" y="80" type="line"/>
			<point x="804" y="80" type="line"/>
			<point x="644" y="80" type="line"/>
			<point x="544" y="80" type="line"/>
		</contour>
		<contour>
			<point x="628" y="0" type="line"/>
			<point x="836" y="0" type="line"/>
			<point x="836" y="284" type="line"/>
			<point x="836" y="368" type="line"/>
			<point x="836" y="652" type="line"/>
			<point x="636" y="652" type="line"/>
			<point x="628" y="280" type="line"/>
		</contour>
		<contour>
			<point x="788" y="572" type="line"/>
			<point x="804" y="572" type="line"/>
			<point x="912" y="572" type="line"/>
			<point x="912" y="652" type="line"/>
			<point x="788" y="652" type="line"/>
		</contour>
	</outline>
	<anchor name="aboveUC" x="485" y="682"/>
	<anchor name="belowLC" x="431" y="-22"/>
</glyph>
<glyph name="N" format="2">
	<unicode hex="004E"/>
	<advance width="798"/>
	<outline>
		<contour>
			<point x="26" y="0" type="line"/>
			<point x="327" y="0" type="line"/>
			<point x="327" y="59" type="line"/>
			<point x="179" y="74" type="line"/>
			<point x="144" y="74" type="line"/>
			<point x="26" y="59" type="line"/>
		</contour>
		<contour>
			<point x="120" y="0" type="line"/>
			<point x="197" y="0" type="line"/>
			<point x="197" y="624" type="line"/>
			<point x="120" y="624" type="line"/>
		</contour>
		<contour>
			<point x="471" y="593" type="line"/>
			<point x="625" y="578" type="line"/>
			<point x="659" y="578" type="line"/>
			<point x="771" y="593" type="line"/>
			<point x="771" y="652" type="line"/>
			<point x="471" y="652" type="line"/>
		</contour>
		<contour>
			<point x="562" y="0" type="line"/>
			<point x="678" y="0" type="line"/>
			<point x="678" y="652" type="line"/>
			<point x="601" y="652" type="line"/>
			<point x="601" y="286" type="line"/>
			<point x="307" y="652" type="line"/>
			<point x="26" y="652" type="line"/>
			<point x="26" y="592" type="line"/>
			<point x="101" y="587" type="line"/>
		</contour>
	</outline>
	<anchor name="aboveUC" x="394" y="682"/>
	<anchor name="belowLC" x="419" y="-22"/>
</glyph>
<glyph name="O" format="2">
	<unicode hex="004F"/>
	<advance width="784"/>
	<outline>
		<contour>
			<point x="392" y="-16" type="curve" smooth="yes"/>
			<point x="572" y="-16"/>
			<point x="748" y="92"/>
			<point x="748" y="328" type="curve" smooth="yes"/>
			<point x="748" y="564"/>
			<point x="572" y="668"/>
			<point x="392" y="668" type="curve" smooth="yes"/>
			<point x="212" y="668"/>
			<point x="36" y="560"/>
			<point x="36" y="324" type="curve" smooth="yes"/>
			<point x="36" y="88"/>
			<point x="212" y="-16"/>
		</contour>
		<contour>
			<point x="392" y="64" type="curve" smooth="yes"/>
			<point x="300" y="64"/>
			<point x="260" y="168"/>
			<point x="260" y="328" type="curve" smooth="yes"/>
			<point x="260" y="488"/>
			<point x="300" y="588"/>
			<point x="392" y="588" type="curve" smooth="yes"/>
			<point x="484" y="588"/>
			<point x="524" y="484"/>
			<point x="524" y="324" type="curve" smooth="yes"/>
			<point x="524" y="164"/>
			<point x="484" y="64"/>
		</contour>
	</outline>
	<anchor name="aboveUC" x="385" y="682"/>
	<anchor name="belowLC" x="385" y="-22"/>
	<anchor name="ogonek" x="484" y="0"/>
	<anchor name="hornLC" x="541" y="669"/>
</glyph>
<glyph name="P" format="2">
	<unicode hex="0050"/>
	<advance width="700"/>
	<outline>
		<contour>
			<point x="20" y="0" type="line"/>
			<point x="404" y="0" type="line"/>
			<point x="404" y="80" type="line"/>
			<point x="264" y="80" type="line"/>
			<point x="144" y="80" type="line"/>
			<point x="20" y="80" type="line"/>
		</contour>
		<contour>
			<point x="96" y="284" type="line"/>
			<point x="96" y="0" type="line"/>
			<point x="312" y="0" type="line"/>
			<point x="312" y="284" type="line"/>
			<point x="312" y="368" type="line"/>
			<point x="312" y="652" type="line"/>
			<point x="96" y="652" type="line"/>
			<point x="96" y="368" type="line"/>
		</contour>
		<contour>
			<point x="248" y="240" type="line"/>
			<point x="344" y="240" type="line" smooth="yes"/>
			<point x="572" y="240"/>
			<point x="672" y="320"/>
			<point x="672" y="452" type="curve" smooth="yes"/>
			<point x="672" y="584"/>
			<point x="572" y="652"/>
			<point x="344" y="652" type="curve" smooth="yes"/>
			<point x="264" y="652" type="line"/>
			<point x="264" y="576" type="line"/>
			<point x="336" y="576" type="line" smooth="yes"/>
			<point x="420" y="576"/>
			<point x="452" y="536"/>
			<point x="452" y="448" type="curve" smooth="yes"/>
			<point x="452" y="360"/>
			<point x="420" y="312"/>
			<point x="328" y="312" type="curve" smooth="yes"/>
			<point x="248" y="312" type="line"/>
		</contour>
		<contour>
			<point x="20" y="572" type="line"/>
			<point x="128" y="572" type="line"/>
			<point x="144" y="572" type="line"/>
			<point x="144" y="652" type="line"/>
			<point x="20" y="652" type="line"/>
		</contour>
	</outline>
	<anchor name="aboveUC" x="330" y="682"/>
	<anchor name="belowLC" x="226" y="-22"/>
</glyph>
<glyph name="Q" format="2">
	<unicode hex="0051"/>
	<advance width="770"/>
	<outline>
		<contour>
			<point x="539" y="-202" type="curve" smooth="yes"/>
			<point x="604" y="-202"/>
			<point x="661" y="-192"/>
			<point x="697" y="-170" type="curve"/>
			<point x="669" y="-106" type="line"/>
			<point x="645" y="-116"/>
			<point x="614" y="-118"/>
			<point x="592" y="-118" type="curve" smooth="yes"/>
			<point x="514" y="-118"/>
			<point x="468" y="-59"/>
			<point x="485" y="32" type="curve"/>
			<point x="278" y="32" type="line"/>
			<point x="278" y="14" type="line" smooth="yes"/>
			<point x="278" y="-116"/>
			<point x="372" y="-202"/>
		</contour>
		<component base="O" xScale="1.1"/>
	</outline>
	<anchor name="aboveUC" x="385" y="682"/>
</glyph>
<glyph name="R" format="2">
	<unicode hex="0052"/>
	<advance width="776"/>
	<outline>
		<contour>
			<point x="20" y="0" type="line"/>
			<point x="380" y="0" type="line"/>
			<point x="380" y="80" type="line"/>
			<point x="264" y="80" type="line"/>
			<point x="144" y="80" type="line"/>
			<point x="20" y="80" type="line"/>
		</contour>
		<contour>
			<point x="96" y="0" type="line"/>
			<point x="312" y="0" type="line"/>
			<point x="312" y="284" type="line"/>
			<point x="312" y="368" type="line"/>
			<point x="312" y="652" type="line"/>
			<point x="96" y="652" type="line"/>
			<point x="96" y="368" type="line"/>
			<point x="96" y="284" type="line"/>
		</contour>
		<contour>
			<point x="636" y="-12" type="curve" smooth="yes"/>
			<point x="692" y="-12"/>
			<point x="736" y="-4"/>
			<point x="760" y="0" type="curve"/>
			<point x="760" y="76" type="line"/>
			<point x="576" y="92" type="line"/>
			<point x="688" y="20" type="line"/>
			<point x="660" y="184" type="line" smooth="yes"/>
			<point x="640" y="304"/>
			<point x="584" y="336"/>
			<point x="404" y="340" type="curve"/>
			<point x="404" y="324" type="line"/>
			<point x="584" y="328"/>
			<point x="684" y="384"/>
			<point x="684" y="484" type="curve" smooth="yes"/>
			<point x="684" y="592"/>
			<point x="576" y="652"/>
			<point x="368" y="652" type="curve" smooth="yes"/>
			<point x="264" y="652" type="line"/>
			<point x="264" y="576" type="line"/>
			<point x="352" y="576" type="line" smooth="yes"/>
			<point x="424" y="576"/>
			<point x="464" y="544"/>
			<point x="464" y="468" type="curve" smooth="yes"/>
			<point x="464" y="392"/>
			<point x="424" y="364"/>
			<point x="352" y="364" type="curve" smooth="yes"/>
			<point x="208" y="364" type="line"/>
			<point x="208" y="292" type="line"/>
			<point x="360" y="292" type="line" smooth="yes"/>
			<point x="412" y="292"/>
			<point x="436" y="276"/>
			<point x="444" y="216" type="curve" smooth="yes"/>
			<point x="456" y="120" type="line" smooth="yes"/>
			<point x="468" y="28"/>
			<point x="524" y="-12"/>
		</contour>
		<contour>
			<point x="20" y="572" type="line"/>
			<point x="128" y="572" type="line"/>
			<point x="144" y="572" type="line"/>
			<point x="144" y="652" type="line"/>
			<point x="20" y="652" type="line"/>
		</contour>
	</outline>
	<anchor name="aboveUC" x="351" y="682"/>
	<anchor name="belowLC" x="426" y="-22"/>
</glyph>
<glyph name="S" format="2">
	<unicode hex="0053"/>
	<advance width="616"/>
	<outline>
		<contour>
			<point x="268" y="-16" type="curve" smooth="yes"/>
			<point x="448" y="-16"/>
			<point x="576" y="60"/>
			<point x="576" y="200" type="curve" smooth="yes"/>
			<point x="576" y="324"/>
			<point x="484" y="376"/>
			<point x="352" y="426" type="curve" smooth="yes"/>
			<point x="336" y="432" type="line" smooth="yes"/>
			<point x="256" y="462"/>
			<point x="228" y="484"/>
			<point x="228" y="526" type="curve" smooth="yes"/>
			<point x="228" y="568"/>
			<point x="260" y="596"/>
			<point x="328" y="596" type="curve" smooth="yes"/>
			<point x="396" y="596"/>
			<point x="436" y="580"/>
			<point x="476" y="560" type="curve"/>
			<point x="476" y="616" type="line"/>
			<point x="396" y="616" type="line"/>
			<point x="428" y="472" type="line"/>
			<point x="512" y="472" type="line"/>
			<point x="524" y="632" type="line"/>
			<point x="484" y="648"/>
			<point x="412" y="668"/>
			<point x="312" y="668" type="curve" smooth="yes"/>
			<point x="164" y="668"/>
			<point x="36" y="600"/>
			<point x="36" y="462" type="curve" smooth="yes"/>
			<point x="36" y="340"/>
			<point x="128" y="288"/>
			<point x="260" y="238" type="curve" smooth="yes"/>
			<point x="276" y="232" type="line" smooth="yes"/>
			<point x="356" y="202"/>
			<point x="384" y="184"/>
			<point x="384" y="138" type="curve" smooth="yes"/>
			<point x="384" y="92"/>
			<point x="352" y="60"/>
			<point x="260" y="60" type="curve" smooth="yes"/>
			<point x="188" y="60"/>
			<point x="132" y="76"/>
			<point x="92" y="100" type="curve"/>
			<point x="92" y="40" type="line"/>
			<point x="168" y="40" type="line"/>
			<point x="136" y="192" type="line"/>
			<point x="48" y="192" type="line"/>
			<point x="36" y="24" type="line"/>
			<point x="92" y="0"/>
			<point x="180" y="-16"/>
		</contour>
	</outline>
	<anchor name="aboveUC" x="314" y="682"/>
	<anchor name="belowLC" x="293" y="-22"/>
	<anchor name="baseLC" x="289" y="0"/>
</glyph>
<glyph name="T" format="2">
	<unicode hex="0054"/>
	<advance width="712"/>
	<outline>
		<contour>
			<point x="164" y="0" type="line"/>
			<point x="548" y="0" type="line"/>
			<point x="548" y="80" type="line"/>
			<point x="416" y="80" type="line"/>
			<point x="296" y="80" type="line"/>
			<point x="164" y="80" type="line"/>
		</contour>
		<contour>
			<point x="248" y="0" type="line"/>
			<point x="464" y="0" type="line"/>
			<point x="464" y="284" type="line"/>
			<point x="464" y="368" type="line"/>
			<point x="464" y="652" type="line"/>
			<point x="248" y="652" type="line"/>
			<point x="248" y="368" type="line"/>
			<point x="248" y="284" type="line"/>
		</contour>
		<contour>
			<point x="24" y="448" type="line"/>
			<point x="108" y="448" type="line"/>
			<point x="164" y="624" type="line"/>
			<point x="96" y="576" type="line"/>
			<point x="616" y="576" type="line"/>
			<point x="548" y="624" type="line"/>
			<point x="604" y="448" type="line"/>
			<point x="688" y="448" type="line"/>
			<point x="684" y="652" type="line"/>
			<point x="28" y="652" type="line"/>
		</contour>
	</outline>
	<anchor name="aboveUC" x="355" y="682"/>
	<anchor name="belowLC" x="355" y="-22"/>
	<anchor name="baseLC" x="355" y="0"/>
</glyph>
<glyph name="U" format="2">
	<unicode hex="0055"/>
	<advance width="764"/>
	<outline>
		<contour>
			<point x="384" y="-16" type="curve" smooth="yes"/>
			<point x="576" y="-16"/>
			<point x="672" y="76"/>
			<point x="672" y="248" type="curve" smooth="yes"/>
			<point x="672" y="652" type="line"/>
			<point x="588" y="652" type="line"/>
			<point x="588" y="252" type="line" smooth="yes"/>
			<point x="588" y="124"/>
			<point x="536" y="72"/>
			<point x="448" y="72" type="curve" smooth="yes"/>
			<point x="360" y="72"/>
			<point x="308" y="124"/>
			<point x="308" y="252" type="curve" smooth="yes"/>
			<point x="308" y="368" type="line"/>
			<point x="308" y="652" type="line"/>
			<point x="92" y="652" type="line"/>
			<point x="92" y="368" type="line"/>
			<point x="92" y="248" type="line" smooth="yes"/>
			<point x="92" y="60"/>
			<point x="208" y="-16"/>
		</contour>
		<contour>
			<point x="16" y="572" type="line"/>
			<point x="140" y="572" type="line"/>
			<point x="260" y="572" type="line"/>
			<point x="392" y="572" type="line"/>
			<point x="392" y="652" type="line"/>
			<point x="16" y="652" type="line"/>
		</contour>
		<contour>
			<point x="504" y="572" type="line"/>
			<point x="620" y="572" type="line"/>
			<point x="640" y="572" type="line"/>
			<point x="748" y="572" type="line"/>
			<point x="748" y="652" type="line"/>
			<point x="504" y="652" type="line"/>
		</contour>
	</outline>
	<anchor name="aboveUC" x="464" y="682"/>
	<anchor name="belowLC" x="425" y="-22"/>
	<anchor name="ogonek" x="501" y="0"/>
	<anchor name="hornLC" x="679" y="681"/>
</glyph>
<glyph name="V" format="2">
	<unicode hex="0056"/>
	<advance width="760"/>
	<outline>
		<contour>
			<point x="308" y="0" type="line"/>
			<point x="464" y="0" type="line"/>
			<point x="704" y="652" type="line"/>
			<point x="612" y="652" type="line"/>
			<point x="436" y="144" type="line"/>
			<point x="456" y="144" type="line"/>
			<point x="282" y="652" type="line"/>
			<point x="56" y="652" type="line"/>
		</contour>
		<contour>
			<point x="20" y="572" type="line"/>
			<point x="132" y="572" type="line"/>
			<point x="256" y="572" type="line"/>
			<point x="388" y="572" type="line"/>
			<point x="388" y="652" type="line"/>
			<point x="20" y="652" type="line"/>
		</contour>
		<contour>
			<point x="508" y="572" type="line"/>
			<point x="604" y="572" type="line"/>
			<point x="648" y="572" type="line"/>
			<point x="740" y="572" type="line"/>
			<point x="740" y="652" type="line"/>
			<point x="508" y="652" type="line"/>
		</contour>
	</outline>
	<anchor name="aboveUC" x="405" y="682"/>
	<anchor name="belowLC" x="361" y="-22"/>
</glyph>
<glyph name="W" format="2">
	<unicode hex="0057"/>
	<advance width="1096"/>
	<outline>
		<contour>
			<point x="260" y="0" type="line"/>
			<point x="440" y="0" type="line"/>
			<point x="572" y="460" type="line"/>
			<point x="536" y="460" type="line"/>
			<point x="664" y="0" type="line"/>
			<point x="848" y="0" type="line"/>
			<point x="1040" y="652" type="line"/>
			<point x="948" y="652" type="line"/>
			<point x="812" y="144" type="line"/>
			<point x="820" y="144" type="line"/>
			<point x="676" y="652" type="line"/>
			<point x="536" y="652" type="line"/>
			<point x="396" y="144" type="line"/>
			<point x="404" y="144" type="line"/>
			<point x="274" y="652" type="line"/>
			<point x="56" y="652" type="line"/>
		</contour>
		<contour>
			<point x="20" y="572" type="line"/>
			<point x="116" y="572" type="line"/>
			<point x="260" y="572" type="line"/>
			<point x="372" y="572" type="line"/>
			<point x="372" y="652" type="line"/>
			<point x="20" y="652" type="line"/>
		</contour>
		<contour>
			<point x="440" y="572" type="line"/>
			<point x="548" y="572" type="line"/>
			<point x="692" y="572" type="line"/>
			<point x="776" y="572" type="line"/>
			<point x="776" y="652" type="line"/>
			<point x="440" y="652" type="line"/>
		</contour>
		<contour>
			<point x="852" y="572" type="line"/>
			<point x="960" y="572" type="line"/>
			<point x="984" y="572" type="line"/>
			<point x="1076" y="572" type="line"/>
			<point x="1076" y="652" type="line"/>
			<point x="852" y="652" type="line"/>
		</contour>
	</outline>
	<anchor name="aboveUC" x="608" y="682"/>
	<anchor name="belowLC" x="541" y="-22"/>
</glyph>
<glyph name="X" format="2">
	<unicode hex="0058"/>
	<advance width="723"/>
	<outline>
		<contour>
			<point x="7" y="0" type="line"/>
			<point x="233" y="0" type="line"/>
			<point x="233" y="59" type="line"/>
			<point x="129" y="65" type="line"/>
			<point x="100" y="65" type="line"/>
			<point x="7" y="59" type="line"/>
		</contour>
		<contour>
			<point x="36" y="0" type="line"/>
			<point x="129" y="0" type="line"/>
			<point x="360" y="334" type="line"/>
			<point x="299" y="354" type="line"/>
		</contour>
		<contour>
			<point x="333" y="0" type="line"/>
			<point x="716" y="0" type="line"/>
			<point x="716" y="59" type="line"/>
			<point x="551" y="74" type="line"/>
			<point x="491" y="74" type="line"/>
			<point x="333" y="59" type="line"/>
		</contour>
		<contour>
			<point x="415" y="332" type="line"/>
			<point x="642" y="652" type="line"/>
			<point x="550" y="652" type="line"/>
			<point x="358" y="355" type="line"/>
		</contour>
		<contour>
			<point x="447" y="0" type="line"/>
			<point x="685" y="0" type="line"/>
			<point x="273" y="652" type="line"/>
			<point x="34" y="652" type="line"/>
		</contour>
		<contour>
			<point x="9" y="593" type="line"/>
			<point x="147" y="578" type="line"/>
			<point x="216" y="578" type="line"/>
			<point x="367" y="593" type="line"/>
			<point x="367" y="652" type="line"/>
			<point x="9" y="652" type="line"/>
		</contour>
		<contour>
			<point x="453" y="593" type="line"/>
			<point x="552" y="588" type="line"/>
			<point x="582" y="588" type="line"/>
			<point x="674" y="593" type="line"/>
			<point x="674" y="652" type="line"/>
			<point x="453" y="652" type="line"/>
		</contour>
	</outline>
	<anchor name="aboveUC" x="372" y="682"/>
	<anchor name="belowLC" x="330" y="-22"/>
</glyph>
<glyph name="Y" format="2">
	<unicode hex="0059"/>
	<advance width="683"/>
	<outline>
		<contour>
			<point x="147" y="0" type="line"/>
			<point x="542" y="0" type="line"/>
			<point x="542" y="59" type="line"/>
			<point x="372" y="74" type="line"/>
			<point x="314" y="74" type="line"/>
			<point x="147" y="59" type="line"/>
		</contour>
		<contour>
			<point x="232" y="0" type="curve"/>
			<point x="457" y="0" type="line"/>
			<point x="453" y="93"/>
			<point x="453" y="148"/>
			<point x="453" y="313" type="curve"/>
			<point x="235" y="313" type="line"/>
			<point x="235" y="146"/>
			<point x="235" y="91"/>
		</contour>
		<contour>
			<point x="260" y="211" type="line"/>
			<point x="408" y="211" type="line"/>
			<point x="649" y="652" type="line"/>
			<point x="568" y="652" type="line"/>
			<point x="399" y="316" type="line"/>
			<point x="432" y="322" type="line"/>
			<point x="272" y="652" type="line"/>
			<point x="23" y="652" type="line"/>
		</contour>
		<contour>
			<point x="6" y="593" type="line"/>
			<point x="182" y="578" type="line"/>
			<point x="240" y="578" type="line"/>
			<point x="378" y="593" type="line"/>
			<point x="378" y="652" type="line"/>
			<point x="6" y="652" type="line"/>
		</contour>
		<contour>
			<point x="465" y="593" type="line"/>
			<point x="562" y="578" type="line"/>
			<point x="590" y="578" type="line"/>
			<point x="683" y="593" type="line"/>
			<point x="683" y="652" type="line"/>
			<point x="465" y="652" type="line"/>
		</contour>
	</outline>
	<anchor name="aboveUC" x="393" y="682"/>
	<anchor name="belowLC" x="341" y="-22"/>
</glyph>
<glyph name="Z" format="2">
	<unicode hex="005A"/>
	<advance width="640"/>
	<outline>
		<contour>
			<point x="28" y="0" type="line"/>
			<point x="616" y="0" type="line"/>
			<point x="620" y="204" type="line"/>
			<point x="536" y="204" type="line"/>
			<point x="480" y="28" type="line"/>
			<point x="548" y="76" type="line"/>
			<point x="260" y="72" type="line"/>
			<point x="260" y="35" type="line"/>
			<point x="608" y="596" type="line"/>
			<point x="608" y="652" type="line"/>
			<point x="44" y="652" type="line"/>
			<point x="40" y="448" type="line"/>
			<point x="124" y="448" type="line"/>
			<point x="180" y="624" type="line"/>
			<point x="112" y="576" type="line"/>
			<point x="376" y="580" type="line"/>
			<point x="376" y="617" type="line"/>
			<point x="28" y="56" type="line"/>
		</contour>
	</outline>
	<anchor name="aboveUC" x="320" y="684"/>
	<anchor name="belowLC" x="320" y="-32"/>
</glyph>
<glyph name="bracketleft" format="2">
	<unicode hex="005B"/>
	<advance width="376"/>
	<outline>
		<contour>
			<point x="100" y="52"/>
			<point x="100" y="-54"/>
			<point x="100" y="-160" type="curve"/>
			<point x="252" y="-160" type="line"/>
			<point x="252" y="-54"/>
			<point x="252" y="52"/>
			<point x="252" y="158" type="curve" smooth="yes"/>
			<point x="252" y="398" type="line" smooth="yes"/>
			<point x="252" y="504"/>
			<point x="252" y="610"/>
			<point x="252" y="716" type="curve"/>
			<point x="100" y="716" type="line"/>
			<point x="100" y="610"/>
			<point x="100" y="504"/>
			<point x="100" y="398" type="curve" smooth="yes"/>
			<point x="100" y="158" type="line" smooth="yes"/>
		</contour>
		<contour>
			<point x="172" y="-160" type="line"/>
			<point x="352" y="-160" type="line"/>
			<point x="352" y="-72" type="line"/>
			<point x="196" y="-72" type="line"/>
			<point x="172" y="-72" type="line"/>
		</contour>
		<contour>
			<point x="172" y="628" type="line"/>
			<point x="196" y="628" type="line"/>
			<point x="352" y="628" type="line"/>
			<point x="352" y="716" type="line"/>
			<point x="172" y="716" type="line"/>
		</contour>
	</outline>
</glyph>
<glyph name="backslash" format="2">
	<unicode hex="005C"/>
	<advance width="411"/>
	<outline>
		<contour>
			<point x="403" y="-160" type="line"/>
			<point x="144" y="710" type="line"/>
			<point x="8" y="710" type="line"/>
			<point x="271" y="-160" type="line"/>
		</contour>
	</outline>
</glyph>
<glyph name="a" format="2">
	<unicode hex="0061"/>
	<advance width="632"/>
	<outline>
		<contour>
			<point x="32" y="124" type="curve" smooth="yes"/>
			<point x="32" y="44"/>
			<point x="92" y="-12"/>
			<point x="178" y="-12" type="curve" smooth="yes"/>
			<point x="264" y="-12"/>
			<point x="300" y="32"/>
			<point x="324" y="72" type="curve"/>
			<point x="376" y="72" type="line"/>
			<point x="376" y="134" type="line"/>
			<point x="352" y="118"/>
			<point x="324" y="110"/>
			<point x="296" y="110" type="curve" smooth="yes"/>
			<point x="244" y="110"/>
			<point x="220" y="140"/>
			<point x="220" y="180" type="curve" smooth="yes"/>
			<point x="220" y="206"/>
			<point x="228" y="224"/>
			<point x="236" y="236" type="curve"/>
			<point x="376" y="276" type="line"/>
			<point x="376" y="332" type="line"/>
			<point x="246" y="304" type="line" smooth="yes"/>
			<point x="96" y="272"/>
			<point x="32" y="220"/>
		</contour>
		<contour>
			<point x="492" y="-12" type="curve" smooth="yes"/>
			<point x="548" y="-12"/>
			<point x="596" y="16"/>
			<point x="620" y="48" type="curve"/>
			<point x="608" y="110" type="line"/>
			<point x="604" y="109"/>
			<point x="598" y="108"/>
			<point x="590" y="108" type="curve" smooth="yes"/>
			<point x="564" y="108"/>
			<point x="548" y="120"/>
			<point x="548" y="148" type="curve" smooth="yes"/>
			<point x="548" y="340" type="line" smooth="yes"/>
			<point x="548" y="468"/>
			<point x="456" y="528"/>
			<point x="316" y="528" type="curve" smooth="yes"/>
			<point x="180" y="528"/>
			<point x="76" y="468"/>
			<point x="52" y="372" type="curve"/>
			<point x="60" y="344"/>
			<point x="84" y="316"/>
			<point x="128" y="316" type="curve" smooth="yes"/>
			<point x="184" y="316"/>
			<point x="216" y="348"/>
			<point x="224" y="428" type="curve" smooth="yes"/>
			<point x="232" y="508" type="line"/>
			<point x="180" y="444" type="line"/>
			<point x="196" y="452"/>
			<point x="228" y="460"/>
			<point x="260" y="460" type="curve" smooth="yes"/>
			<point x="312" y="460"/>
			<point x="344" y="436"/>
			<point x="344" y="372" type="curve" smooth="yes"/>
			<point x="344" y="88" type="line"/>
			<point x="356" y="88" type="line"/>
			<point x="372" y="24"/>
			<point x="412" y="-12"/>
		</contour>
	</outline>
	<anchor name="aboveLC" x="315" y="546"/>
	<anchor name="belowLC" x="299" y="-23"/>
	<anchor name="ogonek" x="520" y="0"/>
</glyph>
<glyph name="b" format="2">
	<unicode hex="0062"/>
	<advance width="692"/>
	<outline>
		<contour>
			<point x="32" y="0" type="line"/>
			<point x="268" y="-8" type="line"/>
			<point x="288" y="96" type="line"/>
			<point x="296" y="96" type="line"/>
			<point x="296" y="408" type="line"/>
			<point x="288" y="408" type="line"/>
			<point x="296" y="576" type="line"/>
			<point x="296" y="720" type="line"/>
			<point x="232" y="720" type="line"/>
			<point x="28" y="684" type="line"/>
			<point x="28" y="624" type="line"/>
			<point x="92" y="604" type="line"/>
			<point x="92" y="220" type="line"/>
			<point x="92" y="84" type="line"/>
			<point x="32" y="68" type="line"/>
		</contour>
		<contour>
			<point x="324" y="80" type="line"/>
			<point x="344" y="32"/>
			<point x="376" y="-16"/>
			<point x="464" y="-16" type="curve" smooth="yes"/>
			<point x="576" y="-16"/>
			<point x="656" y="84"/>
			<point x="656" y="256" type="curve" smooth="yes"/>
			<point x="656" y="428"/>
			<point x="576" y="528"/>
			<point x="464" y="528" type="curve" smooth="yes"/>
			<point x="376" y="528"/>
			<point x="344" y="472"/>
			<point x="324" y="424" type="curve"/>
			<point x="264" y="424" type="line"/>
			<point x="264" y="332" type="line"/>
			<point x="280" y="364"/>
			<point x="312" y="396"/>
			<point x="356" y="396" type="curve" smooth="yes"/>
			<point x="416" y="396"/>
			<point x="448" y="356"/>
			<point x="448" y="252" type="curve" smooth="yes"/>
			<point x="448" y="148"/>
			<point x="416" y="108"/>
			<point x="356" y="108" type="curve" smooth="yes"/>
			<point x="312" y="108"/>
			<point x="280" y="132"/>
			<point x="264" y="172" type="curve"/>
			<point x="264" y="80" type="line"/>
		</contour>
	</outline>
	<anchor name="aboveLC" x="183" y="746"/>
	<anchor name="belowLC" x="325" y="-23"/>
</glyph>
<glyph name="c" format="2">
	<unicode hex="0063"/>
	<advance width="585"/>
	<outline>
		<contour>
			<point x="35" y="71"/>
			<point x="167" y="-17"/>
			<point x="313" y="-17" type="curve" smooth="yes"/>
			<point x="415" y="-17"/>
			<point x="496" y="21"/>
			<point x="542" y="106" type="curve"/>
			<point x="501" y="146" type="line"/>
			<point x="470" y="118"/>
			<point x="438" y="97"/>
			<point x="390" y="97" type="curve" smooth="yes"/>
			<point x="305" y="97"/>
			<point x="250" y="161"/>
			<point x="250" y="277" type="curve" smooth="yes"/>
			<point x="250" y="422"/>
			<point x="317" y="471"/>
			<point x="367" y="471" type="curve" smooth="yes"/>
			<point x="403" y="471"/>
			<point x="427" y="464"/>
			<point x="459" y="450" type="curve"/>
			<point x="370" y="496" type="line"/>
			<point x="373" y="427" type="line" smooth="yes"/>
			<point x="378" y="335"/>
			<point x="421" y="308"/>
			<point x="466" y="308" type="curve" smooth="yes"/>
			<point x="509" y="308"/>
			<point x="533" y="327"/>
			<point x="548" y="369" type="curve"/>
			<point x="542" y="455"/>
			<point x="462" y="528"/>
			<point x="342" y="528" type="curve" smooth="yes"/>
			<point x="169" y="528"/>
			<point x="35" y="428"/>
			<point x="35" y="254" type="curve" smooth="yes"/>
		</contour>
	</outline>
	<anchor name="aboveLC" x="326" y="546"/>
	<anchor name="belowLC" x="318" y="-23"/>
	<anchor name="baseLC" x="318" y="0"/>
</glyph>
<glyph name="d" format="2">
	<unicode hex="0064"/>
	<advance width="673"/>
	<outline>
		<contour>
			<point x="35" y="72"/>
			<point x="129" y="-17"/>
			<point x="247" y="-17" type="curve" smooth="yes"/>
			<point x="325" y="-17"/>
			<point x="385" y="15"/>
			<point x="435" y="90" type="curve"/>
			<point x="477" y="90" type="line"/>
			<point x="462" y="177" type="line"/>
			<point x="434" y="130"/>
			<point x="399" y="87"/>
			<point x="349" y="87" type="curve" smooth="yes"/>
			<point x="290" y="87"/>
			<point x="252" y="147"/>
			<point x="252" y="253" type="curve" smooth="yes"/>
			<point x="252" y="370"/>
			<point x="294" y="427"/>
			<point x="353" y="427" type="curve" smooth="yes"/>
			<point x="398" y="427"/>
			<point x="424" y="399"/>
			<point x="458" y="353" type="curve"/>
			<point x="469" y="437" type="line"/>
			<point x="433" y="437" type="line"/>
			<point x="397" y="494"/>
			<point x="353" y="528"/>
			<point x="274" y="528" type="curve" smooth="yes"/>
			<point x="157" y="528"/>
			<point x="35" y="426"/>
			<point x="35" y="251" type="curve" smooth="yes"/>
		</contour>
		<contour>
			<point x="407" y="-13" type="line"/>
			<point x="636" y="0" type="line"/>
			<point x="636" y="54" type="line"/>
			<point x="597" y="63" type="line"/>
			<point x="597" y="600" type="line"/>
			<point x="601" y="746" type="line"/>
			<point x="583" y="757" type="line"/>
			<point x="332" y="710" type="line"/>
			<point x="332" y="663" type="line"/>
			<point x="400" y="652" type="line"/>
			<point x="400" y="450" type="line"/>
			<point x="393" y="440" type="line"/>
			<point x="393" y="76" type="line"/>
		</contour>
	</outline>
	<anchor name="aboveLC" x="478" y="746"/>
	<anchor name="belowLC" x="354" y="-23"/>
</glyph>
<glyph name="e" format="2">
	<unicode hex="0065"/>
	<advance width="601"/>
	<outline>
		<contour>
			<point x="35" y="84"/>
			<point x="134" y="-17"/>
			<point x="312" y="-17" type="curve" smooth="yes"/>
			<point x="414" y="-17"/>
			<point x="477" y="10"/>
			<point x="550" y="79" type="curve"/>
			<point x="517" y="143" type="line"/>
			<point x="477" y="122"/>
			<point x="428" y="107"/>
			<point x="374" y="107" type="curve" smooth="yes"/>
			<point x="304" y="107"/>
			<point x="240" y="156"/>
			<point x="240" y="275" type="curve" smooth="yes"/>
			<point x="240" y="413"/>
			<point x="269" y="453"/>
			<point x="318" y="453" type="curve" smooth="yes"/>
			<point x="360" y="453"/>
			<point x="379" y="422"/>
			<point x="379" y="373" type="curve" smooth="yes"/>
			<point x="379" y="344"/>
			<point x="377" y="324"/>
			<point x="374" y="293" type="curve"/>
			<point x="120" y="293" type="line"/>
			<point x="120" y="229" type="line"/>
			<point x="555" y="229" type="line"/>
			<point x="559" y="247"/>
			<point x="561" y="268"/>
			<point x="561" y="292" type="curve" smooth="yes"/>
			<point x="561" y="430"/>
			<point x="489" y="528"/>
			<point x="324" y="528" type="curve" smooth="yes"/>
			<point x="152" y="528"/>
			<point x="35" y="428"/>
			<point x="35" y="257" type="curve" smooth="yes"/>
		</contour>
	</outline>
	<anchor name="aboveLC" x="317" y="546"/>
	<anchor name="belowLC" x="326" y="-23"/>
	<anchor name="ogonek" x="407" y="0"/>
</glyph>
<glyph name="f" format="2">
	<unicode hex="0066"/>
	<advance width="408"/>
	<outline>
		<contour>
			<point x="32" y="0" type="line"/>
			<point x="372" y="0" type="line"/>
			<point x="372" y="76" type="line"/>
			<point x="264" y="76" type="line"/>
			<point x="124" y="76" type="line"/>
			<point x="32" y="76" type="line"/>
		</contour>
		<contour>
			<point x="92" y="0" type="curve"/>
			<point x="296" y="0" type="line"/>
			<point x="296" y="73"/>
			<point x="296" y="147"/>
			<point x="296" y="220" type="curve" smooth="yes"/>
			<point x="296" y="476" type="line" smooth="yes"/>
			<point x="296" y="590"/>
			<point x="296" y="643"/>
			<point x="300" y="698" type="curve" smooth="yes"/>
			<point x="301" y="713"/>
			<point x="301" y="720"/>
			<point x="302" y="726" type="curve"/>
			<point x="292" y="694" type="line"/>
			<point x="340" y="694" type="line"/>
			<point x="311" y="726" type="line"/>
			<point x="346" y="634" type="line" smooth="yes"/>
			<point x="363" y="589"/>
			<point x="384" y="569"/>
			<point x="428" y="569" type="curve" smooth="yes"/>
			<point x="479" y="569"/>
			<point x="502" y="601"/>
			<point x="505" y="652" type="curve"/>
			<point x="485" y="710"/>
			<point x="435" y="732"/>
			<point x="338" y="732" type="curve" smooth="yes"/>
			<point x="267" y="732"/>
			<point x="223" y="712"/>
			<point x="192" y="687" type="curve" smooth="yes"/>
			<point x="159" y="660"/>
			<point x="110" y="612"/>
			<point x="96" y="500" type="curve" smooth="yes"/>
			<point x="92" y="468" type="line"/>
			<point x="144" y="504" type="line"/>
			<point x="32" y="488" type="line"/>
			<point x="32" y="416" type="line"/>
			<point x="92" y="416" type="line"/>
			<point x="92" y="220" type="line" smooth="yes"/>
			<point x="92" y="147"/>
			<point x="92" y="73"/>
		</contour>
		<contour>
			<point x="216" y="416" type="line"/>
			<point x="388" y="416" type="line"/>
			<point x="388" y="500" type="line"/>
			<point x="216" y="500" type="line"/>
		</contour>
	</outline>
	<anchor name="aboveLC" x="328" y="768"/>
	<anchor name="belowLC" x="196" y="-32"/>
</glyph>
<glyph name="g" format="2">
	<unicode hex="0067"/>
	<advance width="652"/>
	<outline>
		<contour>
			<point x="28" y="-104" type="curve" smooth="yes"/>
			<point x="28" y="-184"/>
			<point x="124" y="-232"/>
			<point x="288" y="-232" type="curve" smooth="yes"/>
			<point x="452" y="-232"/>
			<point x="600" y="-160"/>
			<point x="600" y="-24" type="curve" smooth="yes"/>
			<point x="600" y="56"/>
			<point x="552" y="112"/>
			<point x="424" y="112" type="curve" smooth="yes"/>
			<point x="264" y="112" type="line" smooth="yes"/>
			<point x="216" y="112"/>
			<point x="200" y="136"/>
			<point x="200" y="164" type="curve" smooth="yes"/>
			<point x="200" y="192"/>
			<point x="208" y="208"/>
			<point x="224" y="224" type="curve"/>
			<point x="152" y="224" type="line"/>
			<point x="152" y="184" type="line"/>
			<point x="96" y="176"/>
			<point x="48" y="156"/>
			<point x="48" y="100" type="curve" smooth="yes"/>
			<point x="48" y="48"/>
			<point x="88" y="24"/>
			<point x="152" y="16" type="curve"/>
			<point x="152" y="-32" type="line"/>
			<point x="220" y="-32" type="line"/>
			<point x="392" y="-32" type="line" smooth="yes"/>
			<point x="440" y="-32"/>
			<point x="456" y="-52"/>
			<point x="456" y="-80" type="curve" smooth="yes"/>
			<point x="456" y="-128"/>
			<point x="404" y="-160"/>
			<point x="312" y="-160" type="curve" smooth="yes"/>
			<point x="220" y="-160"/>
			<point x="172" y="-136"/>
			<point x="172" y="-80" type="curve" smooth="yes"/>
			<point x="172" y="-48"/>
			<point x="188" y="-28"/>
			<point x="196" y="-20" type="curve"/>
			<point x="180" y="-12" type="line"/>
			<point x="92" y="-20"/>
			<point x="28" y="-40"/>
		</contour>
		<contour>
			<point x="44" y="356" type="curve" smooth="yes"/>
			<point x="44" y="248"/>
			<point x="132" y="192"/>
			<point x="284" y="192" type="curve" smooth="yes"/>
			<point x="436" y="192"/>
			<point x="520" y="256"/>
			<point x="520" y="364" type="curve" smooth="yes"/>
			<point x="520" y="472"/>
			<point x="436" y="528"/>
			<point x="284" y="528" type="curve" smooth="yes"/>
			<point x="132" y="528"/>
			<point x="44" y="464"/>
		</contour>
		<contour>
			<point x="340" y="360" type="curve" smooth="yes"/>
			<point x="340" y="288"/>
			<point x="324" y="256"/>
			<point x="284" y="256" type="curve" smooth="yes"/>
			<point x="244" y="256"/>
			<point x="228" y="288"/>
			<point x="228" y="360" type="curve" smooth="yes"/>
			<point x="228" y="432"/>
			<point x="244" y="464"/>
			<point x="284" y="464" type="curve" smooth="yes"/>
			<point x="324" y="464"/>
			<point x="340" y="432"/>
		</contour>
		<contour>
			<point x="468" y="392" type="line"/>
			<point x="632" y="392" type="line"/>
			<point x="632" y="528" type="line"/>
			<point x="560" y="528" type="line"/>
			<point x="528" y="432" type="line"/>
			<point x="468" y="432" type="line"/>
		</contour>
	</outline>
	<anchor name="aboveLC" x="294" y="546"/>
	<anchor name="belowLC" x="288" y="-242"/>
</glyph>
<glyph name="h" format="2">
	<unicode hex="0068"/>
	<advance width="720"/>
	<outline>
		<contour>
			<point x="32" y="0" type="line"/>
			<point x="340" y="0" type="line"/>
			<point x="340" y="76" type="line"/>
			<point x="248" y="76" type="line"/>
			<point x="140" y="76" type="line"/>
			<point x="32" y="76" type="line"/>
		</contour>
		<contour>
			<point x="92" y="0" type="line"/>
			<point x="296" y="0" type="line"/>
			<point x="296" y="220" type="line"/>
			<point x="296" y="576" type="line"/>
			<point x="296" y="720" type="line"/>
			<point x="232" y="720" type="line"/>
			<point x="28" y="684" type="line"/>
			<point x="28" y="624" type="line"/>
			<point x="92" y="604" type="line"/>
			<point x="92" y="220" type="line"/>
		</contour>
		<contour>
			<point x="392" y="0" type="line"/>
			<point x="700" y="0" type="line"/>
			<point x="700" y="76" type="line"/>
			<point x="592" y="76" type="line"/>
			<point x="484" y="76" type="line"/>
			<point x="392" y="76" type="line"/>
		</contour>
		<contour>
			<point x="436" y="0" type="line"/>
			<point x="640" y="0" type="line"/>
			<point x="640" y="221" type="line"/>
			<point x="640" y="352" type="line" smooth="yes"/>
			<point x="640" y="468"/>
			<point x="584" y="528"/>
			<point x="484" y="528" type="curve" smooth="yes"/>
			<point x="392" y="528"/>
			<point x="352" y="468"/>
			<point x="328" y="420" type="curve"/>
			<point x="264" y="420" type="line"/>
			<point x="264" y="348" type="line"/>
			<point x="304" y="376"/>
			<point x="336" y="388"/>
			<point x="372" y="388" type="curve" smooth="yes"/>
			<point x="416" y="388"/>
			<point x="436" y="368"/>
			<point x="436" y="320" type="curve" smooth="yes"/>
			<point x="436" y="221" type="line"/>
		</contour>
	</outline>
	<anchor name="aboveLC" x="172" y="746"/>
	<anchor name="belowLC" x="359" y="-23"/>
</glyph>
<glyph name="i" format="2">
	<unicode hex="0069"/>
	<advance width="388"/>
	<outline>
		<contour>
			<point x="32" y="0" type="line"/>
			<point x="356" y="0" type="line"/>
			<point x="356" y="76" type="line"/>
			<point x="248" y="76" type="line"/>
			<point x="140" y="76" type="line"/>
			<point x="32" y="76" type="line"/>
		</contour>
		<contour>
			<point x="92" y="0" type="line"/>
			<point x="296" y="0" type="line"/>
			<point x="296" y="220" type="line"/>
			<point x="296" y="372" type="line"/>
			<point x="296" y="516" type="line"/>
			<point x="232" y="516" type="line"/>
			<point x="28" y="456" type="line"/>
			<point x="28" y="384" type="line"/>
			<point x="92" y="384" type="line"/>
			<point x="92" y="276" type="line"/>
			<point x="92" y="220" type="line"/>
		</contour>
		<contour>
			<point x="194" y="564" type="curve" smooth="yes"/>
			<point x="258" y="564"/>
			<point x="302" y="606"/>
			<point x="302" y="666" type="curve" smooth="yes"/>
			<point x="302" y="726"/>
			<point x="258" y="768"/>
			<point x="194" y="768" type="curve" smooth="yes"/>
			<point x="130" y="768"/>
			<point x="86" y="726"/>
			<point x="86" y="666" type="curve" smooth="yes"/>
			<point x="86" y="606"/>
			<point x="130" y="564"/>
		</contour>
	</outline>
	<anchor name="aboveLC" x="185" y="764"/>
	<anchor name="belowLC" x="192" y="-23"/>
	<anchor name="ogonek" x="223" y="0"/>
</glyph>
<glyph name="j" format="2">
	<unicode hex="006A"/>
	<advance width="376"/>
	<outline>
		<contour>
			<point x="24" y="-232" type="curve" smooth="yes"/>
			<point x="124" y="-232"/>
			<point x="180" y="-192"/>
			<point x="220" y="-144" type="curve" smooth="yes"/>
			<point x="260" y="-96"/>
			<point x="292" y="-32"/>
			<point x="292" y="96" type="curve" smooth="yes"/>
			<point x="292" y="372" type="line"/>
			<point x="292" y="516" type="line"/>
			<point x="228" y="516" type="line"/>
			<point x="24" y="456" type="line"/>
			<point x="24" y="384" type="line"/>
			<point x="88" y="384" type="line"/>
			<point x="88" y="276" type="line"/>
			<point x="88" y="96" type="line" smooth="yes"/>
			<point x="88" y="-24"/>
			<point x="128" y="-80"/>
			<point x="128" y="-132" type="curve" smooth="yes"/>
			<point x="128" y="-148"/>
			<point x="126" y="-166"/>
			<point x="124" y="-172" type="curve"/>
			<point x="60" y="-172" type="line"/>
			<point x="92" y="-188" type="line"/>
			<point x="72" y="-140" type="line" smooth="yes"/>
			<point x="52" y="-92"/>
			<point x="16" y="-68"/>
			<point x="-32" y="-68" type="curve" smooth="yes"/>
			<point x="-84" y="-68"/>
			<point x="-120" y="-104"/>
			<point x="-128" y="-152" type="curve"/>
			<point x="-112" y="-188"/>
			<point x="-64" y="-232"/>
		</contour>
		<contour>
			<point x="190" y="564" type="curve" smooth="yes"/>
			<point x="254" y="564"/>
			<point x="298" y="606"/>
			<point x="298" y="666" type="curve" smooth="yes"/>
			<point x="298" y="726"/>
			<point x="254" y="768"/>
			<point x="190" y="768" type="curve" smooth="yes"/>
			<point x="126" y="768"/>
			<point x="82" y="726"/>
			<point x="82" y="666" type="curve" smooth="yes"/>
			<point x="82" y="606"/>
			<point x="126" y="564"/>
		</contour>
	</outline>
	<anchor name="aboveLC" x="112" y="764"/>
	<anchor name="belowLC" x="26" y="-261"/>
</glyph>
<glyph name="k" format="2">
	<unicode hex="006B"/>
	<advance width="708"/>
	<outline>
		<contour>
			<point x="32" y="0" type="line"/>
			<point x="348" y="0" type="line"/>
			<point x="348" y="76" type="line"/>
			<point x="248" y="76" type="line"/>
			<point x="140" y="76" type="line"/>
			<point x="32" y="76" type="line"/>
		</contour>
		<contour>
			<point x="92" y="0" type="line"/>
			<point x="296" y="0" type="line"/>
			<point x="296" y="220" type="line"/>
			<point x="296" y="576" type="line"/>
			<point x="296" y="720" type="line"/>
			<point x="232" y="720" type="line"/>
			<point x="28" y="684" type="line"/>
			<point x="28" y="624" type="line"/>
			<point x="92" y="604" type="line"/>
			<point x="92" y="220" type="line"/>
		</contour>
		<contour>
			<point x="216" y="140" type="line"/>
			<point x="676" y="500" type="line"/>
			<point x="544" y="500" type="line"/>
			<point x="216" y="204" type="line"/>
		</contour>
		<contour>
			<point x="456" y="0" type="line"/>
			<point x="692" y="0" type="line"/>
			<point x="692" y="76" type="line"/>
			<point x="644" y="76" type="line"/>
			<point x="480" y="396" type="line"/>
			<point x="348" y="272" type="line"/>
		</contour>
		<contour>
			<point x="388" y="444" type="line"/>
			<point x="512" y="428" type="line"/>
			<point x="544" y="428" type="line"/>
			<point x="676" y="444" type="line"/>
			<point x="676" y="516" type="line"/>
			<point x="388" y="516" type="line"/>
		</contour>
	</outline>
	<anchor name="aboveLC" x="186" y="746"/>
	<anchor name="belowLC" x="374" y="-23"/>
</glyph>
<glyph name="l" format="2">
	<unicode hex="006C"/>
	<advance width="388"/>
	<outline>
		<contour>
			<point x="32" y="0" type="line"/>
			<point x="356" y="0" type="line"/>
			<point x="356" y="76" type="line"/>
			<point x="248" y="76" type="line"/>
			<point x="140" y="76" type="line"/>
			<point x="32" y="76" type="line"/>
		</contour>
		<contour>
			<point x="92" y="0" type="line"/>
			<point x="296" y="0" type="line"/>
			<point x="296" y="220" type="line"/>
			<point x="296" y="576" type="line"/>
			<point x="296" y="720" type="line"/>
			<point x="232" y="720" type="line"/>
			<point x="28" y="684" type="line"/>
			<point x="28" y="624" type="line"/>
			<point x="92" y="604" type="line"/>
			<point x="92" y="220" type="line"/>
		</contour>
	</outline>
	<anchor name="aboveLC" x="182" y="746"/>
	<anchor name="belowLC" x="197" y="-23"/>
</glyph>
<glyph name="m" format="2">
	<unicode hex="006D"/>
	<advance width="1018"/>
	<outline>
		<contour>
			<point x="45" y="0" type="line"/>
			<point x="336" y="0" type="line"/>
			<point x="336" y="74" type="line"/>
			<point x="239" y="95" type="line"/>
			<point x="134" y="95" type="line"/>
			<point x="45" y="74" type="line"/>
		</contour>
		<contour>
			<point x="90" y="0" type="line"/>
			<point x="296" y="0" type="line"/>
			<point x="296" y="221" type="line"/>
			<point x="296" y="402" type="line"/>
			<point x="280" y="514" type="line"/>
			<point x="260" y="528" type="line"/>
			<point x="30" y="456" type="line"/>
			<point x="30" y="392" type="line"/>
			<point x="90" y="382" type="line"/>
			<point x="90" y="286" type="line"/>
			<point x="90" y="221" type="line"/>
		</contour>
		<contour>
			<point x="376" y="0" type="line"/>
			<point x="667" y="0" type="line"/>
			<point x="667" y="74" type="line"/>
			<point x="569" y="95" type="line"/>
			<point x="464" y="95" type="line"/>
			<point x="376" y="74" type="line"/>
		</contour>
		<contour>
			<point x="421" y="0" type="line"/>
			<point x="627" y="0" type="line"/>
			<point x="627" y="221" type="line"/>
			<point x="627" y="391" type="line"/>
			<point x="627" y="455"/>
			<point x="558" y="528"/>
			<point x="480" y="528" type="curve" smooth="yes"/>
			<point x="411" y="528"/>
			<point x="364" y="506"/>
			<point x="329" y="430" type="curve"/>
			<point x="244" y="430" type="line"/>
			<point x="244" y="357" type="line"/>
			<point x="292" y="381"/>
			<point x="322" y="391"/>
			<point x="365" y="391" type="curve" smooth="yes"/>
			<point x="409" y="391"/>
			<point x="421" y="371"/>
			<point x="421" y="319" type="curve" smooth="yes"/>
			<point x="421" y="221" type="line"/>
		</contour>
		<contour>
			<point x="702" y="0" type="line"/>
			<point x="993" y="0" type="line"/>
			<point x="993" y="74" type="line"/>
			<point x="895" y="95" type="line"/>
			<point x="790" y="95" type="line"/>
			<point x="702" y="74" type="line"/>
		</contour>
		<contour>
			<point x="747" y="0" type="line"/>
			<point x="953" y="0" type="line"/>
			<point x="953" y="221" type="line"/>
			<point x="953" y="353" type="line" smooth="yes"/>
			<point x="953" y="467"/>
			<point x="884" y="528"/>
			<point x="793" y="528" type="curve" smooth="yes"/>
			<point x="737" y="528"/>
			<point x="690" y="506"/>
			<point x="655" y="430" type="curve"/>
			<point x="570" y="430" type="line"/>
			<point x="570" y="355" type="line"/>
			<point x="618" y="379"/>
			<point x="648" y="389"/>
			<point x="691" y="389" type="curve" smooth="yes"/>
			<point x="735" y="389"/>
			<point x="747" y="369"/>
			<point x="747" y="317" type="curve" smooth="yes"/>
			<point x="747" y="221" type="line"/>
		</contour>
	</outline>
	<anchor name="aboveLC" x="505" y="546"/>
	<anchor name="belowLC" x="504" y="-23"/>
</glyph>
<glyph name="n" format="2">
	<unicode hex="006E"/>
	<advance width="692"/>
	<outline>
		<contour>
			<point x="45" y="0" type="line"/>
			<point x="336" y="0" type="line"/>
			<point x="336" y="74" type="line"/>
			<point x="239" y="95" type="line"/>
			<point x="134" y="95" type="line"/>
			<point x="45" y="74" type="line"/>
		</contour>
		<contour>
			<point x="90" y="0" type="line"/>
			<point x="296" y="0" type="line"/>
			<point x="296" y="221" type="line"/>
			<point x="296" y="402" type="line"/>
			<point x="280" y="514" type="line"/>
			<point x="260" y="528" type="line"/>
			<point x="30" y="456" type="line"/>
			<point x="30" y="392" type="line"/>
			<point x="90" y="382" type="line"/>
			<point x="90" y="286" type="line"/>
			<point x="90" y="221" type="line"/>
		</contour>
		<contour>
			<point x="376" y="0" type="line"/>
			<point x="667" y="0" type="line"/>
			<point x="667" y="74" type="line"/>
			<point x="569" y="95" type="line"/>
			<point x="464" y="95" type="line"/>
			<point x="376" y="74" type="line"/>
		</contour>
		<contour>
			<point x="421" y="0" type="line"/>
			<point x="627" y="0" type="line"/>
			<point x="627" y="221" type="line"/>
			<point x="627" y="353" type="line" smooth="yes"/>
			<point x="627" y="467"/>
			<point x="558" y="528"/>
			<point x="464" y="528" type="curve" smooth="yes"/>
			<point x="411" y="528"/>
			<point x="359" y="506"/>
			<point x="329" y="430" type="curve"/>
			<point x="244" y="430" type="line"/>
			<point x="244" y="357" type="line"/>
			<point x="292" y="381"/>
			<point x="322" y="391"/>
			<point x="365" y="391" type="curve" smooth="yes"/>
			<point x="409" y="391"/>
			<point x="421" y="371"/>
			<point x="421" y="319" type="curve" smooth="yes"/>
			<point x="421" y="221" type="line"/>
		</contour>
	</outline>
	<anchor name="aboveLC" x="367" y="546"/>
	<anchor name="belowLC" x="359" y="-23"/>
</glyph>
<glyph name="o" format="2">
	<unicode hex="006F"/>
	<advance width="652"/>
	<outline>
		<contour>
			<point x="326" y="-12" type="curve" smooth="yes"/>
			<point x="480" y="-12"/>
			<point x="616" y="76"/>
			<point x="616" y="260" type="curve" smooth="yes"/>
			<point x="616" y="444"/>
			<point x="480" y="528"/>
			<point x="326" y="528" type="curve" smooth="yes"/>
			<point x="172" y="528"/>
			<point x="36" y="440"/>
			<point x="36" y="256" type="curve" smooth="yes"/>
			<point x="36" y="72"/>
			<point x="172" y="-12"/>
		</contour>
		<contour>
			<point x="326" y="64" type="curve" smooth="yes"/>
			<point x="276" y="64"/>
			<point x="246" y="112"/>
			<point x="246" y="260" type="curve" smooth="yes"/>
			<point x="246" y="408"/>
			<point x="276" y="452"/>
			<point x="326" y="452" type="curve" smooth="yes"/>
			<point x="376" y="452"/>
			<point x="406" y="404"/>
			<point x="406" y="256" type="curve" smooth="yes"/>
			<point x="406" y="104"/>
			<point x="376" y="64"/>
		</contour>
	</outline>
	<anchor name="aboveLC" x="326" y="552"/>
	<anchor name="belowLC" x="326" y="-32"/>
	<anchor name="hornLC" x="478" y="518"/>
	<anchor name="ogonek" x="417" y="0"/>
	<guideline x="326" y="-100" angle="90" identifier="FpSQEUZsI0"/>
</glyph>
<glyph name="p" format="2">
	<unicode hex="0070"/>
	<advance width="692"/>
	<outline>
		<contour>
			<point x="32" y="-220" type="line"/>
			<point x="380" y="-220" type="line"/>
			<point x="380" y="-144" type="line"/>
			<point x="248" y="-144" type="line"/>
			<point x="140" y="-144" type="line"/>
			<point x="32" y="-144" type="line"/>
		</contour>
		<contour>
			<point x="92" y="-220" type="line"/>
			<point x="296" y="-220" type="line"/>
			<point x="296" y="0" type="line"/>
			<point x="288" y="96" type="line"/>
			<point x="296" y="96" type="line"/>
			<point x="296" y="412" type="line"/>
			<point x="288" y="412" type="line"/>
			<point x="272" y="516" type="line"/>
			<point x="216" y="516" type="line"/>
			<point x="28" y="456" type="line"/>
			<point x="28" y="384" type="line"/>
			<point x="92" y="384" type="line"/>
			<point x="92" y="276" type="line"/>
			<point x="92" y="8" type="line"/>
		</contour>
		<contour>
			<point x="324" y="80" type="line"/>
			<point x="344" y="32"/>
			<point x="376" y="-16"/>
			<point x="464" y="-16" type="curve" smooth="yes"/>
			<point x="576" y="-16"/>
			<point x="656" y="84"/>
			<point x="656" y="256" type="curve" smooth="yes"/>
			<point x="656" y="428"/>
			<point x="576" y="528"/>
			<point x="464" y="528" type="curve" smooth="yes"/>
			<point x="376" y="528"/>
			<point x="344" y="472"/>
			<point x="324" y="424" type="curve"/>
			<point x="264" y="424" type="line"/>
			<point x="264" y="332" type="line"/>
			<point x="280" y="364"/>
			<point x="312" y="396"/>
			<point x="356" y="396" type="curve" smooth="yes"/>
			<point x="416" y="396"/>
			<point x="448" y="356"/>
			<point x="448" y="252" type="curve" smooth="yes"/>
			<point x="448" y="148"/>
			<point x="416" y="108"/>
			<point x="356" y="108" type="curve" smooth="yes"/>
			<point x="312" y="108"/>
			<point x="280" y="132"/>
			<point x="264" y="172" type="curve"/>
			<point x="264" y="80" type="line"/>
		</contour>
	</outline>
	<anchor name="aboveLC" x="347" y="546"/>
	<anchor name="belowLC" x="194" y="-252"/>
</glyph>
<glyph name="q" format="2">
	<unicode hex="0071"/>
	<advance width="653"/>
	<outline>
		<contour>
			<point x="336" y="-233" type="line"/>
			<point x="639" y="-233" type="line"/>
			<point x="639" y="-178" type="line"/>
			<point x="550" y="-158" type="line"/>
			<point x="415" y="-158" type="line"/>
			<point x="336" y="-178" type="line"/>
		</contour>
		<contour>
			<point x="35" y="71"/>
			<point x="129" y="-17"/>
			<point x="247" y="-17" type="curve" smooth="yes"/>
			<point x="333" y="-17"/>
			<point x="396" y="22"/>
			<point x="450" y="113" type="curve"/>
			<point x="477" y="113" type="line"/>
			<point x="462" y="176" type="line"/>
			<point x="434" y="129"/>
			<point x="399" y="87"/>
			<point x="349" y="87" type="curve" smooth="yes"/>
			<point x="290" y="87"/>
			<point x="252" y="146"/>
			<point x="252" y="252" type="curve" smooth="yes"/>
			<point x="252" y="369"/>
			<point x="291" y="427"/>
			<point x="355" y="427" type="curve" smooth="yes"/>
			<point x="391" y="427"/>
			<point x="430" y="408"/>
			<point x="469" y="359" type="curve"/>
			<point x="479" y="435" type="line"/>
			<point x="445" y="435" type="line"/>
			<point x="401" y="499"/>
			<point x="350" y="528"/>
			<point x="286" y="528" type="curve" smooth="yes"/>
			<point x="154" y="528"/>
			<point x="35" y="427"/>
			<point x="35" y="250" type="curve" smooth="yes"/>
		</contour>
		<contour>
			<point x="396" y="-86"/>
			<point x="395" y="-160"/>
			<point x="393" y="-233" type="curve"/>
			<point x="600" y="-233" type="line"/>
			<point x="599" y="-160"/>
			<point x="597" y="-86"/>
			<point x="597" y="-13" type="curve" smooth="yes"/>
			<point x="597" y="376" type="line"/>
			<point x="600" y="518" type="line"/>
			<point x="563" y="528" type="line"/>
			<point x="393" y="459" type="line"/>
			<point x="393" y="85" type="line"/>
			<point x="396" y="70" type="line"/>
			<point x="396" y="-13" type="line" smooth="yes"/>
		</contour>
	</outline>
	<anchor name="aboveLC" x="372" y="546"/>
	<anchor name="belowLC" x="493" y="-252"/>
</glyph>
<glyph name="r" format="2">
	<unicode hex="0072"/>
	<advance width="568"/>
	<outline>
		<contour>
			<point x="32" y="0" type="line"/>
			<point x="376" y="0" type="line"/>
			<point x="376" y="76" type="line"/>
			<point x="248" y="76" type="line"/>
			<point x="140" y="76" type="line"/>
			<point x="32" y="76" type="line"/>
		</contour>
		<contour>
			<point x="92" y="0" type="line"/>
			<point x="296" y="0" type="line"/>
			<point x="296" y="220" type="line"/>
			<point x="296" y="388" type="line"/>
			<point x="278" y="388" type="line"/>
			<point x="264" y="516" type="line"/>
			<point x="208" y="516" type="line"/>
			<point x="28" y="456" type="line"/>
			<point x="28" y="384" type="line"/>
			<point x="92" y="384" type="line"/>
			<point x="92" y="276" type="line"/>
			<point x="92" y="220" type="line"/>
		</contour>
		<contour>
			<point x="264" y="276" type="line"/>
			<point x="288" y="344"/>
			<point x="336" y="384"/>
			<point x="404" y="400" type="curve"/>
			<point x="356" y="400" type="line"/>
			<point x="360" y="394" type="line" smooth="yes"/>
			<point x="378" y="368"/>
			<point x="404" y="344"/>
			<point x="450" y="344" type="curve" smooth="yes"/>
			<point x="516" y="344"/>
			<point x="544" y="396"/>
			<point x="548" y="448" type="curve"/>
			<point x="536" y="484"/>
			<point x="508" y="524"/>
			<point x="444" y="524" type="curve" smooth="yes"/>
			<point x="372" y="524"/>
			<point x="340" y="468"/>
			<point x="314" y="396" type="curve"/>
			<point x="264" y="396" type="line"/>
		</contour>
	</outline>
	<anchor name="aboveLC" x="303" y="546"/>
	<anchor name="belowLC" x="195" y="-23"/>
</glyph>
<glyph name="s" format="2">
	<unicode hex="0073"/>
	<advance width="528"/>
	<outline>
		<contour>
			<point x="236" y="-12" type="curve" smooth="yes"/>
			<point x="392" y="-12"/>
			<point x="492" y="56"/>
			<point x="492" y="168" type="curve" smooth="yes"/>
			<point x="492" y="268"/>
			<point x="420" y="312"/>
			<point x="328" y="340" type="curve" smooth="yes"/>
			<point x="302" y="348" type="line" smooth="yes"/>
			<point x="236" y="368"/>
			<point x="212" y="382"/>
			<point x="212" y="412" type="curve" smooth="yes"/>
			<point x="212" y="442"/>
			<point x="236" y="460"/>
			<point x="288" y="460" type="curve" smooth="yes"/>
			<point x="320" y="460"/>
			<point x="357" y="456"/>
			<point x="384" y="451" type="curve"/>
			<point x="384" y="504" type="line"/>
			<point x="344" y="504" type="line"/>
			<point x="355" y="386" type="line"/>
			<point x="449" y="386" type="line"/>
			<point x="460" y="496" type="line"/>
			<point x="408" y="516"/>
			<point x="344" y="528"/>
			<point x="280" y="528" type="curve" smooth="yes"/>
			<point x="128" y="528"/>
			<point x="36" y="460"/>
			<point x="36" y="352" type="curve" smooth="yes"/>
			<point x="36" y="252"/>
			<point x="112" y="212"/>
			<point x="196" y="184" type="curve" smooth="yes"/>
			<point x="222" y="176" type="line" smooth="yes"/>
			<point x="288" y="156"/>
			<point x="312" y="140"/>
			<point x="312" y="110" type="curve" smooth="yes"/>
			<point x="312" y="80"/>
			<point x="288" y="56"/>
			<point x="228" y="56" type="curve" smooth="yes"/>
			<point x="180" y="56"/>
			<point x="140" y="61"/>
			<point x="112" y="67" type="curve"/>
			<point x="112" y="28" type="line"/>
			<point x="155" y="28" type="line"/>
			<point x="140" y="138" type="line"/>
			<point x="46" y="138" type="line"/>
			<point x="40" y="20" type="line"/>
			<point x="80" y="4"/>
			<point x="156" y="-12"/>
		</contour>
	</outline>
	<anchor name="aboveLC" x="282" y="552"/>
	<anchor name="belowLC" x="244" y="-32"/>
	<anchor name="baseLC" x="244" y="0"/>
</glyph>
<glyph name="t" format="2">
	<unicode hex="0074"/>
	<advance width="411"/>
	<outline>
		<contour>
			<point x="80" y="27"/>
			<point x="142" y="-17"/>
			<point x="237" y="-17" type="curve" smooth="yes"/>
			<point x="319" y="-17"/>
			<point x="360" y="6"/>
			<point x="399" y="52" type="curve"/>
			<point x="393" y="103" type="line"/>
			<point x="370" y="99"/>
			<point x="357" y="97"/>
			<point x="339" y="97" type="curve" smooth="yes"/>
			<point x="308" y="97"/>
			<point x="286" y="118"/>
			<point x="286" y="162" type="curve" smooth="yes"/>
			<point x="286" y="469" type="line"/>
			<point x="266" y="489" type="line"/>
			<point x="286" y="660" type="line"/>
			<point x="158" y="660" type="line"/>
			<point x="77" y="472" type="line"/>
			<point x="145" y="513" type="line"/>
			<point x="20" y="497" type="line"/>
			<point x="20" y="417" type="line"/>
			<point x="82" y="417" type="line"/>
			<point x="82" y="252" type="line" smooth="yes"/>
			<point x="82" y="220"/>
			<point x="80" y="189"/>
			<point x="80" y="148" type="curve" smooth="yes"/>
		</contour>
		<contour>
			<point x="185" y="417" type="line"/>
			<point x="385" y="417" type="line"/>
			<point x="385" y="507" type="line"/>
			<point x="185" y="507" type="line"/>
		</contour>
	</outline>
	<anchor name="aboveLC" x="208" y="680"/>
	<anchor name="belowLC" x="235" y="-23"/>
	<anchor name="baseLC" x="235" y="0"/>
</glyph>
<glyph name="u" format="2">
	<unicode hex="0075"/>
	<advance width="712"/>
	<outline>
		<contour>
			<point x="236" y="-12" type="curve" smooth="yes"/>
			<point x="328" y="-12"/>
			<point x="368" y="40"/>
			<point x="408" y="96" type="curve"/>
			<point x="456" y="96" type="line"/>
			<point x="456" y="168" type="line"/>
			<point x="416" y="140"/>
			<point x="384" y="128"/>
			<point x="348" y="128" type="curve" smooth="yes"/>
			<point x="304" y="128"/>
			<point x="284" y="148"/>
			<point x="284" y="196" type="curve" smooth="yes"/>
			<point x="284" y="372" type="line"/>
			<point x="284" y="516" type="line"/>
			<point x="220" y="516" type="line"/>
			<point x="16" y="486" type="line"/>
			<point x="16" y="422" type="line"/>
			<point x="128" y="392" type="line"/>
			<point x="84" y="448" type="line"/>
			<point x="80" y="164" type="line"/>
			<point x="80" y="48"/>
			<point x="136" y="-12"/>
		</contour>
		<contour>
			<point x="456" y="-12" type="line"/>
			<point x="692" y="0" type="line"/>
			<point x="692" y="68" type="line"/>
			<point x="628" y="84" type="line"/>
			<point x="628" y="372" type="line"/>
			<point x="628" y="516" type="line"/>
			<point x="564" y="516" type="line"/>
			<point x="360" y="486" type="line"/>
			<point x="360" y="422" type="line"/>
			<point x="424" y="404" type="line"/>
			<point x="424" y="104" type="line"/>
			<point x="440" y="104" type="line"/>
		</contour>
	</outline>
	<anchor name="aboveLC" x="356" y="552"/>
	<anchor name="belowLC" x="356" y="-32"/>
	<anchor name="hornLC" x="630" y="494"/>
	<anchor name="ogonek" x="586" y="0"/>
</glyph>
<glyph name="v" format="2">
	<unicode hex="0076"/>
	<advance width="602"/>
	<outline>
		<contour>
			<point x="242" y="0" type="line"/>
			<point x="369" y="0" type="line"/>
			<point x="570" y="511" type="line"/>
			<point x="489" y="511" type="line"/>
			<point x="378" y="170" type="line"/>
			<point x="349" y="170" type="line"/>
			<point x="244" y="511" type="line"/>
			<point x="26" y="511" type="line"/>
		</contour>
		<contour>
			<point x="10" y="447" type="line"/>
			<point x="94" y="428" type="line"/>
			<point x="238" y="428" type="line"/>
			<point x="324" y="447" type="line"/>
			<point x="324" y="511" type="line"/>
			<point x="10" y="511" type="line"/>
		</contour>
		<contour>
			<point x="409" y="447" type="line"/>
			<point x="492" y="431" type="line"/>
			<point x="518" y="431" type="line"/>
			<point x="602" y="447" type="line"/>
			<point x="602" y="511" type="line"/>
			<point x="409" y="511" type="line"/>
		</contour>
	</outline>
	<anchor name="aboveLC" x="332" y="546"/>
	<anchor name="belowLC" x="292" y="-23"/>
</glyph>
<glyph name="w" format="2">
	<unicode hex="0077"/>
	<advance width="916"/>
	<outline>
		<contour>
			<point x="220" y="0" type="line"/>
			<point x="384" y="0" type="line"/>
			<point x="468" y="292" type="line"/>
			<point x="484" y="292" type="line"/>
			<point x="560" y="0" type="line"/>
			<point x="700" y="0" type="line"/>
			<point x="876" y="516" type="line"/>
			<point x="772" y="516" type="line"/>
			<point x="692" y="156" type="line"/>
			<point x="660" y="156" type="line"/>
			<point x="576" y="516" type="line"/>
			<point x="456" y="516" type="line"/>
			<point x="360" y="156" type="line"/>
			<point x="328" y="156" type="line"/>
			<point x="256" y="516" type="line"/>
			<point x="44" y="516" type="line"/>
		</contour>
		<contour>
			<point x="20" y="444" type="line"/>
			<point x="124" y="428" type="line"/>
			<point x="224" y="428" type="line"/>
			<point x="328" y="444" type="line"/>
			<point x="328" y="516" type="line"/>
			<point x="20" y="516" type="line"/>
		</contour>
		<contour>
			<point x="372" y="444" type="line"/>
			<point x="480" y="428" type="line"/>
			<point x="560" y="428" type="line"/>
			<point x="656" y="444" type="line"/>
			<point x="656" y="516" type="line"/>
			<point x="372" y="516" type="line"/>
		</contour>
		<contour>
			<point x="700" y="444" type="line"/>
			<point x="784" y="428" type="line"/>
			<point x="812" y="428" type="line"/>
			<point x="896" y="444" type="line"/>
			<point x="896" y="516" type="line"/>
			<point x="700" y="516" type="line"/>
		</contour>
	</outline>
	<anchor name="aboveLC" x="451" y="546"/>
	<anchor name="belowLC" x="426" y="-23"/>
</glyph>
<glyph name="x" format="2">
	<unicode hex="0078"/>
	<advance width="640"/>
	<outline>
		<contour>
			<point x="20" y="0" type="line"/>
			<point x="236" y="0" type="line"/>
			<point x="236" y="76" type="line"/>
			<point x="164" y="76" type="line"/>
			<point x="120" y="76" type="line"/>
			<point x="20" y="76" type="line"/>
		</contour>
		<contour>
			<point x="20" y="8" type="line"/>
			<point x="136" y="8" type="line"/>
			<point x="256" y="208" type="line"/>
			<point x="317" y="208" type="line"/>
			<point x="264" y="308" type="line"/>
		</contour>
		<contour>
			<point x="300" y="0" type="line"/>
			<point x="620" y="0" type="line"/>
			<point x="620" y="76" type="line"/>
			<point x="516" y="76" type="line"/>
			<point x="380" y="76" type="line"/>
			<point x="300" y="76" type="line"/>
		</contour>
		<contour>
			<point x="380" y="240" type="line"/>
			<point x="604" y="500" type="line"/>
			<point x="496" y="500" type="line"/>
			<point x="381" y="323" type="line"/>
			<point x="331" y="323" type="line"/>
		</contour>
		<contour>
			<point x="408" y="0" type="line"/>
			<point x="620" y="0" type="line"/>
			<point x="376" y="304" type="line"/>
			<point x="240" y="516" type="line"/>
			<point x="28" y="516" type="line"/>
			<point x="252" y="240" type="line"/>
		</contour>
		<contour>
			<point x="28" y="444" type="line"/>
			<point x="128" y="428" type="line"/>
			<point x="256" y="428" type="line"/>
			<point x="344" y="444" type="line"/>
			<point x="344" y="516" type="line"/>
			<point x="28" y="516" type="line"/>
		</contour>
		<contour>
			<point x="396" y="444" type="line"/>
			<point x="476" y="428" type="line"/>
			<point x="504" y="428" type="line"/>
			<point x="604" y="444" type="line"/>
			<point x="604" y="516" type="line"/>
			<point x="396" y="516" type="line"/>
		</contour>
	</outline>
	<anchor name="aboveLC" x="344" y="552"/>
	<anchor name="belowLC" x="320" y="-32"/>
</glyph>
<glyph name="y" format="2">
	<unicode hex="0079"/>
	<advance width="664"/>
	<outline>
		<contour>
			<point x="168" y="-232" type="curve" smooth="yes"/>
			<point x="308" y="-232"/>
			<point x="391" y="-141"/>
			<point x="438" y="-12" type="curve" smooth="yes"/>
			<point x="630" y="516" type="line"/>
			<point x="530" y="516" type="line"/>
			<point x="418" y="100" type="line"/>
			<point x="370" y="-16" type="line" smooth="yes"/>
			<point x="342" y="-84"/>
			<point x="280" y="-140"/>
			<point x="252" y="-168" type="curve"/>
			<point x="196" y="-168" type="line"/>
			<point x="232" y="-188" type="line"/>
			<point x="208" y="-140" type="line" smooth="yes"/>
			<point x="192" y="-108"/>
			<point x="168" y="-72"/>
			<point x="108" y="-72" type="curve" smooth="yes"/>
			<point x="56" y="-72"/>
			<point x="24" y="-108"/>
			<point x="16" y="-152" type="curve"/>
			<point x="28" y="-192"/>
			<point x="76" y="-232"/>
		</contour>
		<contour>
			<point x="317" y="-146" type="line"/>
			<point x="458" y="112" type="line"/>
			<point x="390" y="112" type="line"/>
			<point x="294" y="516" type="line"/>
			<point x="48" y="516" type="line"/>
		</contour>
		<contour>
			<point x="20" y="444" type="line"/>
			<point x="120" y="428" type="line"/>
			<point x="290" y="428" type="line"/>
			<point x="386" y="444" type="line"/>
			<point x="386" y="516" type="line"/>
			<point x="20" y="516" type="line"/>
		</contour>
		<contour>
			<point x="438" y="444" type="line"/>
			<point x="534" y="428" type="line"/>
			<point x="554" y="428" type="line"/>
			<point x="654" y="444" type="line"/>
			<point x="654" y="516" type="line"/>
			<point x="438" y="516" type="line"/>
		</contour>
	</outline>
	<anchor name="aboveLC" x="400" y="536"/>
	<anchor name="belowLC" x="213" y="-240"/>
</glyph>
<glyph name="z" format="2">
	<unicode hex="007A"/>
	<advance width="515"/>
	<outline>
		<contour>
			<point x="22" y="0" type="line"/>
			<point x="489" y="0" type="line"/>
			<point x="499" y="177" type="line"/>
			<point x="399" y="177" type="line"/>
			<point x="361" y="21" type="line"/>
			<point x="398" y="50" type="line"/>
			<point x="220" y="50" type="line"/>
			<point x="235" y="24" type="line"/>
			<point x="490" y="469" type="line"/>
			<point x="490" y="511" type="line"/>
			<point x="36" y="511" type="line"/>
			<point x="28" y="350" type="line"/>
			<point x="127" y="345" type="line"/>
			<point x="163" y="491" type="line"/>
			<point x="126" y="462" type="line"/>
			<point x="304" y="462" type="line"/>
			<point x="289" y="488" type="line"/>
			<point x="22" y="43" type="line"/>
		</contour>
	</outline>
	<anchor name="aboveLC" x="274" y="546"/>
	<anchor name="belowLC" x="272" y="-23"/>
</glyph>
<glyph name="braceleft" format="2">
	<unicode hex="007B"/>
	<advance width="348"/>
	<outline>
		<contour>
			<point x="40" y="240" type="line"/>
			<point x="112" y="224"/>
			<point x="128" y="204"/>
			<point x="128" y="164" type="curve" smooth="yes"/>
			<point x="128" y="108"/>
			<point x="76" y="36"/>
			<point x="76" y="-36" type="curve" smooth="yes"/>
			<point x="76" y="-124"/>
			<point x="148" y="-160"/>
			<point x="284" y="-160" type="curve" smooth="yes"/>
			<point x="324" y="-160" type="line"/>
			<point x="324" y="-92" type="line"/>
			<point x="308" y="-88" type="line" smooth="yes"/>
			<point x="260" y="-76"/>
			<point x="244" y="-52"/>
			<point x="244" y="-12" type="curve" smooth="yes"/>
			<point x="244" y="36"/>
			<point x="264" y="84"/>
			<point x="264" y="140" type="curve" smooth="yes"/>
			<point x="264" y="216"/>
			<point x="208" y="264"/>
			<point x="72" y="272" type="curve"/>
			<point x="72" y="284" type="line"/>
			<point x="208" y="292"/>
			<point x="264" y="340"/>
			<point x="264" y="416" type="curve" smooth="yes"/>
			<point x="264" y="472"/>
			<point x="244" y="520"/>
			<point x="244" y="568" type="curve" smooth="yes"/>
			<point x="244" y="608"/>
			<point x="260" y="632"/>
			<point x="308" y="644" type="curve" smooth="yes"/>
			<point x="324" y="648" type="line"/>
			<point x="324" y="716" type="line"/>
			<point x="284" y="716" type="line" smooth="yes"/>
			<point x="148" y="716"/>
			<point x="76" y="680"/>
			<point x="76" y="592" type="curve" smooth="yes"/>
			<point x="76" y="520"/>
			<point x="128" y="448"/>
			<point x="128" y="392" type="curve" smooth="yes"/>
			<point x="128" y="352"/>
			<point x="112" y="332"/>
			<point x="40" y="316" type="curve"/>
		</contour>
	</outline>
</glyph>
<glyph name="asciitilde" format="2">
	<unicode hex="007E"/>
	<advance width="550"/>
	<outline>
		<contour>
			<point x="298" y="392" type="curve" smooth="yes"/>
			<point x="255" y="435"/>
			<point x="213" y="450"/>
			<point x="175" y="450" type="curve" smooth="yes"/>
			<point x="98" y="450"/>
			<point x="36" y="401"/>
			<point x="36" y="257" type="curve"/>
			<point x="123" y="249" type="line"/>
			<point x="127" y="323"/>
			<point x="145" y="346"/>
			<point x="172" y="346" type="curve" smooth="yes"/>
			<point x="193" y="346"/>
			<point x="209" y="338"/>
			<point x="249" y="298" type="curve" smooth="yes"/>
			<point x="293" y="254"/>
			<point x="331" y="240"/>
			<point x="374" y="240" type="curve" smooth="yes"/>
			<point x="447" y="240"/>
			<point x="514" y="286"/>
			<point x="514" y="433" type="curve"/>
			<point x="427" y="441" type="line"/>
			<point x="423" y="367"/>
			<point x="405" y="344"/>
			<point x="379" y="344" type="curve" smooth="yes"/>
			<point x="361" y="344"/>
			<point x="339" y="351"/>
		</contour>
	</outline>
</glyph>
<glyph name="cent" format="2">
	<unicode hex="00A2"/>
	<advance width="600"/>
	<outline>
		<contour>
			<point x="383" y="-45" type="line"/>
			<point x="383" y="650" type="line"/>
			<point x="313" y="650" type="line"/>
			<point x="313" y="-45" type="line"/>
		</contour>
		<contour>
			<point x="355" y="512" type="curve" smooth="yes"/>
			<point x="400" y="512"/>
			<point x="425" y="509"/>
			<point x="465" y="492" type="curve"/>
			<point x="403" y="535" type="line"/>
			<point x="417" y="450" type="line" smooth="yes"/>
			<point x="429" y="379"/>
			<point x="456" y="361"/>
			<point x="500" y="361" type="curve" smooth="yes"/>
			<point x="533" y="361"/>
			<point x="551" y="378"/>
			<point x="561" y="414" type="curve"/>
			<point x="556" y="502"/>
			<point x="475" y="566"/>
			<point x="358" y="566" type="curve" smooth="yes"/>
			<point x="164" y="566"/>
			<point x="50" y="465"/>
			<point x="50" y="305" type="curve" smooth="yes"/>
			<point x="50" y="145"/>
			<point x="172" y="46"/>
			<point x="342" y="46" type="curve" smooth="yes"/>
			<point x="439" y="46"/>
			<point x="514" y="92"/>
			<point x="554" y="163" type="curve"/>
			<point x="515" y="201" type="line"/>
			<point x="475" y="162"/>
			<point x="425" y="134"/>
			<point x="357" y="134" type="curve" smooth="yes"/>
			<point x="293" y="134"/>
			<point x="230" y="206"/>
			<point x="230" y="320" type="curve" smooth="yes"/>
			<point x="230" y="446"/>
			<point x="282" y="512"/>
		</contour>
	</outline>
</glyph>
<glyph name="sterling" format="2">
	<unicode hex="00A3"/>
	<advance width="600"/>
	<outline>
		<contour>
			<point x="76" y="280" type="line"/>
			<point x="448" y="280" type="line"/>
			<point x="448" y="344" type="line"/>
			<point x="76" y="344" type="line"/>
		</contour>
		<contour>
			<point x="68" y="0" type="line"/>
			<point x="528" y="0" type="line"/>
			<point x="528" y="128" type="line"/>
			<point x="174" y="116" type="line"/>
			<point x="174" y="140" type="line"/>
			<point x="248" y="160"/>
			<point x="284" y="196"/>
			<point x="284" y="264" type="curve" smooth="yes"/>
			<point x="284" y="328"/>
			<point x="260" y="384"/>
			<point x="260" y="464" type="curve" smooth="yes"/>
			<point x="260" y="544"/>
			<point x="292" y="584"/>
			<point x="364" y="584" type="curve" smooth="yes"/>
			<point x="389" y="584"/>
			<point x="417" y="581"/>
			<point x="460" y="568" type="curve"/>
			<point x="372" y="608" type="line"/>
			<point x="388" y="528" type="line" smooth="yes"/>
			<point x="402" y="460"/>
			<point x="428" y="444"/>
			<point x="466" y="444" type="curve" smooth="yes"/>
			<point x="508" y="444"/>
			<point x="524" y="472"/>
			<point x="532" y="504" type="curve"/>
			<point x="516" y="576"/>
			<point x="452" y="640"/>
			<point x="316" y="640" type="curve" smooth="yes"/>
			<point x="172" y="640"/>
			<point x="100" y="560"/>
			<point x="100" y="456" type="curve" smooth="yes"/>
			<point x="100" y="352"/>
			<point x="168" y="304"/>
			<point x="168" y="248" type="curve" smooth="yes"/>
			<point x="168" y="196"/>
			<point x="140" y="152"/>
			<point x="68" y="116" type="curve"/>
		</contour>
	</outline>
</glyph>
<glyph name="yen" format="2">
	<unicode hex="00A5"/>
	<advance width="600"/>
	<outline>
		<contour>
			<point x="120" y="0" type="line"/>
			<point x="488" y="0" type="line"/>
			<point x="488" y="72" type="line"/>
			<point x="356" y="72" type="line"/>
			<point x="252" y="72" type="line"/>
			<point x="120" y="72" type="line"/>
		</contour>
		<contour>
			<point x="204" y="0" type="line"/>
			<point x="404" y="0" type="line"/>
			<point x="388" y="312" type="line"/>
			<point x="220" y="312" type="line"/>
		</contour>
		<contour>
			<point x="216" y="268" type="line"/>
			<point x="392" y="268" type="line"/>
			<point x="560" y="652" type="line"/>
			<point x="468" y="652" type="line"/>
			<point x="360" y="336" type="line"/>
			<point x="344" y="336" type="line"/>
			<point x="256" y="652" type="line"/>
			<point x="40" y="652" type="line"/>
		</contour>
		<contour>
			<point x="20" y="580" type="line"/>
			<point x="88" y="580" type="line"/>
			<point x="260" y="580" type="line"/>
			<point x="332" y="580" type="line"/>
			<point x="332" y="652" type="line"/>
			<point x="20" y="652" type="line"/>
		</contour>
		<contour>
			<point x="392" y="580" type="line"/>
			<point x="460" y="580" type="line"/>
			<point x="508" y="580" type="line"/>
			<point x="580" y="580" type="line"/>
			<point x="580" y="652" type="line"/>
			<point x="392" y="652" type="line"/>
		</contour>
		<contour>
			<point x="88" y="138" type="line"/>
			<point x="520" y="138" type="line"/>
			<point x="520" y="202" type="line"/>
			<point x="88" y="202" type="line"/>
		</contour>
		<contour>
			<point x="88" y="268" type="line"/>
			<point x="520" y="268" type="line"/>
			<point x="520" y="332" type="line"/>
			<point x="88" y="332" type="line"/>
		</contour>
	</outline>
</glyph>
<glyph name="brokenbar" format="2">
	<unicode hex="00A6"/>
	<advance width="280"/>
	<outline>
		<contour>
			<point x="83" y="-250" type="line"/>
			<point x="197" y="-250" type="line"/>
			<point x="197" y="200" type="line"/>
			<point x="83" y="200" type="line"/>
		</contour>
		<contour>
			<point x="197" y="320" type="line"/>
			<point x="197" y="750" type="line"/>
			<point x="83" y="750" type="line"/>
			<point x="83" y="320" type="line"/>
		</contour>
	</outline>
</glyph>
<glyph name="section" format="2">
	<unicode hex="00A7"/>
	<advance width="560"/>
	<outline>
		<contour>
			<point x="284" y="668" type="curve" smooth="yes"/>
			<point x="164" y="668"/>
			<point x="68" y="612"/>
			<point x="68" y="508" type="curve" smooth="yes"/>
			<point x="68" y="424"/>
			<point x="140" y="368"/>
			<point x="272" y="332" type="curve" smooth="yes"/>
			<point x="376" y="304"/>
			<point x="408" y="272"/>
			<point x="408" y="232" type="curve" smooth="yes"/>
			<point x="408" y="208"/>
			<point x="396" y="184"/>
			<point x="384" y="172" type="curve"/>
			<point x="400" y="156" type="line"/>
			<point x="464" y="176"/>
			<point x="512" y="224"/>
			<point x="512" y="300" type="curve" smooth="yes"/>
			<point x="512" y="404"/>
			<point x="424" y="448"/>
			<point x="308" y="480" type="curve" smooth="yes"/>
			<point x="236" y="500"/>
			<point x="212" y="516"/>
			<point x="212" y="550" type="curve" smooth="yes"/>
			<point x="212" y="584"/>
			<point x="236" y="604"/>
			<point x="292" y="604" type="curve" smooth="yes"/>
			<point x="324" y="604"/>
			<point x="348" y="600"/>
			<point x="364" y="596" type="curve"/>
			<point x="308" y="624" type="line"/>
			<point x="328" y="568" type="line" smooth="yes"/>
			<point x="348" y="512"/>
			<point x="376" y="488"/>
			<point x="420" y="488" type="curve" smooth="yes"/>
			<point x="464" y="488"/>
			<point x="488" y="516"/>
			<point x="496" y="556" type="curve"/>
			<point x="480" y="620"/>
			<point x="404" y="668"/>
		</contour>
		<contour>
			<point x="264" y="-116" type="curve"/>
			<point x="388" y="-116"/>
			<point x="484" y="-56"/>
			<point x="484" y="52" type="curve" smooth="yes"/>
			<point x="484" y="140"/>
			<point x="412" y="200"/>
			<point x="280" y="236" type="curve" smooth="yes"/>
			<point x="176" y="264"/>
			<point x="144" y="296"/>
			<point x="144" y="336" type="curve" smooth="yes"/>
			<point x="144" y="360"/>
			<point x="156" y="384"/>
			<point x="168" y="396" type="curve"/>
			<point x="152" y="412" type="line"/>
			<point x="88" y="392"/>
			<point x="40" y="344"/>
			<point x="40" y="268" type="curve" smooth="yes"/>
			<point x="40" y="164"/>
			<point x="128" y="120"/>
			<point x="244" y="88" type="curve" smooth="yes"/>
			<point x="316" y="68"/>
			<point x="340" y="48"/>
			<point x="340" y="10" type="curve" smooth="yes"/>
			<point x="340" y="-28"/>
			<point x="316" y="-52"/>
			<point x="256" y="-52" type="curve" smooth="yes"/>
			<point x="220" y="-52"/>
			<point x="196" y="-48"/>
			<point x="180" y="-44" type="curve"/>
			<point x="236" y="-72" type="line"/>
			<point x="216" y="-16" type="line" smooth="yes"/>
			<point x="196" y="40"/>
			<point x="168" y="64"/>
			<point x="124" y="64" type="curve" smooth="yes"/>
			<point x="80" y="64"/>
			<point x="56" y="36"/>
			<point x="48" y="-4" type="curve"/>
			<point x="64" y="-68"/>
			<point x="140" y="-116"/>
		</contour>
	</outline>
</glyph>
<glyph name="copyright" format="2">
	<unicode hex="00A9"/>
	<advance width="740"/>
	<outline>
		<contour>
			<point x="371" y="-16" type="curve" smooth="yes"/>
			<point x="551" y="-16"/>
			<point x="711" y="117"/>
			<point x="711" y="326" type="curve" smooth="yes"/>
			<point x="711" y="536"/>
			<point x="551" y="668"/>
			<point x="371" y="668" type="curve" smooth="yes"/>
			<point x="191" y="668"/>
			<point x="30" y="536"/>
			<point x="30" y="326" type="curve" smooth="yes"/>
			<point x="30" y="117"/>
			<point x="191" y="-16"/>
		</contour>
		<contour>
			<point x="371" y="41" type="curve" smooth="yes"/>
			<point x="224" y="41"/>
			<point x="96" y="151"/>
			<point x="96" y="326" type="curve" smooth="yes"/>
			<point x="96" y="501"/>
			<point x="224" y="611"/>
			<point x="371" y="611" type="curve" smooth="yes"/>
			<point x="518" y="611"/>
			<point x="646" y="501"/>
			<point x="646" y="326" type="curve" smooth="yes"/>
			<point x="646" y="151"/>
			<point x="518" y="41"/>
		</contour>
		<contour>
			<point x="391" y="120" type="curve" smooth="yes"/>
			<point x="449" y="120"/>
			<point x="489" y="133"/>
			<point x="520" y="148" type="curve"/>
			<point x="522" y="262" type="line"/>
			<point x="461" y="262" type="line"/>
			<point x="451" y="150" type="line"/>
			<point x="485" y="195" type="line"/>
			<point x="463" y="187"/>
			<point x="438" y="182"/>
			<point x="413" y="182" type="curve" smooth="yes"/>
			<point x="353" y="182"/>
			<point x="302" y="231"/>
			<point x="302" y="327" type="curve" smooth="yes"/>
			<point x="302" y="423"/>
			<point x="357" y="474"/>
			<point x="419" y="474" type="curve" smooth="yes"/>
			<point x="442" y="474"/>
			<point x="458" y="469"/>
			<point x="481" y="460" type="curve"/>
			<point x="447" y="507" type="line"/>
			<point x="458" y="394" type="line"/>
			<point x="519" y="394" type="line"/>
			<point x="516" y="510" type="line"/>
			<point x="482" y="526"/>
			<point x="451" y="536"/>
			<point x="397" y="536" type="curve" smooth="yes"/>
			<point x="282" y="536"/>
			<point x="173" y="470"/>
			<point x="173" y="325" type="curve" smooth="yes"/>
			<point x="173" y="186"/>
			<point x="274" y="120"/>
		</contour>
	</outline>
</glyph>
<glyph name="two.sups" format="2">
	<unicode hex="00B2"/>
	<advance width="387"/>
	<outline>
		<contour>
			<point x="25" y="404" type="line"/>
			<point x="366" y="404" type="line"/>
			<point x="366" y="518" type="line"/>
			<point x="119" y="504" type="line"/>
			<point x="119" y="483" type="line"/>
			<point x="146" y="499"/>
			<point x="172" y="512"/>
			<point x="197" y="527" type="curve"/>
			<point x="308" y="595"/>
			<point x="368" y="643"/>
			<point x="368" y="712" type="curve" smooth="yes"/>
			<point x="368" y="775"/>
			<point x="307" y="829"/>
			<point x="189" y="829" type="curve" smooth="yes"/>
			<point x="94" y="829"/>
			<point x="28" y="789"/>
			<point x="16" y="704" type="curve"/>
			<point x="23" y="685"/>
			<point x="44" y="670"/>
			<point x="73" y="670" type="curve" smooth="yes"/>
			<point x="110" y="670"/>
			<point x="137" y="685"/>
			<point x="141" y="726" type="curve" smooth="yes"/>
			<point x="152" y="807" type="line"/>
			<point x="80" y="784" type="line"/>
			<point x="89" y="787"/>
			<point x="106" y="789"/>
			<point x="127" y="789" type="curve" smooth="yes"/>
			<point x="166" y="789"/>
			<point x="192" y="758"/>
			<point x="192" y="715" type="curve" smooth="yes"/>
			<point x="192" y="671"/>
			<point x="179" y="634"/>
			<point x="106" y="561" type="curve" smooth="yes"/>
			<point x="79" y="534"/>
			<point x="52" y="510"/>
			<point x="25" y="482" type="curve"/>
		</contour>
	</outline>
</glyph>
<glyph name="three.sups" format="2">
	<unicode hex="00B3"/>
	<advance width="415"/>
	<outline>
		<contour>
			<point x="133" y="653" type="line"/>
			<point x="133" y="603" type="line"/>
			<point x="166" y="603" type="line" smooth="yes"/>
			<point x="216" y="603"/>
			<point x="234" y="576"/>
			<point x="234" y="525" type="curve" smooth="yes"/>
			<point x="234" y="475"/>
			<point x="216" y="445"/>
			<point x="158" y="445" type="curve" smooth="yes"/>
			<point x="146" y="445"/>
			<point x="131" y="447"/>
			<point x="121" y="450" type="curve"/>
			<point x="147" y="414" type="line"/>
			<point x="136" y="489" type="line" smooth="yes"/>
			<point x="130" y="532"/>
			<point x="109" y="551"/>
			<point x="77" y="551" type="curve" smooth="yes"/>
			<point x="48" y="551"/>
			<point x="31" y="535"/>
			<point x="24" y="509" type="curve"/>
			<point x="40" y="443"/>
			<point x="84" y="396"/>
			<point x="200" y="396" type="curve"/>
			<point x="320" y="396"/>
			<point x="387" y="451"/>
			<point x="387" y="522" type="curve"/>
			<point x="387" y="590"/>
			<point x="344" y="619"/>
			<point x="216" y="621" type="curve"/>
			<point x="216" y="641" type="line"/>
			<point x="319" y="643"/>
			<point x="374" y="687"/>
			<point x="374" y="749" type="curve"/>
			<point x="374" y="808"/>
			<point x="327" y="852"/>
			<point x="207" y="852" type="curve" smooth="yes"/>
			<point x="113" y="852"/>
			<point x="61" y="810"/>
			<point x="48" y="751" type="curve"/>
			<point x="54" y="731"/>
			<point x="67" y="712"/>
			<point x="98" y="712" type="curve" smooth="yes"/>
			<point x="130" y="712"/>
			<point x="148" y="728"/>
			<point x="154" y="766" type="curve" smooth="yes"/>
			<point x="165" y="834" type="line"/>
			<point x="135" y="807" type="line"/>
			<point x="144" y="810"/>
			<point x="153" y="813"/>
			<point x="175" y="813" type="curve" smooth="yes"/>
			<point x="211" y="813"/>
			<point x="236" y="785"/>
			<point x="236" y="731" type="curve" smooth="yes"/>
			<point x="236" y="677"/>
			<point x="207" y="653"/>
			<point x="159" y="653" type="curve"/>
		</contour>
	</outline>
</glyph>
<glyph name="paragraph" format="2">
	<unicode hex="00B6"/>
	<advance width="688"/>
	<outline>
		<contour>
			<point x="312" y="100" type="curve"/>
			<point x="312" y="572" type="line"/>
			<point x="424" y="572" type="line"/>
			<point x="424" y="652" type="line"/>
			<point x="344" y="652" type="line" smooth="yes"/>
			<point x="124" y="652"/>
			<point x="20" y="548"/>
			<point x="20" y="376" type="curve" smooth="yes"/>
			<point x="20" y="204"/>
			<point x="132" y="100"/>
		</contour>
		<contour>
			<point x="408" y="-112" type="curve"/>
			<point x="568" y="-112" type="line"/>
			<point x="568" y="-8"/>
			<point x="568" y="96"/>
			<point x="568" y="200" type="curve" smooth="yes"/>
			<point x="568" y="340" type="line" smooth="yes"/>
			<point x="568" y="444"/>
			<point x="568" y="548"/>
			<point x="568" y="652" type="curve"/>
			<point x="408" y="652" type="line"/>
			<point x="408" y="200" type="line" smooth="yes"/>
			<point x="408" y="96"/>
			<point x="408" y="-8"/>
		</contour>
		<contour>
			<point x="520" y="572" type="line"/>
			<point x="536" y="572" type="line"/>
			<point x="648" y="572" type="line"/>
			<point x="648" y="652" type="line"/>
			<point x="520" y="652" type="line"/>
		</contour>
	</outline>
</glyph>
<glyph name="one.sups" format="2">
	<unicode hex="00B9"/>
	<advance width="325"/>
	<outline>
		<contour>
			<point x="32" y="790" type="line"/>
			<point x="32" y="730" type="line"/>
			<point x="74" y="736" type="line"/>
			<point x="74" y="404" type="line"/>
			<point x="258" y="404" type="line"/>
			<point x="258" y="843" type="line"/>
			<point x="205" y="843" type="line"/>
		</contour>
		<contour>
			<point x="219" y="463" type="line"/>
			<point x="112" y="463" type="line"/>
			<point x="32" y="463" type="line"/>
			<point x="32" y="404" type="line"/>
			<point x="293" y="404" type="line"/>
			<point x="293" y="463" type="line"/>
		</contour>
	</outline>
</glyph>
<glyph name="AE" format="2">
	<unicode hex="00C6"/>
	<advance width="956"/>
	<outline>
		<contour>
			<point x="412" y="0" type="line"/>
			<point x="628" y="0" type="line"/>
			<point x="628" y="284" type="line"/>
			<point x="628" y="368" type="line"/>
			<point x="628" y="652" type="line"/>
			<point x="412" y="652" type="line"/>
			<point x="412" y="284" type="line"/>
		</contour>
		<contour>
			<point x="28" y="0" type="line"/>
			<point x="256" y="0" type="line"/>
			<point x="256" y="80" type="line"/>
			<point x="156" y="80" type="line"/>
			<point x="132" y="80" type="line"/>
			<point x="28" y="80" type="line"/>
		</contour>
		<contour>
			<point x="720" y="228" type="line"/>
			<point x="800" y="228" type="line"/>
			<point x="800" y="436" type="line"/>
			<point x="720" y="436" type="line"/>
			<point x="696" y="348" type="line"/>
			<point x="696" y="316" type="line"/>
		</contour>
		<contour>
			<point x="804" y="480" type="line"/>
			<point x="888" y="480" type="line"/>
			<point x="880" y="652" type="line"/>
			<point x="548" y="652" type="line"/>
			<point x="548" y="576" type="line"/>
			<point x="764" y="576" type="line"/>
		</contour>
		<contour>
			<point x="548" y="0" type="line"/>
			<point x="900" y="0" type="line"/>
			<point x="908" y="180" type="line"/>
			<point x="824" y="180" type="line"/>
			<point x="783" y="76" type="line"/>
			<point x="548" y="76" type="line"/>
		</contour>
		<contour>
			<point x="224" y="572" type="line"/>
			<point x="444" y="572" type="line"/>
			<point x="460" y="572" type="line"/>
			<point x="460" y="652" type="line"/>
			<point x="224" y="652" type="line"/>
		</contour>
		<contour>
			<point x="344" y="0" type="line"/>
			<point x="460" y="0" type="line"/>
			<point x="460" y="80" type="line"/>
			<point x="444" y="80" type="line"/>
			<point x="344" y="80" type="line"/>
		</contour>
		<contour>
			<point x="64" y="0" type="line"/>
			<point x="156" y="0" type="line"/>
			<point x="420" y="652" type="line"/>
			<point x="336" y="652" type="line"/>
		</contour>
		<contour>
			<point x="196" y="188" type="line"/>
			<point x="508" y="188" type="line"/>
			<point x="508" y="260" type="line"/>
			<point x="196" y="260" type="line"/>
		</contour>
		<contour>
			<point x="516" y="292" type="line"/>
			<point x="748" y="292" type="line"/>
			<point x="748" y="372" type="line"/>
			<point x="516" y="372" type="line"/>
		</contour>
	</outline>
	<anchor name="aboveUC" x="520" y="684"/>
</glyph>
<glyph name="Idieresis" format="2">
	<unicode hex="00CF"/>
	<advance width="424"/>
	<outline>
		<contour>
			<point x="114" y="700" type="curve" smooth="yes"/>
			<point x="152" y="700"/>
			<point x="188" y="727"/>
			<point x="188" y="775" type="curve" smooth="yes"/>
			<point x="188" y="823"/>
			<point x="152" y="850"/>
			<point x="114" y="850" type="curve" smooth="yes"/>
			<point x="74" y="850"/>
			<point x="38" y="823"/>
			<point x="38" y="775" type="curve" smooth="yes"/>
			<point x="38" y="727"/>
			<point x="74" y="700"/>
		</contour>
		<contour>
			<point x="312" y="700" type="curve" smooth="yes"/>
			<point x="350" y="700"/>
			<point x="386" y="727"/>
			<point x="386" y="775" type="curve" smooth="yes"/>
			<point x="386" y="823"/>
			<point x="350" y="850"/>
			<point x="312" y="850" type="curve" smooth="yes"/>
			<point x="272" y="850"/>
			<point x="236" y="823"/>
			<point x="236" y="775" type="curve" smooth="yes"/>
			<point x="236" y="727"/>
			<point x="272" y="700"/>
		</contour>
		<component base="I"/>
	</outline>
</glyph>
<glyph name="multiply" format="2">
	<unicode hex="00D7"/>
	<advance width="600"/>
	<outline>
		<contour>
			<point x="463" y="79" type="line"/>
			<point x="543" y="159" type="line"/>
			<point x="137" y="565" type="line"/>
			<point x="57" y="485" type="line"/>
		</contour>
		<contour>
			<point x="542" y="486" type="line"/>
			<point x="464" y="564" type="line"/>
			<point x="58" y="158" type="line"/>
			<point x="136" y="80" type="line"/>
		</contour>
	</outline>
</glyph>
<glyph name="Oslash" format="2">
	<unicode hex="00D8"/>
	<advance width="800"/>
	<outline>
		<contour>
			<point x="756" y="620" type="line"/>
			<point x="708" y="668" type="line"/>
			<point x="44" y="32" type="line"/>
			<point x="92" y="-16" type="line"/>
		</contour>
		<component base="O"/>
	</outline>
</glyph>
<glyph name="Thorn" format="2">
	<unicode hex="00DE"/>
	<advance width="708"/>
	<outline>
		<contour>
			<point x="28" y="0" type="line"/>
			<point x="412" y="0" type="line"/>
			<point x="412" y="80" type="line"/>
			<point x="272" y="80" type="line"/>
			<point x="152" y="80" type="line"/>
			<point x="28" y="80" type="line"/>
		</contour>
		<contour>
			<point x="104" y="284" type="line"/>
			<point x="104" y="0" type="line"/>
			<point x="320" y="0" type="line"/>
			<point x="320" y="284" type="line"/>
			<point x="320" y="368" type="line"/>
			<point x="320" y="652" type="line"/>
			<point x="104" y="652" type="line"/>
			<point x="104" y="368" type="line"/>
		</contour>
		<contour>
			<point x="264" y="128" type="line"/>
			<point x="360" y="128" type="line" smooth="yes"/>
			<point x="582" y="128"/>
			<point x="680" y="204"/>
			<point x="680" y="332" type="curve" smooth="yes"/>
			<point x="680" y="458"/>
			<point x="582" y="524"/>
			<point x="360" y="524" type="curve" smooth="yes"/>
			<point x="280" y="524" type="line"/>
			<point x="280" y="448" type="line"/>
			<point x="352" y="448" type="line" smooth="yes"/>
			<point x="430" y="448"/>
			<point x="460" y="410"/>
			<point x="460" y="328" type="curve" smooth="yes"/>
			<point x="460" y="246"/>
			<point x="430" y="200"/>
			<point x="344" y="200" type="curve" smooth="yes"/>
			<point x="264" y="200" type="line"/>
		</contour>
		<contour>
			<point x="412" y="652" type="line"/>
			<point x="28" y="652" type="line"/>
			<point x="28" y="572" type="line"/>
			<point x="168" y="572" type="line"/>
			<point x="288" y="572" type="line"/>
			<point x="412" y="572" type="line"/>
		</contour>
	</outline>
</glyph>
<glyph name="germandbls" format="2">
	<unicode hex="00DF"/>
	<advance width="732"/>
	<outline>
		<contour>
			<point x="24" y="0" type="line"/>
			<point x="256" y="0" type="line"/>
			<point x="256" y="76" type="line"/>
			<point x="116" y="76" type="line"/>
			<point x="24" y="76" type="line"/>
		</contour>
		<contour>
			<point x="84" y="220" type="line"/>
			<point x="84" y="0" type="line"/>
			<point x="288" y="0" type="line"/>
			<point x="288" y="220" type="line"/>
			<point x="288" y="540" type="line" smooth="yes"/>
			<point x="288" y="588"/>
			<point x="300" y="620"/>
			<point x="316" y="636" type="curve" smooth="yes"/>
			<point x="332" y="652"/>
			<point x="356" y="664"/>
			<point x="392" y="664" type="curve" smooth="yes"/>
			<point x="452" y="664"/>
			<point x="484" y="624"/>
			<point x="484" y="572" type="curve" smooth="yes"/>
			<point x="484" y="520"/>
			<point x="468" y="484"/>
			<point x="420" y="444" type="curve" smooth="yes"/>
			<point x="372" y="404"/>
			<point x="340" y="372"/>
			<point x="340" y="320" type="curve" smooth="yes"/>
			<point x="340" y="256"/>
			<point x="384" y="224"/>
			<point x="468" y="188" type="curve" smooth="yes"/>
			<point x="524" y="164"/>
			<point x="540" y="148"/>
			<point x="540" y="116" type="curve" smooth="yes"/>
			<point x="540" y="84"/>
			<point x="516" y="60"/>
			<point x="468" y="60" type="curve" smooth="yes"/>
			<point x="428" y="60"/>
			<point x="380" y="68"/>
			<point x="356" y="76" type="curve"/>
			<point x="452" y="8" type="line"/>
			<point x="428" y="152" type="line"/>
			<point x="344" y="152" type="line"/>
			<point x="336" y="16" type="line"/>
			<point x="364" y="0"/>
			<point x="420" y="-12"/>
			<point x="476" y="-12" type="curve" smooth="yes"/>
			<point x="628" y="-12"/>
			<point x="704" y="60"/>
			<point x="704" y="164" type="curve" smooth="yes"/>
			<point x="704" y="244"/>
			<point x="640" y="300"/>
			<point x="560" y="340" type="curve" smooth="yes"/>
			<point x="504" y="368"/>
			<point x="496" y="384"/>
			<point x="496" y="402" type="curve" smooth="yes"/>
			<point x="496" y="420"/>
			<point x="504" y="436"/>
			<point x="552" y="464" type="curve" smooth="yes"/>
			<point x="600" y="492"/>
			<point x="648" y="520"/>
			<point x="648" y="592" type="curve" smooth="yes"/>
			<point x="648" y="672"/>
			<point x="572" y="732"/>
			<point x="404" y="732" type="curve" smooth="yes"/>
			<point x="340" y="732"/>
			<point x="272" y="720"/>
			<point x="220" y="692" type="curve" smooth="yes"/>
			<point x="132" y="644"/>
			<point x="84" y="564"/>
			<point x="84" y="420" type="curve" smooth="yes"/>
		</contour>
	</outline>
</glyph>
<glyph name="ae" format="2">
	<unicode hex="00E6"/>
	<advance width="876"/>
	<outline>
		<contour>
			<point x="188" y="-12" type="curve" smooth="yes"/>
			<point x="292" y="-12"/>
			<point x="328" y="36"/>
			<point x="364" y="80" type="curve"/>
			<point x="412" y="80" type="line"/>
			<point x="372" y="134" type="line"/>
			<point x="356" y="124"/>
			<point x="332" y="110"/>
			<point x="296" y="110" type="curve" smooth="yes"/>
			<point x="244" y="110"/>
			<point x="216" y="136"/>
			<point x="216" y="175" type="curve" smooth="yes"/>
			<point x="216" y="214"/>
			<point x="240" y="236"/>
			<point x="292" y="252" type="curve" smooth="yes"/>
			<point x="372" y="276" type="line"/>
			<point x="372" y="332" type="line"/>
			<point x="242" y="304" type="line" smooth="yes"/>
			<point x="92" y="272"/>
			<point x="28" y="220"/>
			<point x="28" y="124" type="curve" smooth="yes"/>
			<point x="28" y="44"/>
			<point x="88" y="-12"/>
		</contour>
		<contour>
			<point x="610" y="-12" type="curve" smooth="yes"/>
			<point x="744" y="-12"/>
			<point x="808" y="44"/>
			<point x="844" y="76" type="curve"/>
			<point x="804" y="144" type="line"/>
			<point x="776" y="124"/>
			<point x="736" y="100"/>
			<point x="678" y="100" type="curve" smooth="yes"/>
			<point x="592" y="100"/>
			<point x="536" y="156"/>
			<point x="536" y="276" type="curve" smooth="yes"/>
			<point x="536" y="396"/>
			<point x="564" y="456"/>
			<point x="616" y="456" type="curve" smooth="yes"/>
			<point x="656" y="456"/>
			<point x="676" y="424"/>
			<point x="676" y="368" type="curve" smooth="yes"/>
			<point x="676" y="344"/>
			<point x="674" y="328"/>
			<point x="670" y="304" type="curve"/>
			<point x="504" y="296" type="line"/>
			<point x="504" y="240" type="line"/>
			<point x="836" y="232" type="line"/>
			<point x="842" y="256"/>
			<point x="844" y="280"/>
			<point x="844" y="312" type="curve" smooth="yes"/>
			<point x="844" y="456"/>
			<point x="760" y="528"/>
			<point x="608" y="528" type="curve" smooth="yes"/>
			<point x="510" y="528"/>
			<point x="448" y="488"/>
			<point x="400" y="416" type="curve"/>
			<point x="488" y="416" type="line"/>
			<point x="456" y="488"/>
			<point x="412" y="528"/>
			<point x="296" y="528" type="curve" smooth="yes"/>
			<point x="168" y="528"/>
			<point x="72" y="468"/>
			<point x="48" y="372" type="curve"/>
			<point x="56" y="344"/>
			<point x="80" y="316"/>
			<point x="124" y="316" type="curve" smooth="yes"/>
			<point x="180" y="316"/>
			<point x="212" y="348"/>
			<point x="220" y="428" type="curve" smooth="yes"/>
			<point x="228" y="508" type="line"/>
			<point x="176" y="444" type="line"/>
			<point x="192" y="452"/>
			<point x="224" y="460"/>
			<point x="256" y="460" type="curve" smooth="yes"/>
			<point x="308" y="460"/>
			<point x="340" y="436"/>
			<point x="340" y="372" type="curve" smooth="yes"/>
			<point x="340" y="256" type="line" smooth="yes"/>
			<point x="340" y="84"/>
			<point x="452" y="-12"/>
		</contour>
	</outline>
	<anchor name="belowLC" x="420" y="-22"/>
</glyph>
<glyph name="idieresis" format="2">
	<unicode hex="00EF"/>
	<advance width="376"/>
	<outline>
		<contour>
			<point x="87" y="578" type="curve" smooth="yes"/>
			<point x="141" y="578"/>
			<point x="167" y="618"/>
			<point x="167" y="668" type="curve" smooth="yes"/>
			<point x="167" y="718"/>
			<point x="141" y="758"/>
			<point x="87" y="758" type="curve" smooth="yes"/>
			<point x="33" y="758"/>
			<point x="7" y="718"/>
			<point x="7" y="668" type="curve" smooth="yes"/>
			<point x="7" y="618"/>
			<point x="33" y="578"/>
		</contour>
		<contour>
			<point x="289" y="578" type="curve" smooth="yes"/>
			<point x="343" y="578"/>
			<point x="369" y="618"/>
			<point x="369" y="668" type="curve" smooth="yes"/>
			<point x="369" y="718"/>
			<point x="343" y="758"/>
			<point x="289" y="758" type="curve" smooth="yes"/>
			<point x="235" y="758"/>
			<point x="209" y="718"/>
			<point x="209" y="668" type="curve" smooth="yes"/>
			<point x="209" y="618"/>
			<point x="235" y="578"/>
		</contour>
		<component base="dotlessi"/>
	</outline>
</glyph>
<glyph name="divide" format="2">
	<unicode hex="00F7"/>
	<advance width="600"/>
	<outline>
		<contour>
			<point x="300" y="65" type="curve" smooth="yes"/>
			<point x="343" y="65"/>
			<point x="376" y="96"/>
			<point x="376" y="137" type="curve" smooth="yes"/>
			<point x="376" y="177"/>
			<point x="343" y="210"/>
			<point x="300" y="210" type="curve" smooth="yes"/>
			<point x="257" y="210"/>
			<point x="224" y="177"/>
			<point x="224" y="137" type="curve" smooth="yes"/>
			<point x="224" y="96"/>
			<point x="257" y="65"/>
		</contour>
		<contour>
			<point x="300" y="430" type="curve" smooth="yes"/>
			<point x="343" y="430"/>
			<point x="376" y="462"/>
			<point x="376" y="503" type="curve" smooth="yes"/>
			<point x="376" y="543"/>
			<point x="343" y="575"/>
			<point x="300" y="575" type="curve" smooth="yes"/>
			<point x="257" y="575"/>
			<point x="224" y="543"/>
			<point x="224" y="503" type="curve" smooth="yes"/>
			<point x="224" y="462"/>
			<point x="257" y="430"/>
		</contour>
		<component base="minus"/>
	</outline>
</glyph>
<glyph name="oslash" format="2">
	<unicode hex="00F8"/>
	<advance width="652"/>
	<outline>
		<contour>
			<point x="608" y="484" type="line"/>
			<point x="564" y="528" type="line"/>
			<point x="44" y="32" type="line"/>
			<point x="88" y="-12" type="line"/>
		</contour>
		<component base="o"/>
	</outline>
</glyph>
<glyph name="aogonek" format="2">
	<unicode hex="0105"/>
	<advance width="624"/>
	<outline>
		<contour>
			<point x="174" y="-16" type="curve" smooth="yes"/>
			<point x="260" y="-16"/>
			<point x="296" y="32"/>
			<point x="322" y="72" type="curve"/>
			<point x="372" y="72" type="line"/>
			<point x="372" y="121" type="line"/>
			<point x="348" y="114"/>
			<point x="321" y="110"/>
			<point x="296" y="110" type="curve" smooth="yes"/>
			<point x="244" y="110"/>
			<point x="216" y="133"/>
			<point x="216" y="172" type="curve" smooth="yes"/>
			<point x="216" y="199"/>
			<point x="228" y="227"/>
			<point x="269" y="239" type="curve" smooth="yes"/>
			<point x="307" y="250"/>
			<point x="345" y="258"/>
			<point x="372" y="266" type="curve"/>
			<point x="372" y="314" type="line"/>
			<point x="329" y="305"/>
			<point x="285" y="295"/>
			<point x="242" y="286" type="curve" smooth="yes"/>
			<point x="89" y="254"/>
			<point x="35" y="197"/>
			<point x="35" y="116" type="curve" smooth="yes"/>
			<point x="35" y="40"/>
			<point x="90" y="-16"/>
		</contour>
		<contour>
			<point x="476" y="-232" type="curve" smooth="yes"/>
			<point x="543" y="-232"/>
			<point x="579" y="-206"/>
			<point x="598" y="-191" type="curve"/>
			<point x="578" y="-127" type="line"/>
			<point x="569" y="-130"/>
			<point x="559" y="-132"/>
			<point x="540" y="-132" type="curve" smooth="yes"/>
			<point x="500" y="-132"/>
			<point x="476" y="-112"/>
			<point x="476" y="-78" type="curve" smooth="yes"/>
			<point x="476" y="-47"/>
			<point x="506" y="-37"/>
			<point x="552" y="-15" type="curve" smooth="yes"/>
			<point x="590" y="3"/>
			<point x="608" y="25"/>
			<point x="626" y="48" type="curve"/>
			<point x="614" y="110" type="line"/>
			<point x="600" y="109"/>
			<point x="586" y="108"/>
			<point x="571" y="108" type="curve" smooth="yes"/>
			<point x="554" y="108"/>
			<point x="544" y="118"/>
			<point x="544" y="136" type="curve" smooth="yes"/>
			<point x="544" y="344" type="line" smooth="yes"/>
			<point x="544" y="468"/>
			<point x="464" y="532"/>
			<point x="300" y="532" type="curve" smooth="yes"/>
			<point x="160" y="532"/>
			<point x="68" y="481"/>
			<point x="53" y="382" type="curve"/>
			<point x="64" y="337"/>
			<point x="90" y="316"/>
			<point x="137" y="316" type="curve" smooth="yes"/>
			<point x="180" y="316"/>
			<point x="220" y="348"/>
			<point x="220" y="428" type="curve" smooth="yes"/>
			<point x="220" y="508" type="line"/>
			<point x="176" y="448" type="line"/>
			<point x="192" y="456"/>
			<point x="224" y="464"/>
			<point x="256" y="464" type="curve" smooth="yes"/>
			<point x="308" y="464"/>
			<point x="340" y="440"/>
			<point x="340" y="376" type="curve" smooth="yes"/>
			<point x="340" y="88" type="line"/>
			<point x="352" y="88" type="line"/>
			<point x="368" y="48"/>
			<point x="404" y="8"/>
			<point x="468" y="0" type="curve"/>
			<point x="468" y="-10"/>
			<point x="468" y="-19"/>
			<point x="468" y="-29" type="curve"/>
			<point x="479" y="-16" type="line"/>
			<point x="396" y="-40"/>
			<point x="348" y="-62"/>
			<point x="348" y="-132" type="curve" smooth="yes"/>
			<point x="348" y="-192"/>
			<point x="392" y="-232"/>
		</contour>
	</outline>
	<anchor name="aboveLC" x="305" y="536"/>
</glyph>
<glyph name="dcroat" format="2">
	<unicode hex="0111"/>
	<advance width="680"/>
	<outline>
		<contour>
			<point x="284" y="548" type="line"/>
			<point x="664" y="548" type="line"/>
			<point x="664" y="612" type="line"/>
			<point x="284" y="612" type="line"/>
		</contour>
		<contour>
			<point x="244" y="252" type="curve" smooth="yes"/>
			<point x="244" y="350"/>
			<point x="276" y="392"/>
			<point x="336" y="392" type="curve" smooth="yes"/>
			<point x="373" y="392"/>
			<point x="406" y="379"/>
			<point x="428" y="360" type="curve"/>
			<point x="428" y="420" type="line"/>
			<point x="368" y="420" type="line"/>
			<point x="348" y="468"/>
			<point x="316" y="516"/>
			<point x="228" y="516" type="curve" smooth="yes"/>
			<point x="116" y="516"/>
			<point x="36" y="415"/>
			<point x="36" y="248" type="curve" smooth="yes"/>
			<point x="36" y="81"/>
			<point x="116" y="-16"/>
			<point x="228" y="-16" type="curve" smooth="yes"/>
			<point x="316" y="-16"/>
			<point x="347" y="43"/>
			<point x="368" y="93" type="curve"/>
			<point x="428" y="93" type="line"/>
			<point x="428" y="149" type="line"/>
			<point x="402" y="128"/>
			<point x="368" y="116"/>
			<point x="336" y="116" type="curve" smooth="yes"/>
			<point x="276" y="116"/>
			<point x="244" y="154"/>
		</contour>
		<contour>
			<point x="660" y="0" type="line"/>
			<point x="660" y="68" type="line"/>
			<point x="600" y="84" type="line"/>
			<point x="600" y="566" type="line"/>
			<point x="600" y="722" type="line"/>
			<point x="536" y="722" type="line"/>
			<point x="332" y="706" type="line"/>
			<point x="332" y="646" type="line"/>
			<point x="396" y="630" type="line"/>
			<point x="404" y="392" type="line"/>
			<point x="396" y="392" type="line"/>
			<point x="396" y="96" type="line"/>
			<point x="404" y="96" type="line"/>
			<point x="424" y="-8" type="line"/>
		</contour>
	</outline>
</glyph>
<glyph name="eogonek" format="2">
	<unicode hex="0119"/>
	<advance width="580"/>
	<outline>
		<contour>
			<point x="256" y="-192"/>
			<point x="304" y="-232"/>
			<point x="384" y="-232" type="curve" smooth="yes"/>
			<point x="456" y="-232"/>
			<point x="496" y="-204"/>
			<point x="516" y="-188" type="curve"/>
			<point x="496" y="-124" type="line"/>
			<point x="484" y="-128"/>
			<point x="472" y="-132"/>
			<point x="448" y="-132" type="curve" smooth="yes"/>
			<point x="408" y="-132"/>
			<point x="384" y="-112"/>
			<point x="384" y="-78" type="curve" smooth="yes"/>
			<point x="384" y="-42"/>
			<point x="422" y="-23"/>
			<point x="472" y="13" type="curve" smooth="yes"/>
			<point x="515" y="44"/>
			<point x="533" y="63"/>
			<point x="557" y="106" type="curve"/>
			<point x="504" y="146" type="line"/>
			<point x="474" y="112"/>
			<point x="440" y="96"/>
			<point x="386" y="96" type="curve" smooth="yes"/>
			<point x="301" y="96"/>
			<point x="240" y="155"/>
			<point x="240" y="285" type="curve" smooth="yes"/>
			<point x="240" y="419"/>
			<point x="265" y="465"/>
			<point x="313" y="465" type="curve" smooth="yes"/>
			<point x="354" y="465"/>
			<point x="376" y="427"/>
			<point x="376" y="379" type="curve" smooth="yes"/>
			<point x="376" y="349"/>
			<point x="375" y="327"/>
			<point x="371" y="296" type="curve"/>
			<point x="208" y="296" type="line"/>
			<point x="208" y="240" type="line"/>
			<point x="545" y="240" type="line"/>
			<point x="550" y="264"/>
			<point x="552" y="280"/>
			<point x="552" y="312" type="curve" smooth="yes"/>
			<point x="552" y="449"/>
			<point x="457" y="532"/>
			<point x="311" y="532" type="curve" smooth="yes"/>
			<point x="156" y="532"/>
			<point x="36" y="428"/>
			<point x="36" y="256" type="curve" smooth="yes"/>
			<point x="36" y="84"/>
			<point x="152" y="-16"/>
			<point x="302" y="-16" type="curve" smooth="yes"/>
			<point x="324" y="-16"/>
			<point x="334" y="-16"/>
			<point x="344" y="-15" type="curve"/>
			<point x="348" y="-32" type="line"/>
			<point x="304" y="-48"/>
			<point x="256" y="-68"/>
			<point x="256" y="-130" type="curve" smooth="yes"/>
		</contour>
	</outline>
	<anchor name="aboveLC" x="305" y="536"/>
	<anchor name="belowLC" x="324" y="-20"/>
</glyph>
<glyph name="Hbar" format="2">
	<unicode hex="0126"/>
	<advance width="840"/>
	<outline>
		<contour>
			<point x="28" y="444" type="line"/>
			<point x="812" y="444" type="line"/>
			<point x="812" y="516" type="line"/>
			<point x="28" y="516" type="line"/>
		</contour>
		<component base="H"/>
	</outline>
</glyph>
<glyph name="hbar" format="2">
	<unicode hex="0127"/>
	<advance width="712"/>
	<outline>
		<contour>
			<point x="20" y="552" type="line"/>
			<point x="400" y="552" type="line"/>
			<point x="400" y="616" type="line"/>
			<point x="20" y="616" type="line"/>
		</contour>
		<contour>
			<point x="24" y="0" type="line"/>
			<point x="332" y="0" type="line"/>
			<point x="332" y="76" type="line"/>
			<point x="240" y="76" type="line"/>
			<point x="132" y="76" type="line"/>
			<point x="24" y="76" type="line"/>
		</contour>
		<contour>
			<point x="84" y="0" type="line"/>
			<point x="288" y="0" type="line"/>
			<point x="288" y="220" type="line"/>
			<point x="288" y="576" type="line"/>
			<point x="288" y="732" type="line"/>
			<point x="224" y="732" type="line"/>
			<point x="20" y="716" type="line"/>
			<point x="20" y="656" type="line"/>
			<point x="84" y="640" type="line"/>
			<point x="84" y="220" type="line"/>
		</contour>
		<contour>
			<point x="384" y="0" type="line"/>
			<point x="692" y="0" type="line"/>
			<point x="692" y="76" type="line"/>
			<point x="584" y="76" type="line"/>
			<point x="476" y="76" type="line"/>
			<point x="384" y="76" type="line"/>
		</contour>
		<contour>
			<point x="428" y="0" type="line"/>
			<point x="632" y="0" type="line"/>
			<point x="632" y="221" type="line"/>
			<point x="632" y="352" type="line" smooth="yes"/>
			<point x="632" y="468"/>
			<point x="576" y="528"/>
			<point x="476" y="528" type="curve" smooth="yes"/>
			<point x="384" y="528"/>
			<point x="344" y="468"/>
			<point x="320" y="420" type="curve"/>
			<point x="256" y="420" type="line"/>
			<point x="256" y="348" type="line"/>
			<point x="296" y="376"/>
			<point x="328" y="388"/>
			<point x="364" y="388" type="curve" smooth="yes"/>
			<point x="408" y="388"/>
			<point x="428" y="368"/>
			<point x="428" y="320" type="curve" smooth="yes"/>
			<point x="428" y="221" type="line"/>
		</contour>
	</outline>
</glyph>
<glyph name="dotlessi" format="2">
	<unicode hex="0131"/>
	<advance width="376"/>
	<outline>
		<contour>
			<point x="88" y="0" type="line"/>
			<point x="292" y="0" type="line"/>
			<point x="292" y="220" type="line"/>
			<point x="292" y="372" type="line"/>
			<point x="292" y="516" type="line"/>
			<point x="228" y="516" type="line"/>
			<point x="24" y="456" type="line"/>
			<point x="24" y="384" type="line"/>
			<point x="88" y="384" type="line"/>
			<point x="88" y="276" type="line"/>
			<point x="88" y="220" type="line"/>
		</contour>
		<contour>
			<point x="28" y="0" type="line"/>
			<point x="352" y="0" type="line"/>
			<point x="352" y="76" type="line"/>
			<point x="244" y="76" type="line"/>
			<point x="136" y="76" type="line"/>
			<point x="28" y="76" type="line"/>
		</contour>
	</outline>
</glyph>
<glyph name="Lslash" format="2">
	<unicode hex="0141"/>
	<advance width="652"/>
	<outline>
		<contour>
			<point x="476" y="497" type="line"/>
			<point x="228" y="347" type="line"/>
			<point x="228" y="287" type="line"/>
			<point x="476" y="413" type="line"/>
		</contour>
		<contour>
			<point x="188" y="356" type="line"/>
			<point x="26" y="273" type="line"/>
			<point x="26" y="189" type="line"/>
			<point x="188" y="288" type="line"/>
		</contour>
		<component base="L"/>
	</outline>
</glyph>
<glyph name="lslash" format="2">
	<unicode hex="0142"/>
	<advance width="372"/>
	<outline>
		<contour>
			<point x="230" y="432" type="line"/>
			<point x="35" y="321" type="line"/>
			<point x="35" y="237" type="line"/>
			<point x="230" y="348" type="line"/>
		</contour>
		<contour>
			<point x="343" y="486" type="line"/>
			<point x="143" y="372" type="line"/>
			<point x="143" y="288" type="line"/>
			<point x="343" y="402" type="line"/>
		</contour>
		<component base="l"/>
	</outline>
</glyph>
<glyph name="Eng" format="2">
	<unicode hex="014A"/>
	<advance width="748"/>
	<outline>
		<contour>
			<point x="28" y="0" type="line"/>
			<point x="280" y="0" type="line"/>
			<point x="280" y="80" type="line"/>
			<point x="172" y="80" type="line"/>
			<point x="120" y="80" type="line"/>
			<point x="28" y="80" type="line"/>
		</contour>
		<contour>
			<point x="104" y="0" type="line"/>
			<point x="186" y="0" type="line"/>
			<point x="186" y="264" type="line"/>
			<point x="160" y="609" type="line"/>
			<point x="104" y="609" type="line"/>
		</contour>
		<contour>
			<point x="386" y="-154" type="curve" smooth="yes"/>
			<point x="470" y="-154"/>
			<point x="525" y="-122"/>
			<point x="571" y="-67" type="curve" smooth="yes"/>
			<point x="612" y="-18"/>
			<point x="648" y="30"/>
			<point x="648" y="206" type="curve" smooth="yes"/>
			<point x="648" y="652" type="line"/>
			<point x="568" y="652" type="line"/>
			<point x="568" y="417" type="line"/>
			<point x="591" y="152" type="line"/>
			<point x="593" y="14"/>
			<point x="531" y="-61"/>
			<point x="433" y="-108" type="curve"/>
			<point x="478" y="-98" type="line"/>
			<point x="400" y="-98" type="line"/>
			<point x="444" y="-114" type="line"/>
			<point x="423" y="-78" type="line" smooth="yes"/>
			<point x="392" y="-26"/>
			<point x="371" y="-13"/>
			<point x="326" y="-13" type="curve" smooth="yes"/>
			<point x="282" y="-13"/>
			<point x="256" y="-44"/>
			<point x="248" y="-83" type="curve"/>
			<point x="257" y="-132"/>
			<point x="307" y="-154"/>
		</contour>
		<contour>
			<point x="480" y="0" type="line"/>
			<point x="609" y="0" type="line"/>
			<point x="618" y="193" type="line"/>
			<point x="574" y="193" type="line"/>
			<point x="320" y="652" type="line"/>
			<point x="38" y="652" type="line"/>
			<point x="38" y="572" type="line"/>
			<point x="129" y="572" type="line"/>
			<point x="129" y="539" type="line"/>
			<point x="178" y="539" type="line"/>
		</contour>
		<contour>
			<point x="580" y="572" type="line"/>
			<point x="632" y="572" type="line"/>
			<point x="724" y="572" type="line"/>
			<point x="724" y="652" type="line"/>
			<point x="472" y="652" type="line"/>
			<point x="472" y="572" type="line"/>
		</contour>
	</outline>
</glyph>
<glyph name="oe" format="2">
	<unicode hex="0153"/>
	<advance width="940"/>
	<outline>
		<contour>
			<point x="310" y="-12" type="curve" smooth="yes"/>
			<point x="400" y="-12"/>
			<point x="500" y="24"/>
			<point x="536" y="176" type="curve"/>
			<point x="536" y="340" type="line"/>
			<point x="500" y="492"/>
			<point x="400" y="528"/>
			<point x="310" y="528" type="curve" smooth="yes"/>
			<point x="164" y="528"/>
			<point x="36" y="440"/>
			<point x="36" y="256" type="curve" smooth="yes"/>
			<point x="36" y="72"/>
			<point x="164" y="-12"/>
		</contour>
		<contour>
			<point x="326" y="64" type="curve" smooth="yes"/>
			<point x="276" y="64"/>
			<point x="246" y="112"/>
			<point x="246" y="260" type="curve" smooth="yes"/>
			<point x="246" y="408"/>
			<point x="276" y="452"/>
			<point x="326" y="452" type="curve" smooth="yes"/>
			<point x="376" y="452"/>
			<point x="406" y="404"/>
			<point x="406" y="256" type="curve" smooth="yes"/>
			<point x="406" y="104"/>
			<point x="376" y="64"/>
		</contour>
		<contour>
			<point x="472" y="176" type="line"/>
			<point x="508" y="24"/>
			<point x="592" y="-12"/>
			<point x="690" y="-12" type="curve" smooth="yes"/>
			<point x="816" y="-12"/>
			<point x="876" y="44"/>
			<point x="908" y="76" type="curve"/>
			<point x="868" y="144" type="line"/>
			<point x="840" y="124"/>
			<point x="800" y="100"/>
			<point x="742" y="100" type="curve" smooth="yes"/>
			<point x="656" y="100"/>
			<point x="600" y="156"/>
			<point x="600" y="276" type="curve" smooth="yes"/>
			<point x="600" y="396"/>
			<point x="628" y="456"/>
			<point x="680" y="456" type="curve" smooth="yes"/>
			<point x="720" y="456"/>
			<point x="740" y="424"/>
			<point x="740" y="368" type="curve" smooth="yes"/>
			<point x="740" y="344"/>
			<point x="738" y="328"/>
			<point x="734" y="304" type="curve"/>
			<point x="568" y="296" type="line"/>
			<point x="568" y="240" type="line"/>
			<point x="900" y="232" type="line"/>
			<point x="906" y="256"/>
			<point x="908" y="280"/>
			<point x="908" y="312" type="curve" smooth="yes"/>
			<point x="908" y="456"/>
			<point x="828" y="528"/>
			<point x="680" y="528" type="curve" smooth="yes"/>
			<point x="592" y="528"/>
			<point x="508" y="492"/>
			<point x="472" y="340" type="curve"/>
		</contour>
	</outline>
	<anchor name="aboveLC" x="441" y="520"/>
</glyph>
<glyph name="Tbar" format="2">
	<unicode hex="0166"/>
	<advance width="728"/>
	<outline>
		<contour>
			<point x="106" y="267" type="line"/>
			<point x="622" y="267" type="line"/>
			<point x="622" y="340" type="line"/>
			<point x="106" y="340" type="line"/>
		</contour>
		<component base="T"/>
	</outline>
</glyph>
<glyph name="Uogonek" format="2">
	<unicode hex="0172"/>
	<advance width="780"/>
	<outline>
		<contour>
			<point x="480" y="-232" type="curve" smooth="yes"/>
			<point x="556" y="-232"/>
			<point x="596" y="-204"/>
			<point x="616" y="-188" type="curve"/>
			<point x="596" y="-124" type="line"/>
			<point x="584" y="-128"/>
			<point x="572" y="-132"/>
			<point x="548" y="-132" type="curve" smooth="yes"/>
			<point x="508" y="-132"/>
			<point x="484" y="-112"/>
			<point x="484" y="-76" type="curve" smooth="yes"/>
			<point x="484" y="-40"/>
			<point x="504" y="-12"/>
			<point x="544" y="8" type="curve" smooth="yes"/>
			<point x="640" y="56"/>
			<point x="680" y="132"/>
			<point x="680" y="248" type="curve" smooth="yes"/>
			<point x="680" y="652" type="line"/>
			<point x="596" y="652" type="line"/>
			<point x="596" y="252" type="line" smooth="yes"/>
			<point x="596" y="124"/>
			<point x="544" y="76"/>
			<point x="456" y="76" type="curve" smooth="yes"/>
			<point x="368" y="76"/>
			<point x="316" y="124"/>
			<point x="316" y="252" type="curve" smooth="yes"/>
			<point x="316" y="368" type="line"/>
			<point x="316" y="652" type="line"/>
			<point x="100" y="652" type="line"/>
			<point x="100" y="368" type="line"/>
			<point x="100" y="248" type="line" smooth="yes"/>
			<point x="100" y="63"/>
			<point x="216" y="-10"/>
			<point x="376" y="-10" type="curve" smooth="yes"/>
			<point x="404" y="-10"/>
			<point x="428" y="-6"/>
			<point x="440" y="-2" type="curve"/>
			<point x="448" y="-24" type="line"/>
			<point x="412" y="-40"/>
			<point x="356" y="-68"/>
			<point x="356" y="-132" type="curve" smooth="yes"/>
			<point x="356" y="-192"/>
			<point x="400" y="-232"/>
		</contour>
		<contour>
			<point x="24" y="572" type="line"/>
			<point x="148" y="572" type="line"/>
			<point x="268" y="572" type="line"/>
			<point x="400" y="572" type="line"/>
			<point x="400" y="652" type="line"/>
			<point x="24" y="652" type="line"/>
		</contour>
		<contour>
			<point x="512" y="572" type="line"/>
			<point x="628" y="572" type="line"/>
			<point x="648" y="572" type="line"/>
			<point x="756" y="572" type="line"/>
			<point x="756" y="652" type="line"/>
			<point x="512" y="652" type="line"/>
		</contour>
	</outline>
	<anchor name="aboveUC" x="390" y="684"/>
	<anchor name="belowLC" x="390" y="-32"/>
	<anchor name="hornLC" x="617" y="722"/>
</glyph>
<glyph name="uogonek" format="2">
	<unicode hex="0173"/>
	<advance width="712"/>
	<outline>
		<contour>
			<point x="559" y="-232" type="curve" smooth="yes"/>
			<point x="626" y="-232"/>
			<point x="662" y="-206"/>
			<point x="681" y="-191" type="curve"/>
			<point x="661" y="-127" type="line"/>
			<point x="652" y="-130"/>
			<point x="642" y="-132"/>
			<point x="623" y="-132" type="curve" smooth="yes"/>
			<point x="583" y="-132"/>
			<point x="559" y="-112"/>
			<point x="559" y="-78" type="curve" smooth="yes"/>
			<point x="559" y="-42"/>
			<point x="581" y="-16"/>
			<point x="623" y="8" type="curve"/>
			<point x="547" y="8" type="line"/>
			<point x="547" y="-28" type="line"/>
			<point x="487" y="-36"/>
			<point x="431" y="-60"/>
			<point x="431" y="-132" type="curve" smooth="yes"/>
			<point x="431" y="-192"/>
			<point x="475" y="-232"/>
		</contour>
		<component base="u"/>
	</outline>
	<anchor name="aboveLC" x="357" y="536"/>
</glyph>
<glyph name="longs" format="2">
	<unicode hex="017F"/>
	<advance width="396"/>
	<outline>
		<contour>
			<point x="20" y="0" type="line"/>
			<point x="360" y="0" type="line"/>
			<point x="360" y="76" type="line"/>
			<point x="252" y="76" type="line"/>
			<point x="112" y="76" type="line"/>
			<point x="20" y="76" type="line"/>
		</contour>
		<contour>
			<point x="80" y="0" type="curve"/>
			<point x="284" y="0" type="line"/>
			<point x="284" y="73"/>
			<point x="284" y="147"/>
			<point x="284" y="220" type="curve" smooth="yes"/>
			<point x="284" y="476" type="line" smooth="yes"/>
			<point x="284" y="557"/>
			<point x="287" y="610"/>
			<point x="292" y="643" type="curve" smooth="yes"/>
			<point x="294" y="662"/>
			<point x="297" y="675"/>
			<point x="300" y="684" type="curve"/>
			<point x="360" y="684" type="line"/>
			<point x="360" y="696" type="line"/>
			<point x="336" y="696" type="line"/>
			<point x="356" y="644" type="line" smooth="yes"/>
			<point x="376" y="592"/>
			<point x="400" y="568"/>
			<point x="448" y="568" type="curve" smooth="yes"/>
			<point x="500" y="568"/>
			<point x="524" y="608"/>
			<point x="528" y="648" type="curve"/>
			<point x="512" y="688"/>
			<point x="456" y="732"/>
			<point x="344" y="732" type="curve" smooth="yes"/>
			<point x="272" y="732"/>
			<point x="220" y="708"/>
			<point x="184" y="684" type="curve" smooth="yes"/>
			<point x="148" y="660"/>
			<point x="80" y="604"/>
			<point x="80" y="428" type="curve" smooth="yes"/>
			<point x="80" y="220" type="line" smooth="yes"/>
			<point x="80" y="147"/>
			<point x="80" y="73"/>
		</contour>
	</outline>
</glyph>
<glyph name="Schwa" format="2">
	<unicode hex="018F"/>
	<advance width="712"/>
	<outline>
		<contour>
			<point x="44" y="284" type="curve" smooth="yes"/>
			<point x="44" y="76"/>
			<point x="172" y="-16"/>
			<point x="352" y="-16" type="curve" smooth="yes"/>
			<point x="532" y="-16"/>
			<point x="668" y="92"/>
			<point x="668" y="332" type="curve" smooth="yes"/>
			<point x="668" y="572"/>
			<point x="516" y="668"/>
			<point x="332" y="668" type="curve" smooth="yes"/>
			<point x="220" y="668"/>
			<point x="148" y="628"/>
			<point x="84" y="556" type="curve"/>
			<point x="128" y="504" type="line"/>
			<point x="164" y="540"/>
			<point x="204" y="572"/>
			<point x="276" y="572" type="curve" smooth="yes"/>
			<point x="388" y="572"/>
			<point x="444" y="508"/>
			<point x="444" y="320" type="curve" smooth="yes"/>
			<point x="444" y="132"/>
			<point x="412" y="64"/>
			<point x="352" y="64" type="curve" smooth="yes"/>
			<point x="292" y="64"/>
			<point x="260" y="124"/>
			<point x="260" y="228" type="curve" smooth="yes"/>
			<point x="260" y="252"/>
			<point x="262" y="276"/>
			<point x="266" y="292" type="curve"/>
			<point x="556" y="296" type="line"/>
			<point x="556" y="368" type="line"/>
			<point x="52" y="372" type="line"/>
			<point x="48" y="356"/>
			<point x="44" y="324"/>
		</contour>
	</outline>
	<anchor name="aboveUC" x="355" y="682"/>
	<anchor name="belowLC" x="365" y="-22"/>
</glyph>
<glyph name="florin" format="2">
	<unicode hex="0192"/>
	<advance width="600"/>
	<outline>
		<contour>
			<point x="135" y="336" type="line"/>
			<point x="495" y="336" type="line"/>
			<point x="495" y="396" type="line"/>
			<point x="135" y="396" type="line"/>
		</contour>
		<contour>
			<point x="389" y="366" type="line" smooth="yes"/>
			<point x="396" y="468"/>
			<point x="400" y="521"/>
			<point x="417" y="561" type="curve" smooth="yes"/>
			<point x="430" y="592"/>
			<point x="452" y="608"/>
			<point x="483" y="618" type="curve"/>
			<point x="432" y="614" type="line"/>
			<point x="451" y="542" type="line" smooth="yes"/>
			<point x="463" y="496"/>
			<point x="485" y="484"/>
			<point x="517" y="484" type="curve" smooth="yes"/>
			<point x="550" y="484"/>
			<point x="574" y="514"/>
			<point x="574" y="555" type="curve"/>
			<point x="558" y="605"/>
			<point x="512" y="640"/>
			<point x="433" y="640" type="curve" smooth="yes"/>
			<point x="385" y="640"/>
			<point x="339" y="625"/>
			<point x="307" y="593" type="curve" smooth="yes"/>
			<point x="256" y="542"/>
			<point x="233" y="477"/>
			<point x="225" y="360" type="curve" smooth="yes"/>
			<point x="215" y="211" type="line" smooth="yes"/>
			<point x="206" y="80"/>
			<point x="203" y="18"/>
			<point x="184" y="-27" type="curve" smooth="yes"/>
			<point x="171" y="-58"/>
			<point x="149" y="-74"/>
			<point x="118" y="-84" type="curve"/>
			<point x="169" y="-80" type="line"/>
			<point x="150" y="-8" type="line" smooth="yes"/>
			<point x="138" y="38"/>
			<point x="116" y="50"/>
			<point x="84" y="50" type="curve" smooth="yes"/>
			<point x="51" y="50"/>
			<point x="27" y="20"/>
			<point x="27" y="-21" type="curve"/>
			<point x="43" y="-71"/>
			<point x="89" y="-106"/>
			<point x="168" y="-106" type="curve" smooth="yes"/>
			<point x="215" y="-106"/>
			<point x="260" y="-92"/>
			<point x="300" y="-52" type="curve" smooth="yes"/>
			<point x="347" y="-5"/>
			<point x="370" y="73"/>
			<point x="380" y="227" type="curve" smooth="yes"/>
		</contour>
	</outline>
</glyph>
<glyph name="Uhorn" format="2">
	<unicode hex="01AF"/>
	<advance width="780"/>
	<outline>
		<contour>
			<point x="392" y="-16" type="curve" smooth="yes"/>
			<point x="584" y="-16"/>
			<point x="680" y="76"/>
			<point x="680" y="248" type="curve" smooth="yes"/>
			<point x="680" y="652" type="line"/>
			<point x="596" y="652" type="line"/>
			<point x="596" y="252" type="line" smooth="yes"/>
			<point x="596" y="124"/>
			<point x="544" y="72"/>
			<point x="456" y="72" type="curve" smooth="yes"/>
			<point x="368" y="72"/>
			<point x="316" y="124"/>
			<point x="316" y="252" type="curve" smooth="yes"/>
			<point x="316" y="368" type="line"/>
			<point x="316" y="652" type="line"/>
			<point x="100" y="652" type="line"/>
			<point x="100" y="368" type="line"/>
			<point x="100" y="248" type="line" smooth="yes"/>
			<point x="100" y="60"/>
			<point x="216" y="-16"/>
		</contour>
		<contour>
			<point x="656" y="580" type="line"/>
			<point x="740" y="592"/>
			<point x="780" y="648"/>
			<point x="780" y="736" type="curve" smooth="yes"/>
			<point x="780" y="768"/>
			<point x="776" y="792"/>
			<point x="768" y="816" type="curve"/>
			<point x="758" y="820"/>
			<point x="744" y="824"/>
			<point x="720" y="824" type="curve" smooth="yes"/>
			<point x="676" y="824"/>
			<point x="644" y="800"/>
			<point x="644" y="760" type="curve" smooth="yes"/>
			<point x="644" y="720"/>
			<point x="676" y="704"/>
			<point x="676" y="680" type="curve" smooth="yes"/>
			<point x="676" y="664"/>
			<point x="664" y="652"/>
			<point x="632" y="652" type="curve"/>
		</contour>
		<contour>
			<point x="24" y="572" type="line"/>
			<point x="148" y="572" type="line"/>
			<point x="268" y="572" type="line"/>
			<point x="400" y="572" type="line"/>
			<point x="400" y="652" type="line"/>
			<point x="24" y="652" type="line"/>
		</contour>
		<contour>
			<point x="512" y="572" type="line"/>
			<point x="612" y="572" type="line"/>
			<point x="628" y="572" type="line"/>
			<point x="628" y="652" type="line"/>
			<point x="512" y="652" type="line"/>
		</contour>
	</outline>
	<anchor name="aboveUC" x="390" y="684"/>
	<anchor name="belowLC" x="390" y="-32"/>
	<anchor name="aboveUC" x="390" y="684"/>
	<anchor name="belowLC" x="390" y="-32"/>
</glyph>
<glyph name="dotlessj" format="2">
	<unicode hex="0237"/>
	<advance width="348"/>
	<outline>
		<contour>
			<point x="40" y="-232" type="curve" smooth="yes"/>
			<point x="131" y="-232"/>
			<point x="184" y="-198"/>
			<point x="217" y="-150" type="curve" smooth="yes"/>
			<point x="253" y="-98"/>
			<point x="276" y="-35"/>
			<point x="276" y="96" type="curve" smooth="yes"/>
			<point x="276" y="372" type="line"/>
			<point x="276" y="516" type="line"/>
			<point x="212" y="516" type="line"/>
			<point x="8" y="456" type="line"/>
			<point x="8" y="384" type="line"/>
			<point x="72" y="384" type="line"/>
			<point x="72" y="348"/>
			<point x="72" y="312"/>
			<point x="72" y="276" type="curve" smooth="yes"/>
			<point x="72" y="172" type="line" smooth="yes"/>
			<point x="72" y="20"/>
			<point x="117" y="-57"/>
			<point x="117" y="-142" type="curve" smooth="yes"/>
			<point x="117" y="-158"/>
			<point x="117" y="-175"/>
			<point x="117" y="-191" type="curve"/>
			<point x="140" y="-172" type="line"/>
			<point x="60" y="-172" type="line"/>
			<point x="92" y="-188" type="line"/>
			<point x="84" y="-148" type="line" smooth="yes"/>
			<point x="74" y="-100"/>
			<point x="48" y="-68"/>
			<point x="-8" y="-68" type="curve" smooth="yes"/>
			<point x="-56" y="-68"/>
			<point x="-84" y="-97"/>
			<point x="-92" y="-152" type="curve"/>
			<point x="-77" y="-211"/>
			<point x="-39" y="-232"/>
		</contour>
	</outline>
	<anchor name="aboveLC" x="172" y="552"/>
</glyph>
<glyph name="schwa" format="2">
	<unicode hex="0259"/>
	<advance width="580"/>
	<outline>
		<contour>
			<point x="260" y="-12" type="curve" smooth="yes"/>
			<point x="429" y="-12"/>
			<point x="549" y="88"/>
			<point x="549" y="252" type="curve" smooth="yes"/>
			<point x="549" y="432"/>
			<point x="433" y="528"/>
			<point x="271" y="528" type="curve" smooth="yes"/>
			<point x="137" y="528"/>
			<point x="73" y="472"/>
			<point x="37" y="440" type="curve"/>
			<point x="77" y="372" type="line"/>
			<point x="109" y="395"/>
			<point x="153" y="421"/>
			<point x="218" y="421" type="curve" smooth="yes"/>
			<point x="301" y="421"/>
			<point x="355" y="369"/>
			<point x="355" y="241" type="curve" smooth="yes"/>
			<point x="355" y="87"/>
			<point x="328" y="55"/>
			<point x="281" y="55" type="curve" smooth="yes"/>
			<point x="235" y="55"/>
			<point x="212" y="86"/>
			<point x="212" y="159" type="curve" smooth="yes"/>
			<point x="212" y="182"/>
			<point x="215" y="201"/>
			<point x="219" y="223" type="curve"/>
			<point x="387" y="223" type="line"/>
			<point x="387" y="279" type="line"/>
			<point x="41" y="279" type="line"/>
			<point x="36" y="257"/>
			<point x="33" y="232"/>
			<point x="33" y="205" type="curve" smooth="yes"/>
			<point x="33" y="54"/>
			<point x="123" y="-12"/>
		</contour>
	</outline>
	<anchor name="aboveLC" x="290" y="552"/>
	<anchor name="belowLC" x="290" y="-32"/>
</glyph>
<glyph name="gscript" format="2">
	<unicode hex="0261"/>
	<advance width="680"/>
	<outline>
		<contour>
			<point x="304" y="-232" type="curve"/>
			<point x="367" y="-232"/>
			<point x="430" y="-220"/>
			<point x="480" y="-194" type="curve" smooth="yes"/>
			<point x="557" y="-153"/>
			<point x="600" y="-79"/>
			<point x="600" y="36" type="curve" smooth="yes"/>
			<point x="600" y="384" type="line"/>
			<point x="600" y="524" type="line"/>
			<point x="516" y="524" type="line"/>
			<point x="404" y="416" type="line"/>
			<point x="396" y="416" type="line"/>
			<point x="396" y="128" type="line"/>
			<point x="404" y="128" type="line"/>
			<point x="400" y="-4" type="line" smooth="yes"/>
			<point x="398" y="-73"/>
			<point x="385" y="-113"/>
			<point x="358" y="-135" type="curve" smooth="yes"/>
			<point x="337" y="-154"/>
			<point x="307" y="-162"/>
			<point x="268" y="-162" type="curve" smooth="yes"/>
			<point x="236" y="-162"/>
			<point x="200" y="-158"/>
			<point x="176" y="-154" type="curve"/>
			<point x="236" y="-180" type="line"/>
			<point x="228" y="-132" type="line" smooth="yes"/>
			<point x="216" y="-60"/>
			<point x="184" y="-28"/>
			<point x="128" y="-28" type="curve"/>
			<point x="80" y="-28"/>
			<point x="56" y="-56"/>
			<point x="48" y="-84" type="curve"/>
			<point x="72" y="-168"/>
			<point x="164" y="-232"/>
		</contour>
		<contour>
			<point x="228" y="16" type="curve" smooth="yes"/>
			<point x="316" y="16"/>
			<point x="348" y="72"/>
			<point x="368" y="120" type="curve"/>
			<point x="428" y="120" type="line"/>
			<point x="428" y="212" type="line"/>
			<point x="412" y="180"/>
			<point x="380" y="148"/>
			<point x="336" y="148" type="curve" smooth="yes"/>
			<point x="276" y="148"/>
			<point x="244" y="188"/>
			<point x="244" y="276" type="curve" smooth="yes"/>
			<point x="244" y="365"/>
			<point x="276" y="404"/>
			<point x="336" y="404" type="curve" smooth="yes"/>
			<point x="380" y="404"/>
			<point x="412" y="380"/>
			<point x="428" y="340" type="curve"/>
			<point x="428" y="432" type="line"/>
			<point x="384" y="432" type="line"/>
			<point x="364" y="480"/>
			<point x="324" y="528"/>
			<point x="236" y="528" type="curve" smooth="yes"/>
			<point x="116" y="528"/>
			<point x="36" y="428"/>
			<point x="36" y="272" type="curve" smooth="yes"/>
			<point x="36" y="116"/>
			<point x="116" y="16"/>
		</contour>
	</outline>
	<anchor name="aboveLC" x="340" y="552"/>
	<anchor name="belowLC" x="304" y="-232"/>
</glyph>
<glyph name="h.sups" format="2">
	<unicode hex="02B0"/>
	<advance width="512"/>
	<outline>
		<contour>
			<point x="25" y="404" type="line"/>
			<point x="239" y="404" type="line"/>
			<point x="239" y="457" type="line"/>
			<point x="175" y="457" type="line"/>
			<point x="100" y="457" type="line"/>
			<point x="25" y="457" type="line"/>
		</contour>
		<contour>
			<point x="67" y="404" type="curve"/>
			<point x="209" y="404" type="line"/>
			<point x="209" y="453"/>
			<point x="209" y="503"/>
			<point x="209" y="553" type="curve" smooth="yes"/>
			<point x="209" y="673" type="line"/>
			<point x="207" y="673" type="line"/>
			<point x="209" y="784" type="line"/>
			<point x="209" y="883" type="line"/>
			<point x="164" y="883" type="line"/>
			<point x="22" y="858" type="line"/>
			<point x="22" y="817" type="line"/>
			<point x="67" y="803" type="line"/>
			<point x="67" y="553" type="line" smooth="yes"/>
			<point x="67" y="503"/>
			<point x="67" y="453"/>
		</contour>
		<contour>
			<point x="276" y="404" type="line"/>
			<point x="490" y="404" type="line"/>
			<point x="490" y="457" type="line"/>
			<point x="415" y="457" type="line"/>
			<point x="340" y="457" type="line"/>
			<point x="276" y="457" type="line"/>
		</contour>
		<contour>
			<point x="306" y="404" type="curve"/>
			<point x="449" y="404" type="line"/>
			<point x="449" y="454"/>
			<point x="449" y="503"/>
			<point x="449" y="554" type="curve" smooth="yes"/>
			<point x="449" y="642" type="line" smooth="yes"/>
			<point x="449" y="721"/>
			<point x="409" y="765"/>
			<point x="340" y="765" type="curve" smooth="yes"/>
			<point x="276" y="765"/>
			<point x="248" y="720"/>
			<point x="231" y="688" type="curve"/>
			<point x="186" y="688" type="line"/>
			<point x="186" y="638" type="line"/>
			<point x="214" y="656"/>
			<point x="237" y="663"/>
			<point x="262" y="663" type="curve" smooth="yes"/>
			<point x="292" y="663"/>
			<point x="306" y="651"/>
			<point x="306" y="620" type="curve" smooth="yes"/>
			<point x="306" y="554" type="line" smooth="yes"/>
			<point x="306" y="503"/>
			<point x="306" y="454"/>
		</contour>
	</outline>
</glyph>
<glyph name="j.sups" format="2">
	<unicode hex="02B2"/>
	<advance width="245"/>
	<outline>
		<contour>
			<point x="5" y="243" type="curve" smooth="yes"/>
			<point x="79" y="243"/>
			<point x="121" y="272"/>
			<point x="152" y="302" type="curve" smooth="yes"/>
			<point x="183" y="333"/>
			<point x="210" y="377"/>
			<point x="210" y="466" type="curve" smooth="yes"/>
			<point x="210" y="758" type="line"/>
			<point x="158" y="758" type="line"/>
			<point x="-4" y="712" type="line"/>
			<point x="-4" y="657" type="line"/>
			<point x="35" y="657" type="line"/>
			<point x="35" y="466" type="line" smooth="yes"/>
			<point x="35" y="382"/>
			<point x="76" y="346"/>
			<point x="78" y="307" type="curve" smooth="yes"/>
			<point x="79" y="303"/>
			<point x="79" y="290"/>
			<point x="78" y="289" type="curve"/>
			<point x="30" y="289" type="line"/>
			<point x="51" y="279" type="line"/>
			<point x="40" y="314" type="line" smooth="yes"/>
			<point x="25" y="354"/>
			<point x="-4" y="372"/>
			<point x="-40" y="372" type="curve" smooth="yes"/>
			<point x="-80" y="372"/>
			<point x="-110" y="344"/>
			<point x="-115" y="306" type="curve"/>
			<point x="-102" y="277"/>
			<point x="-63" y="243"/>
		</contour>
		<contour>
			<point x="124" y="779" type="curve" smooth="yes"/>
			<point x="177" y="779"/>
			<point x="211" y="810"/>
			<point x="211" y="857" type="curve" smooth="yes"/>
			<point x="211" y="903"/>
			<point x="177" y="935"/>
			<point x="124" y="935" type="curve" smooth="yes"/>
			<point x="72" y="935"/>
			<point x="37" y="903"/>
			<point x="37" y="857" type="curve" smooth="yes"/>
			<point x="37" y="810"/>
			<point x="72" y="779"/>
		</contour>
	</outline>
</glyph>
<glyph name="r.sups" format="2">
	<unicode hex="02B3"/>
	<advance width="396"/>
	<outline>
		<contour>
			<point x="28" y="404" type="line"/>
			<point x="267" y="404" type="line"/>
			<point x="267" y="457" type="line"/>
			<point x="178" y="457" type="line"/>
			<point x="103" y="457" type="line"/>
			<point x="28" y="457" type="line"/>
		</contour>
		<contour>
			<point x="69" y="404" type="curve"/>
			<point x="212" y="404" type="line"/>
			<point x="212" y="453"/>
			<point x="212" y="503"/>
			<point x="212" y="553" type="curve" smooth="yes"/>
			<point x="212" y="668" type="line"/>
			<point x="199" y="668" type="line"/>
			<point x="189" y="754" type="line"/>
			<point x="150" y="754" type="line"/>
			<point x="25" y="712" type="line"/>
			<point x="25" y="662" type="line"/>
			<point x="69" y="662" type="line"/>
			<point x="69" y="638"/>
			<point x="69" y="614"/>
			<point x="69" y="591" type="curve" smooth="yes"/>
			<point x="69" y="553" type="line" smooth="yes"/>
			<point x="69" y="503"/>
			<point x="69" y="453"/>
		</contour>
		<contour>
			<point x="189" y="590" type="line"/>
			<point x="205" y="636"/>
			<point x="238" y="663"/>
			<point x="287" y="672" type="curve"/>
			<point x="246" y="672" type="line"/>
			<point x="249" y="669" type="line" smooth="yes"/>
			<point x="265" y="645"/>
			<point x="286" y="634"/>
			<point x="312" y="634" type="curve" smooth="yes"/>
			<point x="348" y="634"/>
			<point x="375" y="660"/>
			<point x="380" y="700" type="curve"/>
			<point x="373" y="740"/>
			<point x="348" y="761"/>
			<point x="311" y="761" type="curve" smooth="yes"/>
			<point x="266" y="761"/>
			<point x="240" y="740"/>
			<point x="224" y="674" type="curve"/>
			<point x="189" y="674" type="line"/>
		</contour>
	</outline>
</glyph>
<glyph name="w.sups" format="2">
	<unicode hex="02B7"/>
	<advance width="533"/>
	<outline>
		<contour>
			<point x="476" y="681" type="line"/>
			<point x="532" y="690" type="line"/>
			<point x="532" y="719" type="line"/>
			<point x="407" y="719" type="line"/>
			<point x="407" y="690" type="line"/>
			<point x="465" y="681" type="line"/>
		</contour>
		<contour>
			<point x="99" y="681" type="line"/>
			<point x="176" y="690" type="line"/>
			<point x="176" y="719" type="line"/>
			<point x="-5" y="719" type="line"/>
			<point x="-5" y="690" type="line"/>
			<point x="63" y="681" type="line"/>
		</contour>
		<contour>
			<point x="279" y="681" type="line"/>
			<point x="308" y="681" type="line"/>
			<point x="373" y="690" type="line"/>
			<point x="373" y="719" type="line"/>
			<point x="208" y="719" type="line"/>
			<point x="208" y="690" type="line"/>
		</contour>
		<contour>
			<point x="276" y="655" type="line"/>
			<point x="245" y="637" type="line"/>
			<point x="336" y="404" type="line"/>
			<point x="388" y="404" type="line"/>
			<point x="504" y="719" type="line"/>
			<point x="456" y="719" type="line"/>
			<point x="383" y="496" type="line"/>
			<point x="401" y="490" type="line"/>
			<point x="326" y="719" type="line"/>
			<point x="258" y="719" type="line"/>
			<point x="182" y="496" type="line"/>
			<point x="198" y="490" type="line"/>
			<point x="127" y="719" type="line"/>
			<point x="14" y="719" type="line"/>
			<point x="132" y="404" type="line"/>
			<point x="184" y="404" type="line"/>
		</contour>
	</outline>
</glyph>
<glyph name="y.sups" format="2">
	<unicode hex="02B8"/>
	<advance width="467"/>
	<outline>
		<contour>
			<point x="117" y="247" type="curve" smooth="yes"/>
			<point x="220" y="247"/>
			<point x="265" y="317"/>
			<point x="295" y="396" type="curve" smooth="yes"/>
			<point x="429" y="754" type="line"/>
			<point x="359" y="754" type="line"/>
			<point x="281" y="475" type="line"/>
			<point x="248" y="394" type="line" smooth="yes"/>
			<point x="228" y="349"/>
			<point x="203" y="310"/>
			<point x="184" y="292" type="curve"/>
			<point x="145" y="292" type="line"/>
			<point x="170" y="277" type="line"/>
			<point x="153" y="311" type="line" smooth="yes"/>
			<point x="142" y="334"/>
			<point x="125" y="359"/>
			<point x="83" y="359" type="curve" smooth="yes"/>
			<point x="47" y="359"/>
			<point x="25" y="334"/>
			<point x="19" y="303" type="curve"/>
			<point x="28" y="275"/>
			<point x="61" y="247"/>
		</contour>
		<contour>
			<point x="217" y="326" type="line"/>
			<point x="309" y="484" type="line"/>
			<point x="262" y="484" type="line"/>
			<point x="195" y="754" type="line"/>
			<point x="41" y="754" type="line"/>
		</contour>
		<contour>
			<point x="22" y="704" type="line"/>
			<point x="92" y="693" type="line"/>
			<point x="192" y="693" type="line"/>
			<point x="259" y="704" type="line"/>
			<point x="259" y="754" type="line"/>
			<point x="22" y="754" type="line"/>
		</contour>
		<contour>
			<point x="295" y="704" type="line"/>
			<point x="362" y="693" type="line"/>
			<point x="376" y="693" type="line"/>
			<point x="446" y="704" type="line"/>
			<point x="446" y="754" type="line"/>
			<point x="295" y="754" type="line"/>
		</contour>
	</outline>
</glyph>
<glyph name="verticallinemod" format="2">
	<unicode hex="02C8"/>
	<advance width="256"/>
	<outline>
		<contour>
			<point x="72" y="508" type="line"/>
			<point x="184" y="508" type="line"/>
			<point x="200" y="712" type="line"/>
			<point x="56" y="712" type="line"/>
		</contour>
	</outline>
</glyph>
<glyph name="colontriangularmod" format="2">
	<unicode hex="02D0"/>
	<advance width="300"/>
	<outline>
		<contour>
			<point x="40" y="489" type="line"/>
			<point x="142" y="312" type="line"/>
			<point x="158" y="312" type="line"/>
			<point x="260" y="489" type="line"/>
			<point x="252" y="503" type="line"/>
			<point x="48" y="503" type="line"/>
		</contour>
		<contour>
			<point x="40" y="14" type="line"/>
			<point x="48" y="0" type="line"/>
			<point x="252" y="0" type="line"/>
			<point x="260" y="14" type="line"/>
			<point x="158" y="191" type="line"/>
			<point x="142" y="191" type="line"/>
		</contour>
	</outline>
</glyph>
<glyph name="l.sups" format="2">
	<unicode hex="02E1"/>
	<advance width="259"/>
	<outline>
		<contour>
			<point x="6" y="404" type="line"/>
			<point x="253" y="404" type="line"/>
			<point x="253" y="460" type="line"/>
			<point x="179" y="460" type="line"/>
			<point x="81" y="460" type="line"/>
			<point x="6" y="460" type="line"/>
		</contour>
		<contour>
			<point x="42" y="404" type="line"/>
			<point x="217" y="404" type="line"/>
			<point x="217" y="554" type="line"/>
			<point x="217" y="783" type="line"/>
			<point x="217" y="890" type="line"/>
			<point x="165" y="890" type="line"/>
			<point x="5" y="862" type="line"/>
			<point x="5" y="818" type="line"/>
			<point x="42" y="804" type="line"/>
			<point x="42" y="554" type="line"/>
		</contour>
	</outline>
</glyph>
<glyph name="s.sups" format="2">
	<unicode hex="02E2"/>
	<advance width="376"/>
	<outline>
		<contour>
			<point x="164" y="396" type="curve" smooth="yes"/>
			<point x="282" y="396"/>
			<point x="359" y="443"/>
			<point x="359" y="525" type="curve" smooth="yes"/>
			<point x="359" y="598"/>
			<point x="305" y="629"/>
			<point x="246" y="646" type="curve" smooth="yes"/>
			<point x="226" y="652" type="line" smooth="yes"/>
			<point x="181" y="665"/>
			<point x="165" y="673"/>
			<point x="165" y="691" type="curve" smooth="yes"/>
			<point x="165" y="708"/>
			<point x="179" y="716"/>
			<point x="210" y="716" type="curve" smooth="yes"/>
			<point x="229" y="716"/>
			<point x="257" y="711"/>
			<point x="272" y="708" type="curve"/>
			<point x="221" y="754" type="line"/>
			<point x="270" y="664" type="line"/>
			<point x="335" y="664" type="line"/>
			<point x="335" y="745" type="line"/>
			<point x="294" y="759"/>
			<point x="248" y="766"/>
			<point x="202" y="766" type="curve" smooth="yes"/>
			<point x="86" y="766"/>
			<point x="17" y="717"/>
			<point x="17" y="638" type="curve" smooth="yes"/>
			<point x="17" y="564"/>
			<point x="75" y="537"/>
			<point x="127" y="519" type="curve" smooth="yes"/>
			<point x="147" y="513" type="line" smooth="yes"/>
			<point x="192" y="500"/>
			<point x="208" y="491"/>
			<point x="208" y="474" type="curve" smooth="yes"/>
			<point x="208" y="457"/>
			<point x="192" y="446"/>
			<point x="156" y="446" type="curve" smooth="yes"/>
			<point x="126" y="446"/>
			<point x="102" y="453"/>
			<point x="83" y="460" type="curve"/>
			<point x="135" y="423" type="line"/>
			<point x="83" y="504" type="line"/>
			<point x="18" y="504" type="line"/>
			<point x="21" y="418" type="line"/>
			<point x="49" y="407"/>
			<point x="107" y="396"/>
		</contour>
	</outline>
</glyph>
<glyph name="x.sups" format="2">
	<unicode hex="02E3"/>
	<advance width="462"/>
	<outline>
		<contour>
			<point x="22" y="404" type="line"/>
			<point x="172" y="404" type="line"/>
			<point x="172" y="457" type="line"/>
			<point x="122" y="457" type="line"/>
			<point x="92" y="457" type="line"/>
			<point x="22" y="457" type="line"/>
		</contour>
		<contour>
			<point x="28" y="704" type="line"/>
			<point x="97" y="693" type="line"/>
			<point x="186" y="693" type="line"/>
			<point x="248" y="704" type="line"/>
			<point x="248" y="754" type="line"/>
			<point x="28" y="754" type="line"/>
		</contour>
		<contour>
			<point x="292" y="404" type="line"/>
			<point x="440" y="404" type="line"/>
			<point x="270" y="611" type="line"/>
			<point x="175" y="754" type="line"/>
			<point x="28" y="754" type="line"/>
			<point x="184" y="567" type="line"/>
		</contour>
		<contour>
			<point x="217" y="404" type="line"/>
			<point x="440" y="404" type="line"/>
			<point x="440" y="457" type="line"/>
			<point x="368" y="457" type="line"/>
			<point x="273" y="457" type="line"/>
			<point x="217" y="457" type="line"/>
		</contour>
		<contour>
			<point x="284" y="704" type="line"/>
			<point x="340" y="693" type="line"/>
			<point x="359" y="693" type="line"/>
			<point x="429" y="704" type="line"/>
			<point x="429" y="754" type="line"/>
			<point x="284" y="754" type="line"/>
		</contour>
		<contour>
			<point x="22" y="410" type="line"/>
			<point x="103" y="410" type="line"/>
			<point x="186" y="544" type="line"/>
			<point x="229" y="544" type="line"/>
			<point x="192" y="614" type="line"/>
		</contour>
		<contour>
			<point x="273" y="567" type="line"/>
			<point x="429" y="742" type="line"/>
			<point x="354" y="742" type="line"/>
			<point x="274" y="624" type="line"/>
			<point x="239" y="624" type="line"/>
		</contour>
	</outline>
</glyph>
<glyph name="gravecmb" format="2">
	<unicode hex="0300"/>
	<outline>
		<contour>
			<point x="74" y="594" type="line"/>
			<point x="49" y="633"/>
			<point x="25" y="673"/>
			<point x="0" y="712" type="curve" smooth="yes"/>
			<point x="-34" y="766"/>
			<point x="-56" y="782"/>
			<point x="-92" y="782" type="curve" smooth="yes"/>
			<point x="-128" y="782"/>
			<point x="-156" y="758"/>
			<point x="-156" y="720" type="curve" smooth="yes"/>
			<point x="-156" y="682"/>
			<point x="-136" y="664"/>
			<point x="-96" y="634" type="curve" smooth="yes"/>
			<point x="-58" y="606"/>
			<point x="-20" y="578"/>
			<point x="18" y="550" type="curve"/>
		</contour>
	</outline>
	<anchor name="_aboveLC" x="0" y="552"/>
	<anchor name="aboveLC" x="0" y="812"/>
</glyph>
<glyph name="circumflexcmb" format="2">
	<unicode hex="0302"/>
	<outline>
		<contour>
			<point x="136" y="544" type="line"/>
			<point x="180" y="584" type="line"/>
			<point x="40" y="760" type="line"/>
			<point x="-40" y="760" type="line"/>
			<point x="-180" y="584" type="line"/>
			<point x="-136" y="544" type="line"/>
			<point x="48" y="680" type="line"/>
			<point x="-48" y="680" type="line"/>
		</contour>
	</outline>
	<anchor name="_aboveLC" x="0" y="536"/>
	<anchor name="aboveLC" x="0" y="760"/>
</glyph>
<glyph name="tildecmb" format="2">
	<unicode hex="0303"/>
	<outline>
		<contour>
			<point x="-190" y="584" type="curve"/>
			<point x="-120" y="573" type="line"/>
			<point x="-111" y="623"/>
			<point x="-94" y="639"/>
			<point x="-72" y="639" type="curve" smooth="yes"/>
			<point x="-49" y="639"/>
			<point x="-31" y="622"/>
			<point x="-8" y="607" type="curve" smooth="yes"/>
			<point x="14" y="592"/>
			<point x="35" y="573"/>
			<point x="77" y="573" type="curve" smooth="yes"/>
			<point x="138" y="573"/>
			<point x="175" y="610"/>
			<point x="190" y="740" type="curve"/>
			<point x="120" y="750" type="line"/>
			<point x="112" y="701"/>
			<point x="94" y="685"/>
			<point x="72" y="685" type="curve" smooth="yes"/>
			<point x="49" y="685"/>
			<point x="31" y="702"/>
			<point x="8" y="717" type="curve" smooth="yes"/>
			<point x="-14" y="732"/>
			<point x="-35" y="751"/>
			<point x="-72" y="751" type="curve" smooth="yes"/>
			<point x="-141" y="751"/>
			<point x="-177" y="711"/>
		</contour>
	</outline>
	<anchor name="_aboveLC" x="0" y="536"/>
	<anchor name="aboveLC" x="0" y="736"/>
</glyph>
<glyph name="macroncmb" format="2">
	<unicode hex="0304"/>
	<outline>
		<contour>
			<point x="-156" y="592" type="line"/>
			<point x="156" y="592" type="line"/>
			<point x="156" y="684" type="line"/>
			<point x="-156" y="684" type="line"/>
		</contour>
	</outline>
	<anchor name="_aboveLC" x="0" y="551"/>
	<anchor name="aboveLC" x="0" y="734"/>
</glyph>
<glyph name="brevecmb" format="2">
	<unicode hex="0306"/>
	<outline>
		<contour>
			<point x="-172" y="724" type="line"/>
			<point x="-160" y="632"/>
			<point x="-104" y="560"/>
			<point x="0" y="560" type="curve" smooth="yes"/>
			<point x="104" y="560"/>
			<point x="160" y="632"/>
			<point x="172" y="724" type="curve"/>
			<point x="100" y="736" type="line"/>
			<point x="88" y="688"/>
			<point x="56" y="656"/>
			<point x="0" y="656" type="curve" smooth="yes"/>
			<point x="-56" y="656"/>
			<point x="-88" y="688"/>
			<point x="-100" y="736" type="curve"/>
		</contour>
	</outline>
	<anchor name="_aboveLC" x="0" y="552"/>
	<anchor name="aboveLC" x="0" y="812"/>
</glyph>
<glyph name="dotaccentcmb" format="2">
	<unicode hex="0307"/>
	<outline>
		<contour>
			<point x="0" y="564" type="curve" smooth="yes"/>
			<point x="59" y="564"/>
			<point x="99" y="603"/>
			<point x="99" y="658" type="curve" smooth="yes"/>
			<point x="99" y="713"/>
			<point x="59" y="752"/>
			<point x="0" y="752" type="curve" smooth="yes"/>
			<point x="-59" y="752"/>
			<point x="-100" y="713"/>
			<point x="-100" y="658" type="curve" smooth="yes"/>
			<point x="-100" y="603"/>
			<point x="-59" y="564"/>
		</contour>
	</outline>
	<anchor name="_aboveLC" x="0" y="552"/>
	<anchor name="aboveLC" x="0" y="812"/>
</glyph>
<glyph name="dieresiscmb" format="2">
	<unicode hex="0308"/>
	<outline>
		<contour>
			<point x="-126" y="578" type="curve" smooth="yes"/>
			<point x="-76" y="578"/>
			<point x="-36" y="618"/>
			<point x="-36" y="668" type="curve" smooth="yes"/>
			<point x="-36" y="718"/>
			<point x="-76" y="758"/>
			<point x="-126" y="758" type="curve" smooth="yes"/>
			<point x="-176" y="758"/>
			<point x="-216" y="718"/>
			<point x="-216" y="668" type="curve" smooth="yes"/>
			<point x="-216" y="618"/>
			<point x="-176" y="578"/>
		</contour>
		<contour>
			<point x="126" y="578" type="curve" smooth="yes"/>
			<point x="176" y="578"/>
			<point x="216" y="618"/>
			<point x="216" y="668" type="curve" smooth="yes"/>
			<point x="216" y="718"/>
			<point x="176" y="758"/>
			<point x="126" y="758" type="curve" smooth="yes"/>
			<point x="76" y="758"/>
			<point x="36" y="718"/>
			<point x="36" y="668" type="curve" smooth="yes"/>
			<point x="36" y="618"/>
			<point x="76" y="578"/>
		</contour>
	</outline>
	<anchor name="_aboveLC" x="0" y="536"/>
	<anchor name="aboveLC" x="0" y="758"/>
</glyph>
<glyph name="hoicmb" format="2">
	<unicode hex="0309"/>
	<outline>
		<contour>
			<point x="-40" y="556" type="line"/>
			<point x="40" y="568"/>
			<point x="96" y="600"/>
			<point x="96" y="676" type="curve" smooth="yes"/>
			<point x="96" y="752"/>
			<point x="40" y="788"/>
			<point x="-64" y="799" type="curve"/>
			<point x="-76" y="688" type="line"/>
			<point x="-16" y="682"/>
			<point x="0" y="670"/>
			<point x="0" y="650" type="curve" smooth="yes"/>
			<point x="0" y="630"/>
			<point x="-16" y="622"/>
			<point x="-56" y="616" type="curve"/>
		</contour>
	</outline>
	<anchor name="_aboveLC" x="0" y="536"/>
	<anchor name="aboveLC" x="0" y="799"/>
</glyph>
<glyph name="ringcmb" format="2">
	<unicode hex="030A"/>
	<outline>
		<contour>
			<point x="0" y="616" type="curve" smooth="yes"/>
			<point x="-34" y="616"/>
			<point x="-60" y="640"/>
			<point x="-60" y="674" type="curve" smooth="yes"/>
			<point x="-60" y="708"/>
			<point x="-34" y="732"/>
			<point x="0" y="732" type="curve" smooth="yes"/>
			<point x="34" y="732"/>
			<point x="60" y="708"/>
			<point x="60" y="674" type="curve" smooth="yes"/>
			<point x="60" y="640"/>
			<point x="34" y="616"/>
		</contour>
		<contour>
			<point x="0" y="552" type="curve" smooth="yes"/>
			<point x="76" y="552"/>
			<point x="132" y="604"/>
			<point x="132" y="674" type="curve" smooth="yes"/>
			<point x="132" y="744"/>
			<point x="76" y="796"/>
			<point x="0" y="796" type="curve" smooth="yes"/>
			<point x="-76" y="796"/>
			<point x="-132" y="744"/>
			<point x="-132" y="674" type="curve" smooth="yes"/>
			<point x="-132" y="604"/>
			<point x="-76" y="552"/>
		</contour>
	</outline>
	<anchor name="_aboveLC" x="0" y="551"/>
	<anchor name="aboveLC" x="0" y="876"/>
</glyph>
<glyph name="hungarumlautcmb" format="2">
	<unicode hex="030B"/>
	<outline>
		<contour>
			<point x="-136" y="580" type="line"/>
			<point x="-72" y="548" type="line"/>
			<point x="8" y="660" type="line" smooth="yes"/>
			<point x="34" y="696"/>
			<point x="44" y="716"/>
			<point x="44" y="744" type="curve" smooth="yes"/>
			<point x="44" y="780"/>
			<point x="16" y="800"/>
			<point x="-18" y="800" type="curve" smooth="yes"/>
			<point x="-52" y="800"/>
			<point x="-78" y="782"/>
			<point x="-96" y="720" type="curve" smooth="yes"/>
		</contour>
		<contour>
			<point x="52" y="580" type="line"/>
			<point x="116" y="548" type="line"/>
			<point x="196" y="660" type="line" smooth="yes"/>
			<point x="222" y="696"/>
			<point x="232" y="716"/>
			<point x="232" y="744" type="curve" smooth="yes"/>
			<point x="232" y="780"/>
			<point x="204" y="800"/>
			<point x="170" y="800" type="curve" smooth="yes"/>
			<point x="136" y="800"/>
			<point x="110" y="782"/>
			<point x="92" y="720" type="curve" smooth="yes"/>
		</contour>
	</outline>
	<anchor name="_aboveLC" x="0" y="551"/>
	<anchor name="aboveLC" x="0" y="848"/>
</glyph>
<glyph name="caroncmb" format="2">
	<unicode hex="030C"/>
	<outline>
		<contour>
			<point x="-126" y="778" type="line"/>
			<point x="-172" y="740" type="line"/>
			<point x="-40" y="560" type="line"/>
			<point x="40" y="560" type="line"/>
			<point x="172" y="740" type="line"/>
			<point x="126" y="778" type="line"/>
			<point x="-48" y="640" type="line"/>
			<point x="48" y="640" type="line"/>
		</contour>
	</outline>
</glyph>
<glyph name="horncmb" format="2">
	<unicode hex="031B"/>
	<outline>
		<contour>
			<point x="0" y="516" type="line"/>
			<point x="116" y="532"/>
			<point x="180" y="592"/>
			<point x="180" y="688" type="curve" smooth="yes"/>
			<point x="180" y="720"/>
			<point x="176" y="744"/>
			<point x="168" y="768" type="curve"/>
			<point x="158" y="772"/>
			<point x="144" y="776"/>
			<point x="120" y="776" type="curve" smooth="yes"/>
			<point x="76" y="776"/>
			<point x="44" y="752"/>
			<point x="44" y="712" type="curve" smooth="yes"/>
			<point x="44" y="672"/>
			<point x="76" y="656"/>
			<point x="76" y="624" type="curve" smooth="yes"/>
			<point x="76" y="592"/>
			<point x="44" y="576"/>
			<point x="-8" y="568" type="curve"/>
		</contour>
	</outline>
	<anchor name="_hornLC" x="0" y="516"/>
</glyph>
